<?xml version="1.0" encoding="utf-8"?>
<!-- Generator: Adobe Illustrator 22.1.0, SVG Export Plug-In . SVG Version: 6.00 Build 0)  -->
<svg version="1.1" id="レイヤー_1" xmlns="http://www.w3.org/2000/svg" xmlns:xlink="http://www.w3.org/1999/xlink" x="0px"
	 y="0px" width="94px" height="13px" viewBox="0 0 94 13" style="enable-background:new 0 0 94 13;" xml:space="preserve">
<style type="text/css">
	.st0{fill:#A4ADBC;}
</style>
<g>
	<path class="st0" d="M8.88719,10.1093H3.78973l-1.11778,2.61074H0L5.43839,0.27996H7.371l5.28692,12.44008h-2.65296
		L8.88719,10.1093z M8.16684,8.13231L6.36671,3.6558L4.56657,8.13231H8.16684z"/>
	<path class="st0" d="M14.13806,12.72004V0.27996h1.70516l7.69343,8.29914V0.27996h2.4635v12.44008h-1.70516l-7.69343-8.31831
		v8.31831H14.13806z"/>
	<path class="st0" d="M36.36747,10.1093h-5.09746l-1.11778,2.61074h-2.67195l5.43839-12.44008h1.93261l5.28692,12.44008h-2.65295
		L36.36747,10.1093z M35.64713,8.13231L33.84699,3.6558l-1.80013,4.47651H35.64713z"/>
	<path class="st0" d="M44.08184,0.27996v10.35091h3.90321v2.08917h-6.36671V0.27996H44.08184z"/>
	<path class="st0" d="M52.55309,7.03164l-4.33961-6.75168h2.9184l2.70945,4.32694l2.70994-4.32694h2.91791l-4.4526,6.75168v5.6884
		h-2.4635V7.03164z"/>
	<path class="st0" d="M64.85255,2.36913v10.35091h-2.4635V2.36913h-2.84242V0.27996h8.14833v2.08917H64.85255z"/>
	<path class="st0" d="M71.71361,0.27996v12.44008h-2.4635V0.27996H71.71361z"/>
	<path class="st0" d="M83.76612,12.27229C83.00779,12.66443,82.00349,13,80.63927,13c-2.21705,0-3.56228-0.74592-4.62356-1.73442
		c-1.4592-1.38063-2.02759-2.92809-2.02759-4.75647c0-2.25695,0.94731-3.87919,2.02759-4.86769
		C77.28545,0.46596,78.85813,0,80.65826,0c0.89033,0,1.95161,0.14957,3.10786,0.7651v2.83413
		c-1.15625-1.30489-2.59646-1.39885-3.05087-1.39885c-2.53947,0-4.18813,2.05177-4.18813,4.34612
		c0,2.76031,2.16055,4.25216,4.28262,4.25216c1.17476,0,2.21704-0.50336,2.95638-1.36146V12.27229z"/>
	<path class="st0" d="M92.25636,3.11505c-0.73885-0.97028-1.61067-1.06328-2.06557-1.06328
		c-1.32623,0-1.74315,0.82071-1.74315,1.45446c0,0.29818,0.09449,0.57814,0.39792,0.83988
		c0.30343,0.279,0.71986,0.42857,1.51618,0.70853c0.98531,0.33557,1.91362,0.67114,2.55798,1.24928
		C93.48811,6.80729,94,7.64717,94,8.91563C94,11.33941,92.21838,13,89.60341,13c-2.33053,0-3.69476-1.39885-4.35812-2.34995
		l1.61067-1.51103c0.60638,1.21189,1.76214,1.65964,2.65295,1.65964c1.11778,0,1.95161-0.67114,1.95161-1.71524
		c0-0.44775-0.15147-0.80249-0.4929-1.11985c-0.47341-0.42857-1.23125-0.67114-1.9516-0.91371
		c-0.66336-0.22339-1.45921-0.52157-2.10308-1.0815c-0.41692-0.35475-1.0043-1.0441-1.0043-2.31256
		C85.90865,1.82742,87.15891,0,89.96333,0c0.79633,0,2.29303,0.14957,3.58176,1.45446L92.25636,3.11505z"/>
</g>
</svg>
