<?xml version="1.0" encoding="utf-8"?>
<!-- Generator: Adobe Illustrator 22.1.0, SVG Export Plug-In . SVG Version: 6.00 Build 0)  -->
<svg version="1.1" id="レイヤー_1" xmlns="http://www.w3.org/2000/svg" xmlns:xlink="http://www.w3.org/1999/xlink" x="0px"
	 y="0px" width="78px" height="13px" viewBox="0 0 78 13" style="enable-background:new 0 0 78 13;" xml:space="preserve">
<style type="text/css">
	.st0{fill:#A4ADBC;}
</style>
<g>
	<path class="st0" d="M9.77752,12.27229C9.01922,12.66395,8.01497,13,6.65082,13c-2.21694,0-3.5621-0.7464-4.62333-1.7349
		C0.56836,9.88495,0,8.33701,0,6.50911c0-2.25647,0.94726-3.87919,2.02749-4.86769C3.29716,0.46644,4.86976,0,6.66981,0
		c0.89028,0,1.95151,0.14909,3.10771,0.76462v2.83509c-1.1562-1.30585-2.59633-1.39885-3.05073-1.39885
		c-2.53935,0-4.18793,2.05177-4.18793,4.34564c0,2.76031,2.16044,4.25264,4.28241,4.25264c1.1747,0,2.21694-0.50383,2.95624-1.36194
		V12.27229z"/>
	<path class="st0" d="M15.70948,0.27996c1.74306,0,2.63383,0.44727,3.22118,0.93241c0.96626,0.80201,1.25068,1.86481,1.25068,2.7977
		c0,1.21237-0.49287,2.27517-1.47812,2.92809c-0.32192,0.22387-0.7768,0.42905-1.38315,0.54075l3.94101,5.24113h-3.06972
		l-3.37265-4.99856h-0.30293v4.99856h-2.46337V0.27996H15.70948z M14.51578,6.00575h0.70083
		c0.47388,0,2.42538-0.05609,2.42538-1.88399c0-1.8466-1.93252-1.86481-2.3874-1.86481h-0.73882V6.00575z"/>
	<path class="st0" d="M29.94133,2.36865h-4.54735v2.779h4.35839v2.08917h-4.35839v3.39406h4.54735v2.08917H22.9306V0.27996h7.01073
		V2.36865z"/>
	<path class="st0" d="M39.8143,10.10882h-5.09623l-1.11821,2.61122h-2.67182l5.43812-12.44008h1.93251l5.28715,12.44008h-2.65332
		L39.8143,10.10882z M39.09448,8.13183L37.29444,3.6558l-1.80005,4.47603H39.09448z"/>
	<path class="st0" d="M49.04441,2.36865v10.35139h-2.46338V2.36865h-2.84228V0.27996h8.14793v2.08869H49.04441z"/>
	<path class="st0" d="M55.90367,0.27996v12.44008H53.4403V0.27996H55.90367z"/>
	<path class="st0" d="M60.07358,0.27996l3.37314,8.3557l3.37313-8.3557h2.69033l-5.34364,12.44008H62.6889L57.38325,0.27996
		H60.07358z"/>
	<path class="st0" d="M78,2.36865h-4.54784v2.779h4.35888v2.08917h-4.35888v3.39406H78v2.08917h-7.01122V0.27996H78V2.36865z"/>
</g>
</svg>
