<?xml version="1.0" encoding="utf-8"?>
<!-- Generator: Adobe Illustrator 22.1.0, SVG Export Plug-In . SVG Version: 6.00 Build 0)  -->
<svg version="1.1" id="レイヤー_1" xmlns="http://www.w3.org/2000/svg" xmlns:xlink="http://www.w3.org/1999/xlink" x="0px"
	 y="0px" width="103px" height="13px" viewBox="0 0 103 13" style="enable-background:new 0 0 103 13;" xml:space="preserve">
<style type="text/css">
	.st0{fill:#0C2041;}
</style>
<g>
	<path class="st0" d="M2.35254,0.27996h1.78391l3.35812,7.90796l3.51027-7.90796h1.78342l2.12479,12.44008h-2.5042l-1.13872-7.66539
		l-3.39616,7.66539h-0.8349L3.79459,5.05465l-1.2899,7.66539H0L2.35254,0.27996z"/>
	<path class="st0" d="M24.64896,10.1093h-5.10399l-1.11921,2.61074h-2.67538l5.44536-12.44008h1.93509l5.29369,12.44008h-2.65636
		L24.64896,10.1093z M23.92769,8.13231L22.12525,3.6558l-1.80244,4.47651H23.92769z"/>
	<path class="st0" d="M33.5685,0.27996c1.74538,0,2.63734,0.44775,3.22547,0.93193c0.96754,0.80249,1.25235,1.86577,1.25235,2.7977
		c0,1.21285-0.49353,2.27613-1.48009,2.92905c-0.32235,0.22339-0.77784,0.42857-1.38499,0.54075l3.94625,5.24065h-3.07332
		l-3.37762-4.99808h-0.30333v4.99808h-2.46665V0.27996H33.5685z M32.37321,6.00575h0.70176
		c0.47451,0,2.42861-0.05561,2.42861-1.88399c0-1.8466-1.93509-1.86481-2.39057-1.86481h-0.7398V6.00575z"/>
	<path class="st0" d="M43.26539,5.53979l4.6485-5.25983h3.11135l-5.35026,5.74401l5.63506,6.69607h-3.26351l-4.49684-5.57622
		l-0.28431,0.279v5.29722h-2.46665V0.27996h2.46665C43.26538,0.27996,43.26538,5.53979,43.26539,5.53979z"/>
	<path class="st0" d="M59.88774,2.36913h-4.55341v2.77852h4.36419v2.08917h-4.36419v3.39406h4.55341v2.08917h-7.02006V0.27996
		h7.02006V2.36913z"/>
	<path class="st0" d="M66.26455,2.36913v10.35091H63.7979V2.36913h-2.84606V0.27996h8.15877v2.08917H66.26455z"/>
	<path class="st0" d="M73.13294,0.27996v12.44008h-2.46665V0.27996H73.13294z"/>
	<path class="st0" d="M76.01801,12.72004V0.27996h1.70783l7.70329,8.29914V0.27996h2.46665v12.44008h-1.70783l-7.70329-8.31831
		v8.31831C78.48466,12.72004,76.01801,12.72004,76.01801,12.72004z"/>
	<path class="st0" d="M97.19474,6.06136H103v0.14957c0,0.83893-0.11314,3.45062-1.85901,5.14765
		C99.83208,12.64525,98.21885,13,96.64367,13c-1.57421,0-3.20596-0.31735-4.59096-1.67881
		c-0.43696-0.42857-1.87852-1.99521-1.87852-4.79291c0-2.40652,1.10019-3.88015,1.85901-4.62608
		C92.98222,0.9511,94.57594,0,97.02406,0c0.94804,0,1.95361,0.14957,2.92116,0.65292
		c0.81637,0.41035,1.70783,1.15628,2.37205,2.27517l-2.14381,1.13806c-0.43696-0.83988-1.08166-1.26846-1.48058-1.47363
		c-0.53059-0.26079-1.1948-0.39214-1.78294-0.39214c-1.00558,0-2.14381,0.35475-2.92213,1.10067
		c-0.72078,0.69032-1.27088,1.88399-1.27088,3.28284c0,1.65964,0.72079,2.64813,1.25235,3.15149
		c0.56863,0.54171,1.46009,1.06328,2.80802,1.06328c0.83489,0,1.78294-0.22339,2.48518-0.74592
		c0.49352-0.37296,0.98705-1.00671,1.19577-1.90221h-3.2635V6.06136H97.19474z"/>
</g>
</svg>
