<?xml version="1.0" encoding="utf-8"?>
<!-- Generator: Adobe Illustrator 22.1.0, SVG Export Plug-In . SVG Version: 6.00 Build 0)  -->
<svg version="1.1" id="レイヤー_1" xmlns="http://www.w3.org/2000/svg" xmlns:xlink="http://www.w3.org/1999/xlink" x="0px"
	 y="0px" width="85px" height="13px" viewBox="0 0 85 13" style="enable-background:new 0 0 85 13;" xml:space="preserve">
<style type="text/css">
	.st0{fill:#0C2041;}
</style>
<g>
	<path class="st0" d="M7.01648,3.11457c-0.73986-0.9698-1.61131-1.0628-2.06654-1.0628c-1.32765,0-1.74486,0.82023-1.74486,1.45446
		c0,0.29866,0.09455,0.57814,0.39869,0.83941C3.90693,4.6256,4.32413,4.77469,5.12053,5.05465
		c0.9855,0.33557,1.91545,0.67114,2.55978,1.24928c0.56927,0.50384,1.08103,1.34276,1.08103,2.61122
		C8.76134,11.33988,6.97846,13,4.36215,13C2.0295,13,0.66383,11.60115,0,10.64957l1.61229-1.51055
		c0.60631,1.21237,1.76338,1.66012,2.65433,1.66012c1.11905,0,1.95346-0.67162,1.95346-1.7162
		c0-0.44727-0.15207-0.80201-0.49324-1.11889C5.2531,7.535,4.49472,7.29243,3.77436,7.05034
		C3.11053,6.82646,2.31413,6.5278,1.66883,5.96836c-0.41721-0.35427-1.005-1.04458-1.005-2.31256
		C0.66383,1.8279,1.91545,0,4.72184,0c0.7964,0,2.29464,0.14909,3.58427,1.45494L7.01648,3.11457z"/>
	<path class="st0" d="M14.90636,2.36865v10.35139h-2.46522V2.36865H9.59673V0.27996h8.15405v2.08869H14.90636z"/>
	<path class="st0" d="M22.96684,0.27996c1.74486,0,2.63581,0.44727,3.2236,0.93241c0.96698,0.80201,1.25162,1.86481,1.25162,2.7977
		c0,1.21237-0.49324,2.27517-1.47972,2.92809c-0.32168,0.22387-0.7769,0.42905-1.38419,0.54075l3.94494,5.24113h-3.07251
		l-3.37469-4.99856h-0.30413v4.99856h-2.46522V0.27996H22.96684z M21.77175,6.00575h0.70184
		c0.47374,0,2.42721-0.05609,2.42721-1.88399c0-1.84612-1.93397-1.86481-2.38919-1.86481h-0.73986
		C21.77175,2.25695,21.77175,6.00575,21.77175,6.00575z"/>
	<path class="st0" d="M37.68214,10.10882h-5.10006l-1.11905,2.61122H28.7892l5.44221-12.44008h1.93396l5.29112,12.44008h-2.65531
		L37.68214,10.10882z M36.96178,8.13183l-1.8014-4.47603l-1.8014,4.47603H36.96178z"/>
	<path class="st0" d="M46.92015,2.36865v10.35139h-2.46522V2.36865h-2.84441V0.27996h8.15405v2.08869H46.92015z"/>
	<path class="st0" d="M58.33582,2.36865h-4.55126v2.779h4.36215v2.08917h-4.36215v3.39453h4.55126v2.08869h-7.01648V0.27996h7.01648
		C58.33582,0.27996,58.33582,2.36865,58.33582,2.36865z"/>
	<path class="st0" d="M67.13615,6.06136h5.8019v0.14957c0,0.83941-0.11308,3.45014-1.85793,5.14765
		C69.77196,12.64525,68.15967,13,66.5854,13c-1.5733,0-3.20411-0.31735-4.5883-1.67881
		c-0.4367-0.42905-1.87743-1.99569-1.87743-4.79338c0-2.40604,1.09956-3.87919,1.85794-4.6256
		C62.92607,0.9511,64.51886,0,66.96556,0c0.94749,0,1.95249,0.14909,2.91947,0.65292
		c0.8159,0.41035,1.70684,1.15628,2.37067,2.27517l-2.14257,1.13758c-0.4367-0.83893-1.08103-1.26798-1.47971-1.47315
		c-0.53028-0.26127-1.19411-0.39166-1.78191-0.39166c-1.005,0-2.14257,0.35427-2.92044,1.10019
		c-0.72036,0.69032-1.27014,1.88399-1.27014,3.28284c0,1.66012,0.72036,2.64861,1.25162,3.15197
		c0.5683,0.54075,1.45925,1.06328,2.8064,1.06328c0.83441,0,1.7819-0.22387,2.48374-0.7464
		c0.49324-0.37296,0.98648-1.00719,1.19508-1.90221h-3.26162V6.06136z"/>
	<path class="st0" d="M78.07905,7.03164L73.7364,0.27996h2.92045l2.71184,4.32694l2.71087-4.32694H85l-4.45573,6.75168v5.6884
		h-2.46523C78.07904,12.72004,78.07904,7.03164,78.07905,7.03164z"/>
</g>
</svg>
