<?xml version="1.0" encoding="utf-8"?>
<!-- Generator: Adobe Illustrator 21.1.0, SVG Export Plug-In . SVG Version: 6.00 Build 0)  -->
<svg version="1.1" id="レイヤー_1" xmlns="http://www.w3.org/2000/svg" xmlns:xlink="http://www.w3.org/1999/xlink" x="0px"
	 y="0px" width="94px" height="13px" viewBox="0 0 94 13" style="enable-background:new 0 0 94 13;" xml:space="preserve">
<style type="text/css">
	.st0{fill:#0C2041;}
</style>
<g>
	<path class="st0" d="M4.9335,4.7311h3.6092v0.2046c0,0.946-0.2857,1.9689-0.8309,2.6974C7.452,7.9784,6.4782,9.1679,4.4917,9.1679
		C1.9216,9.1679,0,7.2369,0,4.7566s1.9343-4.4113,4.5181-4.4113c0.8309,0,1.8046,0.2046,2.6481,0.8442
		c0.3896,0.2939,0.7533,0.6776,0.9996,1.0099L7.452,2.8386C7.2052,2.4933,6.9195,2.1864,6.6343,1.9564
		c-0.4154-0.3323-1.0649-0.716-2.1035-0.716c-2.0898,0-3.5439,1.5473-3.5439,3.5286c0,2.3271,1.8821,3.5037,3.518,3.5037
		c1.1556,0,2.1552-0.5753,2.6486-1.432c0.1555-0.2684,0.3243-0.6776,0.3506-1.215H4.9335V4.7311z"/>
	<path class="st0" d="M10.0996,4.7566c0-2.5442,2.0123-4.4113,4.5049-4.4113s4.5049,1.8671,4.5049,4.4113
		c0,2.5317-1.9991,4.4113-4.5049,4.4113C12.0992,9.1679,10.0996,7.2883,10.0996,4.7566z M11.0865,4.7566
		c0,1.9564,1.5706,3.5162,3.518,3.5162S18.123,6.713,18.123,4.7566s-1.571-3.5162-3.5185-3.5162S11.0865,2.8002,11.0865,4.7566z"/>
	<path class="st0" d="M20.6668,4.7566c0-2.5442,2.0123-4.4113,4.5049-4.4113s4.5049,1.8671,4.5049,4.4113
		c0,2.5317-1.9991,4.4113-4.5049,4.4113C22.6665,9.1679,20.6668,7.2883,20.6668,4.7566z M21.6537,4.7566
		c0,1.9564,1.5706,3.5162,3.518,3.5162s3.5185-1.5598,3.5185-3.5162s-1.571-3.5162-3.5185-3.5162S21.6537,2.8002,21.6537,4.7566z"/>
	<path class="st0" d="M36.1675,4.7311h3.6087v0.2046c0,0.946-0.2852,1.9689-0.8309,2.6974
		c-0.2594,0.3453-1.2331,1.5348-3.2191,1.5348c-2.5706,0-4.4922-1.931-4.4922-4.4113s1.9343-4.4113,4.5181-4.4113
		c0.8309,0,1.8046,0.2046,2.6481,0.8442c0.3896,0.2939,0.7528,0.6776,0.9996,1.0099L38.686,2.8386
		c-0.2467-0.3453-0.5325-0.6521-0.8177-0.8822c-0.4154-0.3323-1.0649-0.716-2.1035-0.716c-2.0898,0-3.5439,1.5473-3.5439,3.5286
		c0,2.3271,1.8821,3.5037,3.518,3.5037c1.1556,0,2.1552-0.5753,2.6486-1.432c0.1555-0.2684,0.3243-0.6776,0.3501-1.215h-2.5701
		V4.7311z"/>
	<path class="st0" d="M42.7618,0.486v7.6331h2.3887v0.8951h-3.3493V0.486H42.7618z"/>
	<path class="st0" d="M51.2002,1.3811H47.669v2.5317h3.4273v0.8946H47.669v3.3116h3.5312v0.8951h-4.4917V0.486h4.4917V1.3811z"/>
	<path class="st0" d="M56.2102,9.0142l1.4413-9.0012l3.3235,7.1985L64.3633,0l1.3502,9.0142h-0.9869l-0.8177-5.9326l-2.947,6.2909
		l-2.908-6.2909l-0.8567,5.9326H56.2102z"/>
	<path class="st0" d="M72.7495,6.6102h-3.6872l-1.0386,2.404h-1.0644l3.9856-8.9374l3.8818,8.9374h-1.0649L72.7495,6.6102z
		 M72.3731,5.7156l-1.454-3.4139l-1.4803,3.4139H72.3731z"/>
	<path class="st0" d="M77.8766,0.486c0.8699,0,1.5969,0.1023,2.181,0.6008c0.6363,0.5374,0.7919,1.2918,0.7919,1.8287
		c0,1.202-0.7655,2.391-2.7388,2.391h-0.844v3.7078h-0.9606V0.486H77.8766z M77.2666,4.4113h0.7919
		c1.1424,0,1.8304-0.5623,1.8304-1.5473c0-1.3552-1.2853-1.4829-1.9085-1.4829h-0.7138V4.4113z"/>
</g>
<path class="st0" d="M88.3658,2.7233V1.8032L94,4.3983v0.7928l-5.6342,2.5956V6.8662l4.6346-2.0712L88.3658,2.7233z"/>
</svg>
