<?xml version="1.0" encoding="utf-8"?>
<!-- Generator: Adobe Illustrator 24.3.0, SVG Export Plug-In . SVG Version: 6.00 Build 0)  -->
<svg version="1.1" id="レイヤー_1" xmlns="http://www.w3.org/2000/svg" xmlns:xlink="http://www.w3.org/1999/xlink" x="0px"
	 y="0px" viewBox="0 0 99 34" style="enable-background:new 0 0 99 34;" xml:space="preserve">
<style type="text/css">
	.st0{fill:none;}
	.st1{fill:#2A0D00;}
</style>
<g>
	<rect x="17.5" y="24.6" class="st0" width="29" height="7.4"/>
</g>
<g>
	<path class="st1" d="M43.7,27.6c-0.6,0.4-1.4,0.9-2.5,1.2c-4.4,1.2-8.4-1.7-8.6-1.9c-3-2.4-8.2-9-8.5-9.2c-0.3-0.1-0.5-0.2-0.5-0.2
		c0,0,0,0-0.1,0c-0.1,0-0.1,0-0.3,0c-0.1,0-0.3,0-0.4,0v5.1c0,1.1,0.1,1.8,0.4,2c0.3,0.4,0.8,0.6,1.5,0.6h0.7v0.5h-7.5v-0.6h0.7
		c0.7,0,1.3-0.2,1.6-0.7c0.2-0.3,0.3-0.9,0.3-1.9V11.4c0-1.1-0.1-1.8-0.4-2c-0.3-0.4-0.8-0.6-1.5-0.6h-0.7V8.3h6.3
		c1.8,0,3.2,0.1,4.1,0.4c0.9,0.3,1.6,0.8,2.2,1.5c0.6,0.7,0.9,1.6,0.9,2.6c0,1.1-0.3,2-1,2.8s-1.8,1.3-3.2,1.7c1.9,3,3.8,5,5.1,6.3
		c1.5,1.4,2.6,2.3,3.9,2.9c1.2,0.6,2.2,0.9,2.4,0.9C40.5,27.9,42.3,27.9,43.7,27.6z M22.9,16.8c0,0,0.2,0,0.2,0c0.1,0,0.3,0,0.3,0
		c1.7,0,2.9-0.4,3.8-1.1c0.8-0.7,1.3-1.6,1.3-2.7s-0.3-2-1-2.6c-0.4-0.3-0.8-0.6-1.3-0.8c-0.5-0.2-1-0.2-1.4-0.2
		c-0.5,0-1.1,0-1.9,0.2C22.9,12,22.9,14.4,22.9,16.8z M74,7.2"/>
	<path class="st1" d="M39.4,9.3v6.9h3.8c1,0,1.7-0.1,2-0.4c0.4-0.4,0.7-1.1,0.7-2.1h0.5v6.1h-0.5c-0.1-0.8-0.2-1.4-0.4-1.6
		c-0.2-0.3-0.4-0.5-0.8-0.7c-0.4-0.2-0.9-0.3-1.6-0.3h-3.8v5.7c0,0.8,0,1.2,0.1,1.4c0.1,0.2,0.2,0.3,0.4,0.4s0.5,0.1,1,0.1h2.9
		c1,0,1.7-0.1,2.1-0.2s0.9-0.4,1.3-0.8c0.5-0.5,1.1-1.3,1.6-2.4h0.5l-1.5,4.4H34.4v-0.6H35c0.4,0,0.8-0.1,1.2-0.3
		c0.3-0.1,0.5-0.3,0.6-0.6c0.1-0.3,0.1-0.8,0.1-1.7V11.4c0-1.1-0.1-1.8-0.3-2c-0.3-0.3-0.8-0.5-1.5-0.5h-0.6V8.3h13.4l0.2,3.8h-0.5
		c-0.2-0.9-0.4-1.5-0.6-1.9c-0.2-0.3-0.5-0.6-1-0.8c-0.3-0.1-0.9-0.2-1.8-0.2L39.4,9.3L39.4,9.3z"/>
	<path class="st1" d="M62.4,8.8V8.3h6.2v0.5h-0.7c-0.7,0-1.2,0.3-1.6,0.9C66.2,10,66,10.6,66,11.5v7.1c0,1.7-0.2,3.1-0.5,4.1
		s-1,1.8-2,2.5s-2.4,1-4.1,1c-1.9,0-3.3-0.3-4.3-1s-1.7-1.5-2.1-2.7c-0.3-0.8-0.4-2.2-0.4-4.3v-6.8c0-1.1-0.1-1.8-0.4-2.1
		s-0.8-0.5-1.4-0.5h-0.7V8.3h7.5v0.5h-0.7c-0.7,0-1.2,0.2-1.5,0.7c-0.2,0.3-0.3,0.9-0.3,1.9V19c0,0.7,0.1,1.4,0.2,2.3
		c0.1,0.9,0.3,1.6,0.7,2s0.8,0.9,1.4,1.2c0.6,0.3,1.4,0.5,2.3,0.5c1.1,0,2.2-0.2,3.1-0.7c0.9-0.5,1.5-1.1,1.8-1.9
		c0.3-0.8,0.5-2.1,0.5-3.9v-7c0-1.1-0.1-1.8-0.4-2c-0.3-0.4-0.8-0.6-1.5-0.6L62.4,8.8L62.4,8.8z"/>
	<path class="st1" d="M80.9,7.9v6h-0.5c-0.2-1.2-0.4-2.1-0.8-2.8c-0.4-0.7-1-1.2-1.7-1.6c-0.7-0.4-1.5-0.6-2.3-0.6
		c-0.9,0-1.6,0.3-2.2,0.8s-0.9,1.2-0.9,1.9c0,0.5,0.2,1,0.6,1.4c0.5,0.6,1.8,1.5,3.8,2.6c1.6,0.9,2.7,1.5,3.3,2
		c0.6,0.5,1.1,1,1.4,1.6s0.5,1.3,0.5,2c0,1.3-0.5,2.5-1.5,3.4S78.3,26,76.8,26c-0.5,0-1,0-1.4-0.1c-0.3,0-0.8-0.2-1.6-0.5
		c-0.8-0.3-1.4-0.4-1.6-0.4s-0.4,0.1-0.5,0.2s-0.2,0.4-0.3,0.8h-0.5v-6h0.5c0.2,1.2,0.5,2.2,0.9,2.8c0.4,0.6,1,1.1,1.7,1.5
		c0.8,0.4,1.6,0.6,2.5,0.6c1.1,0,1.9-0.3,2.5-0.8c0.6-0.6,0.9-1.2,0.9-2c0-0.4-0.1-0.9-0.4-1.3s-0.6-0.8-1.1-1.2
		c-0.3-0.3-1.2-0.8-2.7-1.6c-1.5-0.8-2.5-1.5-3.2-2c-0.6-0.5-1.1-1-1.4-1.6s-0.5-1.3-0.5-2c0-1.2,0.5-2.3,1.4-3.2
		c1-0.9,2.2-1.4,3.7-1.4c0.9,0,1.9,0.2,2.9,0.7c0.5,0.2,0.8,0.3,1,0.3s0.4-0.1,0.5-0.2c0.1-0.1,0.3-0.4,0.3-0.8h0.6V7.9z"/>
</g>
<path class="st1" d="M33,17.1"/>
</svg>
