<?xml version="1.0" encoding="utf-8"?>
<!-- Generator: Adobe Illustrator 22.1.0, SVG Export Plug-In . SVG Version: 6.00 Build 0)  -->
<svg version="1.1" id="レイヤー_1" xmlns="http://www.w3.org/2000/svg" xmlns:xlink="http://www.w3.org/1999/xlink" x="0px"
	 y="0px" width="116px" height="18px" viewBox="0 0 116 18" style="enable-background:new 0 0 116 18;" xml:space="preserve">
<style type="text/css">
	.st0{fill:#FFFFFF;}
</style>
<g>
	<path class="st0" d="M10.9892,12.93671H3.99159L2.02043,17.6962H0L7.56431,0l7.3672,17.6962h-2.02043L10.9892,12.93671z
		 M10.27465,11.16455l-2.75963-6.7595l-2.80889,6.7595H10.27465z"/>
	<path class="st0" d="M21.44011,0.81012c0.91166,0,2.56251,0.07595,3.76983,1.06329
		c0.51743,0.40507,1.47836,1.44303,1.47836,3.49368c0,0.83545-0.17248,2.30379-1.6262,3.31646
		c2.29147,0.58227,3.12921,2.63292,3.12921,4.25316s-0.78846,2.93671-1.67548,3.64557
		c-1.30589,1.06329-2.80889,1.11392-3.94231,1.11392h-4.09015V0.81012H21.44011z M20.3067,8.22784h1.37981
		c0.96094,0,3.22777-0.20253,3.22777-2.81013c0-2.78481-2.66107-2.83544-3.17849-2.83544H20.3067
		C20.3067,2.58227,20.3067,8.22784,20.3067,8.22784z M20.3067,15.92405h2.09435c1.0595,0,2.09435-0.07595,2.88282-0.70885
		c0.64062-0.48102,1.08413-1.31645,1.08413-2.32912c0-1.34178-0.76383-2.12658-1.40445-2.48101
		c-0.61599-0.35443-1.47836-0.50633-2.78426-0.50633H20.3067V15.92405z"/>
	<path class="st0" d="M31.89039,9.26582c0-5.03798,3.81911-8.73418,8.54989-8.73418s8.55051,3.6962,8.55051,8.73418
		C48.9908,14.27847,45.19506,18,40.44028,18C35.68487,18,31.89039,14.27849,31.89039,9.26582z M33.763,9.26582
		c0,3.87342,2.98137,6.96203,6.67728,6.96203s6.67793-3.0886,6.67793-6.96203s-2.98201-6.96203-6.67793-6.96203
		C36.74436,2.30379,33.763,5.3924,33.763,9.26582z"/>
	<path class="st0" d="M55.40086,11.16455c0,1.41772,0,2.96203,1.30526,4.10126c0.6659,0.58229,1.79931,0.96203,2.71161,0.96203
		c0.91103,0,2.04445-0.37974,2.70907-0.96203c1.30652-1.13923,1.30652-2.68355,1.30652-4.10126V0.81012h1.82333v10.86076
		c0,1.41772-0.14784,2.78481-1.03485,4.05064C63.2362,17.11393,61.51144,18,59.41772,18c-2.09499,0-3.81975-0.88607-4.80532-2.27848
		c-0.88702-1.26583-1.03485-2.63292-1.03485-4.05064V0.81012h1.82333v10.35443H55.40086z"/>
	<path class="st0" d="M74.77126,2.58228V17.6962h-1.82333V2.58228h-3.9916V0.81012h9.8065v1.77216H74.77126z"/>
	<path class="st0" d="M91.2582,11.16455c0,1.41772,0,2.96203,1.30526,4.10126c0.66589,0.58229,1.79932,0.96203,2.7116,0.96203
		c0.91103,0,2.04444-0.37974,2.70908-0.96203c1.30652-1.13923,1.30652-2.68355,1.30652-4.10126V0.81012h1.82333v10.86076
		c0,1.41772-0.14783,2.78481-1.03487,4.05064C99.09355,17.11393,97.36878,18,95.27506,18
		c-2.09498,0-3.81973-0.88607-4.80533-2.27848c-0.88702-1.26583-1.03485-2.63292-1.03485-4.05064V0.81012h1.82333
		C91.25821,0.81012,91.25821,11.16455,91.2582,11.16455z"/>
	<path class="st0" d="M113.93029,4.15189c-0.22239-0.45569-0.59135-0.96203-0.96031-1.26583
		c-0.32095-0.25315-0.91228-0.58227-1.84859-0.58227c-1.62621,0-2.75961,1.03798-2.75961,2.60759
		c0,0.65823,0.17311,1.03798,0.61536,1.46836c0.49277,0.50633,1.1094,0.78481,1.72601,1.06329l1.57692,0.70887
		c0.96031,0.43038,1.84732,0.88607,2.53723,1.59494C115.65504,10.60759,116,11.59494,116,12.81013
		C116,15.92405,113.75844,18,110.80171,18c-1.08413,0-2.43993-0.22785-3.57335-1.36709
		c-0.81374-0.81012-1.30653-1.97468-1.52765-2.98734l1.77402-0.50633c0.12257,0.88607,0.5168,1.64557,0.98559,2.1519
		c0.7139,0.73418,1.52764,0.93671,2.36538,0.93671c2.24282,0,3.30168-1.64557,3.30168-3.34177
		c0-0.75949-0.22238-1.41772-0.81373-1.97468c-0.46753-0.45569-1.10815-0.75949-1.97116-1.16456l-1.47836-0.70885
		c-0.63937-0.3038-1.4531-0.65823-2.19228-1.39241c-0.71391-0.70887-1.13343-1.49367-1.13343-2.7595
		c0-2.60759,1.9459-4.35444,4.60694-4.35444c1.01086,0,1.82458,0.20253,2.63706,0.75949
		c0.66589,0.45569,1.23196,1.13923,1.60094,1.87341L113.93029,4.15189z"/>
</g>
</svg>
