<?xml version="1.0" encoding="utf-8"?>
<!-- Generator: Adobe Illustrator 22.1.0, SVG Export Plug-In . SVG Version: 6.00 Build 0)  -->
<svg version="1.1" id="レイヤー_1" xmlns="http://www.w3.org/2000/svg" xmlns:xlink="http://www.w3.org/1999/xlink" x="0px"
	 y="0px" width="114px" height="19px" viewBox="0 0 114 19" style="enable-background:new 0 0 114 19;" xml:space="preserve">
<style type="text/css">
	.st0{fill:#FFFFFF;}
</style>
<g>
	<path class="st0" d="M13.64133,4.6653c-0.52466-0.54732-1.32416-1.1989-2.17361-1.61591
		c-0.87445-0.41702-1.8988-0.67765-2.87318-0.67765c-3.84755,0-6.69574,3.23182-6.69574,7.24554
		c0,4.71741,3.67266,7.08916,6.72073,7.08916c1.12429,0,2.22359-0.33882,3.09804-0.80796
		c0.9494-0.49519,1.62396-1.14677,1.92378-1.45954v2.3978c-1.84882,1.38134-3.7726,1.69411-5.0218,1.69411
		C3.67266,18.53086,0,14.6214,0,9.59123c0-5.18655,3.72264-9.04389,8.71945-9.04389c0.99936,0,2.92314,0.13031,4.92188,1.72017
		V4.6653z"/>
	<path class="st0" d="M17.3928,9.5391c0-5.18655,3.87254-8.99176,8.66949-8.99176s8.66949,3.80521,8.66949,8.99176
		c0,5.16049-3.84755,8.99176-8.66949,8.99176S17.3928,14.69959,17.3928,9.5391z M19.29159,9.5391
		c0,3.98765,3.02308,7.16736,6.7707,7.16736s6.7707-3.17971,6.7707-7.16736s-3.02308-7.16736-6.7707-7.16736
		S19.29159,5.55145,19.29159,9.5391z"/>
	<path class="st0" d="M39.3833,18.21811V0.10426l12.99174,14.20439V0.83402h1.84883V19L41.23214,4.79561v13.42249H39.3833z"/>
	<path class="st0" d="M63.87223,2.65844v15.55967H62.0234V2.65844h-4.04743V0.83402h9.94368v1.82442H63.87223z"/>
	<path class="st0" d="M80.86401,13.31824h-7.0955l-1.99873,4.89986h-2.0487L77.3912,0l7.47025,18.21811h-2.0487L80.86401,13.31824z
		 M80.13947,11.49383l-2.79823-6.95884l-2.84819,6.95884H80.13947z"/>
	<path class="st0" d="M101.20428,4.6653c-0.52468-0.54732-1.32417-1.1989-2.17362-1.61591
		c-0.87444-0.41701-1.8988-0.67763-2.87318-0.67763c-3.84755,0-6.69574,3.23182-6.69574,7.24554
		c0,4.71742,3.67268,7.08916,6.72072,7.08916c1.12428,0,2.22359-0.33882,3.09803-0.80796
		c0.94939-0.49519,1.62398-1.14677,1.92378-1.45954v2.3978c-1.84882,1.38134-3.77261,1.69411-5.02183,1.69411
		c-4.94685,0-8.61952-3.90947-8.61952-8.93965c0-5.18655,3.72263-9.04389,8.71947-9.04389
		c0.99936,0,2.92314,0.13031,4.92186,1.72017V4.6653H101.20428z"/>
	<path class="st0" d="M109.95257,2.65844v15.55967h-1.84882V2.65844h-4.04742V0.83402H114v1.82442H109.95257z"/>
</g>
</svg>
