<svg enable-background="new 0 0 100 19" height="19" viewBox="0 0 100 19" width="100" xmlns="http://www.w3.org/2000/svg"><g fill="#fff"><path d="m3.06981.83402c1.70083 0 3.12187.20851 4.26313 1.22497 1.24407 1.09464 1.54857 2.63237 1.54857 3.72703 0 2.44993-1.49652 4.8738-5.35364 4.8738h-1.65007v7.5583h-1.8778v-17.3841zm-1.19201 8.00137h1.54857c2.23307 0 3.57733-1.14677 3.57733-3.15363 0-2.7627-2.51285-3.02332-3.73088-3.02332h-1.39502z"/><path d="m22.18101 13.31824h-7.20672l-2.03007 4.89986h-2.0808l7.79102-18.2181 7.58671 18.21811h-2.08081zm-.73654-1.82441-2.84208-6.95884-2.89153 6.95884z"/><path d="m32.615.83402c1.14125 0 2.84208.07818 4.10957.96433.9903.67764 1.85308 2.00686 1.85308 3.85734 0 2.65844-1.69952 4.61317-4.26313 4.79561l5.37965 7.76681h-2.28381l-5.15194-7.61042h-.48149v7.61042h-1.87781v-17.38409zm-.83804 8.0535h1.19201c2.33457 0 3.73088-1.14677 3.73088-3.1797 0-.96433-.27979-1.92866-1.34427-2.55418-.76257-.44307-1.62405-.49519-2.43607-.49519h-1.14256c.00001-.00001.00001 6.22907.00001 6.22907z"/><path d="m48.07079 2.65844v15.55967h-1.8778v-15.55967h-4.11089v-1.82442h10.09956v1.82442z"/><path d="m55.99063 18.21811v-18.11385l13.1954 14.20439v-13.47463h1.87779v18.16598l-13.19538-14.20439v13.42249h-1.87781z"/><path d="m85.48246 2.65844h-6.90219v5.16049h6.6992v1.82442h-6.6992v6.75035h6.90219v1.82442h-8.78001v-17.3841h8.78001z"/><path d="m92.92081.83402c1.14126 0 2.84209.07818 4.10958.96433.9903.67764 1.85308 2.00686 1.85308 3.85734 0 2.65844-1.69952 4.61317-4.26312 4.79561l5.37965 7.76681h-2.28381l-5.15194-7.61042h-.48148v7.61042h-1.87782v-17.38409zm-.83805 8.0535h1.19199c2.33458 0 3.73088-1.14677 3.73088-3.1797 0-.96433-.27978-1.92866-1.34425-2.55418-.76257-.44307-1.62405-.49519-2.43607-.49519h-1.14256c.00001-.00001.00001 6.22907.00001 6.22907z"/></g></svg>