<?xml version="1.0" encoding="utf-8"?>
<!-- Generator: Adobe Illustrator 21.1.0, SVG Export Plug-In . SVG Version: 6.00 Build 0)  -->
<svg version="1.1" id="レイヤー_1" xmlns="http://www.w3.org/2000/svg" xmlns:xlink="http://www.w3.org/1999/xlink" x="0px"
	 y="0px" width="83px" height="17px" viewBox="0 0 83 17" style="enable-background:new 0 0 83 17;" xml:space="preserve">
<style type="text/css">
	.st0{fill:#FFFFFF;}
</style>
<g>
	<path class="st0" d="M2.6519,0.2711c1.1145,0,2.7757,0.0733,4.014,0.9115c0.967,0.6404,1.8101,1.8976,1.8101,3.6459
		c0,2.5131-1.6613,4.361-4.1643,4.5339l5.2551,7.3416H7.3352L2.3041,9.5104H1.8338v7.1936H0V0.2711H2.6519z M1.8338,7.8838h1.1646
		c2.2804,0,3.6439-1.0844,3.6439-3.0055c0-0.9115-0.2727-1.823-1.3134-2.4149C4.5845,2.0456,3.7427,1.9959,2.9497,1.9959H1.8338
		V7.8838z"/>
	<path class="st0" d="M21.0121,1.9959H14.271v4.8783h6.5435v1.7248H14.271v6.3804h6.7411v1.7248h-8.5749V0.2711h8.5749V1.9959z"/>
	<path class="st0" d="M37.0181,3.8935c-0.5204-0.5187-1.3134-1.1342-2.1552-1.5284c-0.8682-0.3942-1.8839-0.6404-2.8509-0.6404
		c-3.8165,0-6.6423,3.0553-6.6423,6.8492c0,4.4592,3.6439,6.7012,6.6673,6.7012c1.1159,0,2.2053-0.3209,3.0735-0.7635
		c0.9419-0.4689,1.6098-1.0844,1.9075-1.3804v2.2669C35.1843,16.704,33.2768,17,32.0371,17c-4.9073,0-8.5498-3.6957-8.5498-8.4509
		C23.4873,3.6459,27.1799,0,32.1359,0c0.992,0,2.8996,0.1231,4.8822,1.6266V3.8935z"/>
	<path class="st0" d="M43.0357,0.2711c1.1145,0,2.7757,0.0733,4.014,0.9115c0.967,0.6404,1.8101,1.8976,1.8101,3.6459
		c0,2.5131-1.6613,4.361-4.1643,4.5339l5.2537,7.3416H47.719l-5.0311-7.1936h-0.4703v7.1936h-1.8338V0.2711H43.0357z
		 M42.2176,7.8838h1.1646c2.2804,0,3.6439-1.0844,3.6439-3.0055c0-0.9115-0.2727-1.823-1.3134-2.4149
		c-0.7444-0.4177-1.5861-0.4675-2.3792-0.4675h-1.1159V7.8838z"/>
	<path class="st0" d="M54.6562,10.3472c0,1.3804,0,2.8824,1.3127,3.9917c0.6692,0.5671,1.8088,0.9364,2.7256,0.9364
		c0.9183,0,2.0578-0.3693,2.727-0.9364c1.3134-1.1093,1.3134-2.6113,1.3134-3.9917V0.2711h1.8338v10.5698
		c0,1.379-0.1489,2.7095-1.0407,3.9419C62.5361,16.1369,60.8011,17,58.6946,17s-3.8394-0.8631-4.8314-2.2172
		c-0.8918-1.2324-1.0407-2.5629-1.0407-3.9419V0.2711h1.8338V10.3472z"/>
	<path class="st0" d="M70.6602,0.2711V16.704h-1.8338V0.2711H70.6602z"/>
	<path class="st0" d="M78.9846,1.9959V16.704h-1.8338V1.9959h-4.0154V0.2711H83v1.7248H78.9846z"/>
</g>
</svg>
