<?xml version="1.0" encoding="utf-8"?>
<!-- Generator: Adobe Illustrator 22.1.0, SVG Export Plug-In . SVG Version: 6.00 Build 0)  -->
<svg version="1.1" id="レイヤー_1" xmlns="http://www.w3.org/2000/svg" xmlns:xlink="http://www.w3.org/1999/xlink" x="0px"
	 y="0px" width="93px" height="18px" viewBox="0 0 93 18" style="enable-background:new 0 0 93 18;" xml:space="preserve">
<style type="text/css">
	.st0{fill:#FFFFFF;}
</style>
<g>
	<path class="st0" d="M8.55069,3.58496C8.32028,3.13371,7.93627,2.63231,7.55225,2.33148
		c-0.33281-0.2507-0.94723-0.5766-1.92006-0.5766c-1.68966,0-2.8673,1.02785-2.8673,2.58218
		c0,0.65181,0.17921,1.02785,0.64002,1.45404c0.51201,0.50139,1.15204,0.77716,1.79206,1.05292l1.63846,0.70195
		C7.83385,7.97215,8.75548,8.4234,9.47231,9.12534c0.87043,0.85236,1.22884,1.83009,1.22884,3.03343
		c0,3.08357-2.32968,5.13927-5.40178,5.13927c-1.12643,0-2.53448-0.22563-3.71213-1.35375
		C0.74242,15.14206,0.23041,13.98885,0,12.98607l1.84326-0.50139c0.128,0.87744,0.53762,1.62953,1.02404,2.13092
		c0.74242,0.72702,1.58725,0.92758,2.45768,0.92758c2.32968,0,3.43051-1.62953,3.43051-3.3092
		c0-0.75209-0.23041-1.4039-0.84483-1.95543C7.42424,9.82729,6.75862,9.52646,5.8626,9.12534L4.32655,8.4234
		C3.66092,8.12256,2.81609,7.77159,2.04806,7.04457C1.30564,6.34262,0.87043,5.56546,0.87043,4.31198
		C0.87043,1.7298,2.89289,0,5.65778,0c1.04963,0,1.89446,0.20056,2.73929,0.75209c0.69122,0.45125,1.28004,1.12814,1.66405,1.85516
		L8.55069,3.58496z"/>
	<path class="st0" d="M24.32408,2.03064h-6.96343v4.96378h6.75862V8.7493h-6.75862v6.49304h6.96343v1.75487h-8.8579V0.27576h8.8579
		V2.03064z"/>
	<path class="st0" d="M31.82777,0.27576c1.15204,0,2.8673,0.07521,4.14734,0.92758c0.99843,0.65181,1.86885,1.93036,1.86885,3.7103
		c0,2.55711-1.71526,4.43732-4.30094,4.61281l5.42738,7.47076h-2.30408l-5.19697-7.32033h-0.48642v7.32033h-1.89446V0.27576
		H31.82777z M30.98294,8.02228h1.20325c2.35527,0,3.76332-1.10307,3.76332-3.0585c0-0.92758-0.2816-1.85516-1.35685-2.45682
		c-0.76802-0.42619-1.63845-0.47632-2.45768-0.47632h-1.15204C30.98293,2.03064,30.98293,8.02228,30.98294,8.02228z"/>
	<path class="st0" d="M43.32583,0.27576l4.81295,12.76045l4.81297-12.76044h2.09927L48.13878,18L41.22655,0.27576H43.32583z"/>
	<path class="st0" d="M60.63527,0.27576v16.72145h-1.89447V0.27576H60.63527z"/>
	<path class="st0" d="M79.37642,3.961c-0.53762-0.52646-1.35684-1.15321-2.22728-1.55431
		c-0.89603-0.40112-1.94567-0.65181-2.9441-0.65181c-3.94253,0-6.86103,3.10864-6.86103,6.96936
		c0,4.53761,3.76332,6.81894,6.88663,6.81894c1.15204,0,2.27847-0.3259,3.1745-0.77716
		c0.97283-0.47632,1.66405-1.10306,1.97127-1.4039v2.3064c-1.89446,1.3287-3.86572,1.62953-5.14577,1.62953
		c-5.06898,0-8.83229-3.76044-8.83229-8.59888C65.39835,3.7103,69.21288,0,74.33304,0c1.02403,0,2.9953,0.12534,5.04337,1.6546
		C79.37641,1.6546,79.37641,3.961,79.37642,3.961z"/>
	<path class="st0" d="M93,2.03064h-6.96343v4.96378h6.75861V8.7493h-6.75862v6.49304H93v1.75487h-8.85789V0.27576H93V2.03064z"/>
</g>
</svg>
