<?xml version="1.0" encoding="utf-8"?>
<!-- Generator: Adobe Illustrator 22.1.0, SVG Export Plug-In . SVG Version: 6.00 Build 0)  -->
<svg version="1.1" id="レイヤー_1" xmlns="http://www.w3.org/2000/svg" xmlns:xlink="http://www.w3.org/1999/xlink" x="0px"
	 y="0px" width="43px" height="17px" viewBox="0 0 43 17" style="enable-background:new 0 0 43 17;" xml:space="preserve">
<style type="text/css">
	.st0{fill:#FFFFFF;}
</style>
<g>
	<path class="st0" d="M5.82464,1.99502v14.70933H3.99826V1.99502H0V0.27165h9.82289v1.72337H5.82464z"/>
	<path class="st0" d="M12.63902,8.49937C12.63902,3.5971,16.46388,0,21.20257,0s8.56482,3.5971,8.56482,8.49937
		c0,4.87952-3.80082,8.50063-8.56482,8.50063C16.43984,17,12.63902,13.37889,12.63902,8.49937z M14.51474,8.49937
		c0,3.7702,2.98699,6.77599,6.68782,6.77599c3.70335,0,6.68908-3.0058,6.68908-6.77599c0-3.76894-2.98573-6.77474-6.68908-6.77474
		C17.50174,1.72464,14.51474,4.73043,14.51474,8.49937z"/>
	<path class="st0" d="M37.34749,0.27165c1.65424,0,3.03635,0.1971,4.14635,1.15733C42.70383,2.46377,43,3.91803,43,4.95154
		c0,2.3172-1.45552,4.60788-5.20699,4.60788h-1.60487v7.14493h-1.82637V0.27165H37.34749z M36.18815,7.83478h1.50615
		c2.17189,0,3.47934-1.08406,3.47934-2.98179c0-2.61034-2.44402-2.85797-3.6287-2.85797h-1.35679V7.83478z"/>
</g>
</svg>
