<svg enable-background="new 0 0 87 19" height="19" viewBox="0 0 87 19" width="87" xmlns="http://www.w3.org/2000/svg"><g fill="#fff"><path d="m2.04844.87772 4.39666 12.90761 5.22105-13.78533 4.94625 13.78533 4.87131-12.90761h2.04844l-6.99469 18.12228-4.8963-13.78533-5.24601 13.78533-6.39515-18.12228z"/><path d="m26.23522 9.5c0-5.13723 3.87206-8.90625 8.66842-8.90625s8.66906 3.76902 8.66906 8.90625c0 5.11141-3.84835 8.90625-8.66906 8.90625-4.82134 0-8.66842-3.79484-8.66842-8.90625zm1.89856 0c0 3.94973 3.02271 7.09919 6.76986 7.09919s6.77052-3.14945 6.77052-7.09919-3.02335-7.09919-6.7705-7.09919-6.76988 3.14946-6.76988 7.09919z"/><path d="m50.89535.87772c1.12479 0 2.79787.07745 4.04821.95516.97363.6712 1.82298 1.98777 1.82298 3.82066 0 2.63316-1.67437 4.5693-4.19682 4.75l5.29598 7.69294h-2.2483l-5.07051-7.53805h-.47528v7.53805h-1.84859v-17.21876zm-.82373 7.9769h1.17476c2.29825 0 3.67157-1.13587 3.67157-3.14945 0-.95516-.27414-1.91033-1.32464-2.52989-.74815-.43886-1.59879-.49048-2.39818-.49048h-1.12351z"/><path d="m63.86499 8.26087 7.09462-7.38316h2.49811l-7.79408 8.02853 8.0439 9.19022h-2.54807l-6.82047-7.89945-.47402.49049v7.40897h-1.84858v-17.21875h1.84859z"/><path d="m84.9016 4.28533c-.22419-.46467-.59955-.98098-.9749-1.29077-.32411-.25816-.92366-.59375-1.87293-.59375-1.64876 0-2.79787 1.05842-2.79787 2.65897 0 .6712.17422 1.05842.62516 1.49728.49963.5163 1.12351.80027 1.7474 1.08424l1.59879.72283c.97489.43886 1.87421.90353 2.57368 1.62636.84934.87771 1.19907 1.88451 1.19907 3.12364 0 3.17527-2.27392 5.29212-5.27164 5.29212-1.09917 0-2.47249-.23234-3.6216-1.39402-.82373-.82609-1.32336-2.01359-1.54882-3.0462l1.79863-.5163c.12554.90353.52525 1.67799.99924 2.1943.72508.74864 1.54882.95516 2.39817.95516 2.27264 0 3.34747-1.67799 3.34747-3.40761 0-.77445-.22419-1.44566-.82373-2.01359-.47527-.46467-1.12479-.77445-1.99849-1.1875l-1.49886-.72283c-.65078-.30978-1.47452-.6712-2.22395-1.41984-.72509-.72282-1.14913-1.52308-1.14913-2.81385 0-2.65897 1.97414-4.44022 4.67209-4.44022 1.02357 0 1.84731.20652 2.67233.77445.67384.46467 1.24905 1.16169 1.6244 1.91033z"/></g></svg>