<?xml version="1.0" encoding="utf-8"?>
<!-- Generator: Adobe Illustrator 21.1.0, SVG Export Plug-In . SVG Version: 6.00 Build 0)  -->
<svg version="1.1" id="レイヤー_1" xmlns="http://www.w3.org/2000/svg" xmlns:xlink="http://www.w3.org/1999/xlink" x="0px"
	 y="0px" width="62px" height="62px" viewBox="0 0 62 62" style="enable-background:new 0 0 62 62;" xml:space="preserve">
<style type="text/css">
	.st0{fill:#FFFFFF;}
</style>
<g>
	<g>
		<path class="st0" d="M31,48.3"/>
		<path class="st0" d="M31,11.9c-10.6,0-19.2,8.6-19.2,19.2S20.4,50.1,31,50.1S50.2,41.5,50.2,31C50.2,20.5,41.6,11.9,31,11.9z
			 M31,48.6c-9.7,0-17.7-7.9-17.7-17.6S21.3,13.3,31,13.3S48.7,21.2,48.7,31S40.8,48.6,31,48.6z"/>
	</g>
	<g>
		<path class="st0" d="M31,37.6"/>
		<path class="st0" d="M31,22.7c-4.5,0-8.3,3.7-8.3,8.3s3.7,8.3,8.3,8.3c4.5,0,8.3-3.7,8.3-8.3S35.6,22.7,31,22.7z M31,37.8
			c-3.8,0-6.8-3-6.8-6.8s3-6.8,6.8-6.8s6.8,3,6.8,6.8S34.8,37.8,31,37.8z"/>
	</g>
	<g>
		<path class="st0" d="M31,44.1"/>
		<path class="st0" d="M31,16.2c-8.1,0-14.8,6.6-14.8,14.8S22.8,45.9,31,45.9S45.8,39.3,45.8,31S39.2,16.2,31,16.2z M31,44.4
			c-7.4,0-13.3-5.9-13.3-13.3s6-13.3,13.3-13.3S44.4,23.7,44.4,31S38.4,44.4,31,44.4z"/>
	</g>
	<g>
		<path class="st0" d="M60.3,33.1"/>
		<path class="st0" d="M16.1,53.1l0.2,0.1c2.8,1.9,6.1,3.2,9.5,4h0.2v1.9c0,1.6,1.3,2.9,2.9,2.9h4.3c1.6,0,2.9-1.3,2.9-2.9v-1.9h0.2
			c3.3-0.7,6.6-2.1,9.5-4l0.2-0.1l1.3,1.3c0.6,0.6,1.2,0.8,2.1,0.8c0.8,0,1.5-0.3,2.1-0.8l3-3c1.1-1.1,1.1-2.9,0-4.1l-1.3-1.3
			l0.1-0.2c1.9-2.8,3.2-6.1,4-9.4v-0.2h1.9c1.6,0,2.9-1.3,2.9-2.9V29c0-1.6-1.3-2.9-2.9-2.9h-1.9v-0.2c-0.7-3.4-2-6.6-4-9.4l0-0.4
			l1.3-1.3c0.6-0.6,0.9-1.3,0.9-2.1s-0.3-1.5-0.9-2.1l-3-3c-1.1-1.1-2.9-1.1-4.1,0l-1.3,1.3l-0.2-0.1c-2.8-1.9-6.1-3.2-9.5-4h-0.2
			V2.9C36.3,1.3,35,0,33.4,0H29c-1.6,0-2.9,1.3-2.9,2.9v1.9h-0.2c-3.3,0.7-6.6,2.1-9.5,4l-0.4,0.1l-1.3-1.3c-1.1-1.1-2.9-1.1-4.1,0
			l-3.1,3c-0.6,0.6-0.9,1.3-0.9,2.1s0.3,1.5,0.9,2.1L8.9,16l-0.1,0.2c-1.9,2.9-3.2,6-4,9.4v0.2H2.9c-1.6,0-2.9,1.3-2.9,2.9v4.3
			C0,34.7,1.3,36,2.9,36h1.9v0.2c0.7,3.3,2.1,6.6,4,9.4l0.1,0.2l-1.3,1.4c-1.1,1.1-1.1,2.9,0,4.1l3,3c0.6,0.6,1.3,0.8,2.1,0.8
			s1.5-0.3,2.1-0.8L16.1,53.1z M33.2,60.5h-4.3c-0.8,0-1.4-0.7-1.4-1.4v-2.5c0-0.4-0.3-0.7-0.6-0.8c-3.8-0.7-7.3-2.1-10.4-4.3
			c-0.3-0.2-0.7-0.2-0.9,0.1l-1.8,1.8c-0.6,0.6-1.5,0.6-2,0l-3-3c-0.3-0.3-0.4-0.7-0.4-1c0-0.4,0.2-0.8,0.4-1l1.8-1.8
			c0.3-0.3,0.3-0.7,0.1-0.9C8.3,42.5,6.9,39,6.2,35.2c-0.1-0.4-0.4-0.6-0.8-0.6H2.9c-0.8,0-1.4-0.7-1.4-1.4v-4.3
			c0-0.8,0.7-1.4,1.4-1.4h2.6c0.4,0,0.7-0.3,0.8-0.6c0.7-3.8,2.1-7.3,4.3-10.4c0.2-0.3,0.2-0.7-0.1-0.9l-1.8-1.8
			c-0.3-0.3-0.4-0.7-0.4-1c0-0.4,0.2-0.8,0.4-1l3-3c0.6-0.6,1.5-0.6,2,0l1.8,1.8c0.3,0.3,0.7,0.3,0.9,0.1c3.1-2.3,6.6-3.7,10.4-4.3
			c0.4-0.2,0.6-0.5,0.6-0.8V2.9c0-0.8,0.7-1.4,1.4-1.4h4.3c0.8,0,1.4,0.7,1.4,1.4v2.5c0,0.4,0.3,0.7,0.6,0.8
			c3.8,0.7,7.3,2.1,10.4,4.3c0.3,0.2,0.7,0.2,0.9-0.1l1.8-1.8c0.6-0.6,1.5-0.6,2,0l3,3c0.3,0.3,0.4,0.7,0.4,1c0,0.4-0.2,0.8-0.4,1
			l-1.8,1.8c-0.3,0.3-0.3,0.7-0.1,0.9c2.3,3.1,3.7,6.6,4.3,10.4c0.1,0.4,0.4,0.6,0.8,0.6h2.6c0.8,0,1.4,0.7,1.4,1.4v4.3
			c0,0.8-0.7,1.4-1.4,1.4h-2.4c-0.4,0-0.7,0.3-0.8,0.6c-0.7,3.8-2.1,7.3-4.3,10.4c-0.2,0.3-0.2,0.7,0.1,0.9l1.8,1.8
			c0.6,0.6,0.6,1.5,0,2l-3,3c-0.6,0.6-1.5,0.6-2,0l-1.8-1.8c-0.3-0.3-0.7-0.3-0.9-0.1c-3.1,2.3-6.6,3.7-10.4,4.3
			c-0.4,0.1-0.6,0.4-0.6,0.8v2.5C34.7,59.9,34,60.5,33.2,60.5z"/>
	</g>
</g>
</svg>
