<?xml version="1.0" encoding="utf-8"?>
<!-- Generator: Adobe Illustrator 25.0.0, SVG Export Plug-In . SVG Version: 6.00 Build 0)  -->
<svg version="1.1" id="レイヤー_1" xmlns="http://www.w3.org/2000/svg" xmlns:xlink="http://www.w3.org/1999/xlink" x="0px"
	 y="0px" viewBox="0 0 61 59" style="enable-background:new 0 0 61 59;" xml:space="preserve">
<style type="text/css">
	.st0{fill-rule:evenodd;clip-rule:evenodd;fill:#E8E8E8;}
</style>
<g>
	<path class="st0" d="M19.8,30.6V22H4.6v32.2h-2v2.3h34.3V30.6H19.8L19.8,30.6L19.8,30.6z M15.5,54.2H8.9v-4.3h6.6V54.2L15.5,54.2
		L15.5,54.2z M17.5,45.6H6.9v-2h10.7V45.6L17.5,45.6L17.5,45.6z M17.5,41.3H6.9v-2h10.7V41.3L17.5,41.3L17.5,41.3z M17.5,37H6.9v-2
		h10.7V37L17.5,37L17.5,37z M17.5,32.6H6.9v-2h10.7V32.6L17.5,32.6L17.5,32.6z M17.5,28.6H6.9v-2.3h10.7V28.6L17.5,28.6L17.5,28.6z
		 M28.2,52.1h-4.1v-4.3h4.1V52.1L28.2,52.1L28.2,52.1z M28.2,45.6h-4.1v-4.3h4.1V45.6L28.2,45.6L28.2,45.6z M28.2,39.2h-4.1v-4.3
		h4.1V39.2L28.2,39.2L28.2,39.2z M34.8,52.1h-4.3v-4.3h4.3V52.1L34.8,52.1L34.8,52.1z M34.8,45.6h-4.3v-4.3h4.3V45.6L34.8,45.6
		L34.8,45.6z M34.8,39.2h-4.3v-4.3h4.3V39.2L34.8,39.2L34.8,39.2z"/>
</g>
<g>
	<path class="st0" d="M53.4,11.5V3.1h-4.6v4.9l-7.4-5.4L22.6,16.9l3.1,3.8l1.8-1.3v17.6h28V19.4l1.8,1.3l2.8-3.8L53.4,11.5
		L53.4,11.5L53.4,11.5z M52.4,34.5h-6.2V24.3h-9.8v10.2h-5.9V17.6l10.8-8.4l11,8.4V34.5L52.4,34.5L52.4,34.5z"/>
</g>
</svg>
