<?xml version="1.0" encoding="utf-8"?>
<!-- Generator: Adobe Illustrator 21.1.0, SVG Export Plug-In . SVG Version: 6.00 Build 0)  -->
<svg version="1.1" id="レイヤー_1" xmlns="http://www.w3.org/2000/svg" xmlns:xlink="http://www.w3.org/1999/xlink" x="0px"
	 y="0px" width="66px" height="59px" viewBox="0 0 66 59" style="enable-background:new 0 0 66 59;" xml:space="preserve">
<style type="text/css">
	.st0{fill:#FFFFFF;}
</style>
<g>
	<g>
		<path class="st0" d="M1.5,59h62.5c2.1,0,1.9-2.1,1.9-2.1v-55C66,0,64.2,0,64.2,0H2c0,0-2-0.1-2,2.2v55.4C0,57.5,0.1,59,1.5,59z
			 M64.3,57.6H1.7c-0.2,0-0.3-0.1-0.3-0.3v-47c0-0.2,0.1-0.3,0.3-0.3h62.7c0.2,0,0.3,0.1,0.3,0.3v47C64.6,57.5,64.5,57.6,64.3,57.6z
			 M64.3,8.6H1.7c-0.2,0-0.3-0.1-0.3-0.3V1.7c0-0.2,0.1-0.3,0.3-0.3h62.7c0.2,0,0.3,0.1,0.3,0.3v6.7C64.6,8.5,64.5,8.6,64.3,8.6z"/>
	</g>
	<g>
		<path class="st0" d="M5.7,2.8c-1.3,0-2.3,1-2.3,2.3s1,2.3,2.3,2.3S8,6.4,8,5.1S7,2.8,5.7,2.8z M5.7,6C5.2,6,4.8,5.6,4.8,5.1
			s0.4-0.9,0.9-0.9c0.5,0,0.9,0.4,0.9,0.9S6.2,6,5.7,6z"/>
	</g>
	<g>
		<path class="st0" d="M13.2,2.8c-1.3,0-2.3,1-2.3,2.3s1,2.3,2.3,2.3c1.3,0,2.3-1,2.3-2.3S14.4,2.8,13.2,2.8z M13.2,6
			c-0.5,0-0.9-0.4-0.9-0.9s0.4-0.9,0.9-0.9c0.5,0,0.9,0.4,0.9,0.9S13.7,6,13.2,6z"/>
	</g>
	<g>
		<path class="st0" d="M20.6,2.8c-1.3,0-2.3,1-2.3,2.3s1,2.3,2.3,2.3s2.3-1,2.3-2.3S21.9,2.8,20.6,2.8z M20.6,6
			c-0.5,0-0.9-0.4-0.9-0.9s0.4-0.9,0.9-0.9s0.9,0.4,0.9,0.9S21.1,6,20.6,6z"/>
	</g>
	<g>
		<path class="st0" d="M42.2,2.8c-1.3,0-2.3,1-2.3,2.3s1,2.3,2.3,2.3h16.7c1.3,0,2.3-1,2.3-2.3c0-0.4-0.1-0.7-0.2-1
			c-0.4-0.8-1.2-1.3-2.1-1.3L42.2,2.8L42.2,2.8z M58.9,6H42.2c-0.5,0-0.9-0.4-0.9-0.9s0.4-0.9,0.9-0.9h16.7c0.4,0,0.7,0.2,0.8,0.5
			c0.1,0.1,0.1,0.3,0.1,0.4C59.9,5.6,59.4,6,58.9,6z"/>
	</g>
	<g>
		<path class="st0" d="M54.5,17.2L52.2,22v27.1c0,2.1,1.7,3.8,3.8,3.8c1.3,0,2.5-0.6,3.2-1.7c0.4-0.6,0.7-1.4,0.7-2.1V22l-2.3-4.8
			C55.9,14.2,54.5,17.2,54.5,17.2z M56,51.5c-1.3,0-2.4-1.1-2.4-2.4v-0.6c0-0.2,0.1-0.3,0.3-0.3h4.3c0.2,0,0.3,0.1,0.3,0.3v0.6
			c0,0.5-0.1,1-0.4,1.4C57.6,51.1,56.8,51.5,56,51.5z M58.2,46.8h-4.3c-0.2,0-0.3-0.1-0.3-0.3V24.6c0-0.1,0.1-0.2,0.2-0.3l1.2-0.6
			c0.1,0,0.2,0,0.3,0c0.1,0.1,0.1,0.1,0.1,0.2v12.4h1.4V24c0-0.1,0-0.2,0.1-0.2c0.1-0.1,0.2-0.1,0.3,0l1.2,0.6
			c0.1,0,0.2,0.1,0.2,0.3v21.9C58.5,46.6,58.3,46.8,58.2,46.8z M53.9,22.7c-0.1,0-0.1,0-0.2,0c-0.1-0.1-0.1-0.1-0.1-0.2
			c0,0,0-0.1,0-0.2l2.2-4.5c0-0.1,0.1-0.2,0.3-0.2l0,0c0.1,0,0.2,0.1,0.3,0.2l2.2,4.5c0,0,0,0.1,0,0.1c0,0.1,0,0.2-0.1,0.3
			c-0.1,0.1-0.2,0.1-0.3,0l-2-1l-2,1C54,22.7,53.9,22.7,53.9,22.7z"/>
	</g>
	<g>
		<path class="st0" d="M55.3,41.1h1.4v-1.6h-1.4V41.1z"/>
	</g>
	<g>
		<path class="st0" d="M5,37h23.6V13.2H5V37z M27,35.6H6.7c-0.2,0-0.3-0.1-0.3-0.3V14.9c0-0.2,0.1-0.3,0.3-0.3H27
			c0.2,0,0.3,0.1,0.3,0.3v20.4C27.2,35.5,27.1,35.6,27,35.6z"/>
	</g>
	<g>
		<path class="st0" d="M5,53.4h23.6V41.5H5V53.4z M27,52H6.7c-0.2,0-0.3-0.1-0.3-0.3v-8.5c0-0.2,0.1-0.3,0.3-0.3H27
			c0.2,0,0.3,0.1,0.3,0.3v8.5C27.2,51.8,27.1,52,27,52z"/>
	</g>
	<g>
		<path class="st0" d="M33.8,14.6h12.2v-1.4H33.8V14.6z"/>
	</g>
	<g>
		<path class="st0" d="M33.8,21.8h12.2v-1.4H33.8V21.8z"/>
	</g>
	<g>
		<path class="st0" d="M33.8,29h12.2v-1.4H33.8V29z"/>
	</g>
	<g>
		<path class="st0" d="M33.8,42.9h12.2v-1.4H33.8V42.9z"/>
	</g>
	<g>
		<path class="st0" d="M33.8,50.1h12.2v-1.4H33.8V50.1z"/>
	</g>
</g>
</svg>
