<?xml version="1.0" encoding="utf-8"?>
<!-- Generator: Adobe Illustrator 25.0.0, SVG Export Plug-In . SVG Version: 6.00 Build 0)  -->
<svg version="1.1" id="レイヤー_1" xmlns="http://www.w3.org/2000/svg" xmlns:xlink="http://www.w3.org/1999/xlink" x="0px"
	 y="0px" viewBox="0 0 61 59" style="enable-background:new 0 0 61 59;" xml:space="preserve">
<style type="text/css">
	.st0{fill-rule:evenodd;clip-rule:evenodd;fill:#E8E8E8;}
</style>
<g>
	<path class="st0" d="M33,4.8c-0.7,0-0.7,0-0.7,0c0-2,0-2,0-2c0-0.3-0.3-0.7-0.7-0.7c-25.1,0-25.1,0-25.1,0c-0.3,0-0.7,0.3-0.7,0.7
		c0,2,0,2,0,2c-0.7,0-0.7,0-0.7,0c-0.3,0-0.7,0.3-0.7,0.7s0.3,0.7,0.7,0.7c0.7,0,0.7,0,0.7,0c0,24.5,0,24.5,0,24.5
		c0,0.3,0.3,0.7,0.7,0.7c25.1,0,25.1,0,25.1,0c0.3,0,0.7-0.3,0.7-0.7c0-24.5,0-24.5,0-24.5c0.7,0,0.7,0,0.7,0c0.3,0,0.7-0.3,0.7-0.7
		S33.3,4.8,33,4.8 M20.4,29.9c-2.6,0-2.6,0-2.6,0c0-6.6,0-6.6,0-6.6c2.6,0,2.6,0,2.6,0V29.9L20.4,29.9L20.4,29.9z M31,29.9
		c-9.3,0-9.3,0-9.3,0c0-7.3,0-7.3,0-7.3c0-0.3-0.3-0.7-0.7-0.7c-4,0-4,0-4,0c-0.3,0-0.7,0.3-0.7,0.7c0,7.3,0,7.3,0,7.3
		c-9.3,0-9.3,0-9.3,0c0-23.8,0-23.8,0-23.8c23.8,0,23.8,0,23.8,0V29.9L31,29.9L31,29.9z M31,4.8c-23.8,0-23.8,0-23.8,0
		c0-1.3,0-1.3,0-1.3c23.8,0,23.8,0,23.8,0V4.8L31,4.8L31,4.8z M23.7,14.1c4,0,4,0,4,0c0.3,0,0.7-0.3,0.7-0.7c0-4,0-4,0-4
		c0-0.3-0.3-0.7-0.7-0.7c-4,0-4,0-4,0c-0.3,0-0.7,0.3-0.7,0.7c0,4,0,4,0,4C23.1,13.7,23.4,14.1,23.7,14.1 M24.4,10.1
		c2.6,0,2.6,0,2.6,0c0,2.6,0,2.6,0,2.6c-2.6,0-2.6,0-2.6,0V10.1L24.4,10.1L24.4,10.1z M10.5,14.1c4,0,4,0,4,0c0.3,0,0.7-0.3,0.7-0.7
		c0-4,0-4,0-4c0-0.3-0.3-0.7-0.7-0.7c-4,0-4,0-4,0c-0.3,0-0.7,0.3-0.7,0.7c0,4,0,4,0,4C9.9,13.7,10.2,14.1,10.5,14.1 M11.2,10.1
		c2.6,0,2.6,0,2.6,0c0,2.6,0,2.6,0,2.6c-2.6,0-2.6,0-2.6,0V10.1L11.2,10.1L11.2,10.1z M10.5,20.7c4,0,4,0,4,0c0.3,0,0.7-0.3,0.7-0.7
		c0-4,0-4,0-4c0-0.3-0.3-0.7-0.7-0.7c-4,0-4,0-4,0c-0.3,0-0.7,0.3-0.7,0.7c0,4,0,4,0,4C9.9,20.3,10.2,20.7,10.5,20.7 M11.2,16.7
		c2.6,0,2.6,0,2.6,0c0,2.6,0,2.6,0,2.6c-2.6,0-2.6,0-2.6,0V16.7L11.2,16.7L11.2,16.7z M23.7,20.7c4,0,4,0,4,0c0.3,0,0.7-0.3,0.7-0.7
		c0-4,0-4,0-4c0-0.3-0.3-0.7-0.7-0.7c-4,0-4,0-4,0c-0.3,0-0.7,0.3-0.7,0.7c0,4,0,4,0,4C23.1,20.3,23.4,20.7,23.7,20.7 M24.4,16.7
		c2.6,0,2.6,0,2.6,0c0,2.6,0,2.6,0,2.6c-2.6,0-2.6,0-2.6,0V16.7L24.4,16.7L24.4,16.7z M10.5,27.3c4,0,4,0,4,0c0.3,0,0.7-0.3,0.7-0.7
		c0-4,0-4,0-4c0-0.3-0.3-0.7-0.7-0.7c-4,0-4,0-4,0c-0.3,0-0.7,0.3-0.7,0.7c0,4,0,4,0,4C9.9,27,10.2,27.3,10.5,27.3 M11.2,23.3
		c2.6,0,2.6,0,2.6,0c0,2.6,0,2.6,0,2.6c-2.6,0-2.6,0-2.6,0V23.3L11.2,23.3L11.2,23.3z M17.1,14.1c4,0,4,0,4,0c0.3,0,0.7-0.3,0.7-0.7
		c0-4,0-4,0-4c0-0.3-0.3-0.7-0.7-0.7c-4,0-4,0-4,0c-0.3,0-0.7,0.3-0.7,0.7c0,4,0,4,0,4C16.5,13.7,16.8,14.1,17.1,14.1 M17.8,10.1
		c2.6,0,2.6,0,2.6,0c0,2.6,0,2.6,0,2.6c-2.6,0-2.6,0-2.6,0V10.1L17.8,10.1L17.8,10.1z M23.7,27.3c4,0,4,0,4,0c0.3,0,0.7-0.3,0.7-0.7
		c0-4,0-4,0-4c0-0.3-0.3-0.7-0.7-0.7c-4,0-4,0-4,0c-0.3,0-0.7,0.3-0.7,0.7c0,4,0,4,0,4C23.1,27,23.4,27.3,23.7,27.3 M24.4,23.3
		c2.6,0,2.6,0,2.6,0c0,2.6,0,2.6,0,2.6c-2.6,0-2.6,0-2.6,0V23.3L24.4,23.3L24.4,23.3z M17.1,20.7c4,0,4,0,4,0c0.3,0,0.7-0.3,0.7-0.7
		c0-4,0-4,0-4c0-0.3-0.3-0.7-0.7-0.7c-4,0-4,0-4,0c-0.3,0-0.7,0.3-0.7,0.7c0,4,0,4,0,4C16.5,20.3,16.8,20.7,17.1,20.7 M17.8,16.7
		c2.6,0,2.6,0,2.6,0c0,2.6,0,2.6,0,2.6c-2.6,0-2.6,0-2.6,0V16.7L17.8,16.7L17.8,16.7z"/>
</g>
<g>
	<path class="st0" d="M59.7,32.5c-0.6,0-0.6,0-0.6,0c0-1.9,0-1.9,0-1.9c0-0.3-0.3-0.6-0.6-0.6c-24.3,0-24.3,0-24.3,0
		c-0.3,0-0.6,0.3-0.6,0.6c0,1.9,0,1.9,0,1.9c-0.6,0-0.6,0-0.6,0c-0.3,0-0.6,0.3-0.6,0.6c0,0.3,0.3,0.6,0.6,0.6c0.6,0,0.6,0,0.6,0
		c0,23.7,0,23.7,0,23.7c0,0.3,0.3,0.6,0.6,0.6c24.3,0,24.3,0,24.3,0c0.3,0,0.6-0.3,0.6-0.6c0-23.7,0-23.7,0-23.7c0.6,0,0.6,0,0.6,0
		c0.3,0,0.6-0.3,0.6-0.6C60.4,32.8,60,32.5,59.7,32.5 M47.6,56.8c-2.6,0-2.6,0-2.6,0c0-6.4,0-6.4,0-6.4c2.6,0,2.6,0,2.6,0V56.8
		L47.6,56.8L47.6,56.8z M57.8,56.8c-8.9,0-8.9,0-8.9,0c0-7,0-7,0-7c0-0.3-0.3-0.6-0.6-0.6c-3.8,0-3.8,0-3.8,0
		c-0.3,0-0.6,0.3-0.6,0.6c0,7,0,7,0,7c-8.9,0-8.9,0-8.9,0c0-23,0-23,0-23c23,0,23,0,23,0V56.8L57.8,56.8L57.8,56.8z M57.8,32.5
		c-23,0-23,0-23,0c0-1.3,0-1.3,0-1.3c23,0,23,0,23,0V32.5L57.8,32.5L57.8,32.5z M50.8,41.5c3.8,0,3.8,0,3.8,0c0.3,0,0.6-0.3,0.6-0.6
		c0-3.8,0-3.8,0-3.8c0-0.3-0.3-0.6-0.6-0.6c-3.8,0-3.8,0-3.8,0c-0.3,0-0.6,0.3-0.6,0.6c0,3.8,0,3.8,0,3.8
		C50.1,41.1,50.5,41.5,50.8,41.5 M51.4,37.6c2.6,0,2.6,0,2.6,0c0,2.6,0,2.6,0,2.6c-2.6,0-2.6,0-2.6,0V37.6L51.4,37.6L51.4,37.6z
		 M38,41.5c3.8,0,3.8,0,3.8,0c0.3,0,0.6-0.3,0.6-0.6c0-3.8,0-3.8,0-3.8c0-0.3-0.3-0.6-0.6-0.6c-3.8,0-3.8,0-3.8,0
		c-0.3,0-0.6,0.3-0.6,0.6c0,3.8,0,3.8,0,3.8C37.3,41.1,37.7,41.5,38,41.5 M38.6,37.6c2.6,0,2.6,0,2.6,0c0,2.6,0,2.6,0,2.6
		c-2.6,0-2.6,0-2.6,0V37.6L38.6,37.6L38.6,37.6z M38,47.9c3.8,0,3.8,0,3.8,0c0.3,0,0.6-0.3,0.6-0.6c0-3.8,0-3.8,0-3.8
		c0-0.3-0.3-0.6-0.6-0.6c-3.8,0-3.8,0-3.8,0c-0.3,0-0.6,0.3-0.6,0.6c0,3.8,0,3.8,0,3.8C37.3,47.5,37.7,47.9,38,47.9 M38.6,44
		c2.6,0,2.6,0,2.6,0c0,2.6,0,2.6,0,2.6c-2.6,0-2.6,0-2.6,0V44L38.6,44L38.6,44z M50.8,47.9c3.8,0,3.8,0,3.8,0c0.3,0,0.6-0.3,0.6-0.6
		c0-3.8,0-3.8,0-3.8c0-0.3-0.3-0.6-0.6-0.6c-3.8,0-3.8,0-3.8,0c-0.3,0-0.6,0.3-0.6,0.6c0,3.8,0,3.8,0,3.8
		C50.1,47.5,50.5,47.9,50.8,47.9 M51.4,44c2.6,0,2.6,0,2.6,0c0,2.6,0,2.6,0,2.6c-2.6,0-2.6,0-2.6,0V44L51.4,44L51.4,44z M38,54.2
		c3.8,0,3.8,0,3.8,0c0.3,0,0.6-0.3,0.6-0.6c0-3.8,0-3.8,0-3.8c0-0.3-0.3-0.6-0.6-0.6c-3.8,0-3.8,0-3.8,0c-0.3,0-0.6,0.3-0.6,0.6
		c0,3.8,0,3.8,0,3.8C37.3,53.9,37.7,54.2,38,54.2 M38.6,50.4c2.6,0,2.6,0,2.6,0c0,2.6,0,2.6,0,2.6c-2.6,0-2.6,0-2.6,0V50.4
		L38.6,50.4L38.6,50.4z M44.4,41.5c3.8,0,3.8,0,3.8,0c0.3,0,0.6-0.3,0.6-0.6c0-3.8,0-3.8,0-3.8c0-0.3-0.3-0.6-0.6-0.6
		c-3.8,0-3.8,0-3.8,0c-0.3,0-0.6,0.3-0.6,0.6c0,3.8,0,3.8,0,3.8C43.7,41.1,44.1,41.5,44.4,41.5 M45,37.6c2.6,0,2.6,0,2.6,0
		c0,2.6,0,2.6,0,2.6c-2.6,0-2.6,0-2.6,0V37.6L45,37.6L45,37.6z M50.8,54.2c3.8,0,3.8,0,3.8,0c0.3,0,0.6-0.3,0.6-0.6
		c0-3.8,0-3.8,0-3.8c0-0.3-0.3-0.6-0.6-0.6c-3.8,0-3.8,0-3.8,0c-0.3,0-0.6,0.3-0.6,0.6c0,3.8,0,3.8,0,3.8
		C50.1,53.9,50.5,54.2,50.8,54.2 M51.4,50.4c2.6,0,2.6,0,2.6,0c0,2.6,0,2.6,0,2.6c-2.6,0-2.6,0-2.6,0V50.4L51.4,50.4L51.4,50.4z
		 M44.4,47.9c3.8,0,3.8,0,3.8,0c0.3,0,0.6-0.3,0.6-0.6c0-3.8,0-3.8,0-3.8c0-0.3-0.3-0.6-0.6-0.6c-3.8,0-3.8,0-3.8,0
		c-0.3,0-0.6,0.3-0.6,0.6c0,3.8,0,3.8,0,3.8C43.7,47.5,44.1,47.9,44.4,47.9 M45,44c2.6,0,2.6,0,2.6,0c0,2.6,0,2.6,0,2.6
		c-2.6,0-2.6,0-2.6,0V44L45,44L45,44z"/>
</g>
<g>
	<path class="st0" d="M26.9,37.6c-0.4,0-0.4,0-0.4,0c0-1.3,0-1.3,0-1.3c0-0.2-0.2-0.4-0.4-0.4c-16.5,0-16.5,0-16.5,0
		c-0.2,0-0.4,0.2-0.4,0.4c0,1.3,0,1.3,0,1.3c-0.4,0-0.4,0-0.4,0c-0.2,0-0.4,0.2-0.4,0.4s0.2,0.4,0.4,0.4c0.4,0,0.4,0,0.4,0
		c0,16.1,0,16.1,0,16.1c0,0.2,0.2,0.4,0.4,0.4C26,55,26,55,26,55c0.2,0,0.4-0.2,0.4-0.4c0-16.1,0-16.1,0-16.1c0.4,0,0.4,0,0.4,0
		c0.2,0,0.4-0.2,0.4-0.4S27.1,37.6,26.9,37.6 M18.6,54.1c-1.7,0-1.7,0-1.7,0c0-4.4,0-4.4,0-4.4c1.7,0,1.7,0,1.7,0V54.1L18.6,54.1
		L18.6,54.1z M25.6,54.1c-6.1,0-6.1,0-6.1,0c0-4.8,0-4.8,0-4.8c0-0.2-0.2-0.4-0.4-0.4c-2.6,0-2.6,0-2.6,0c-0.2,0-0.4,0.2-0.4,0.4
		c0,4.8,0,4.8,0,4.8c-6.1,0-6.1,0-6.1,0c0-15.7,0-15.7,0-15.7c15.7,0,15.7,0,15.7,0V54.1L25.6,54.1L25.6,54.1z M25.6,37.6
		c-15.7,0-15.7,0-15.7,0c0-0.9,0-0.9,0-0.9c15.7,0,15.7,0,15.7,0V37.6L25.6,37.6L25.6,37.6z M20.8,43.7c2.6,0,2.6,0,2.6,0
		c0.2,0,0.4-0.2,0.4-0.4c0-2.6,0-2.6,0-2.6c0-0.2-0.2-0.4-0.4-0.4c-2.6,0-2.6,0-2.6,0c-0.2,0-0.4,0.2-0.4,0.4c0,2.6,0,2.6,0,2.6
		C20.4,43.4,20.6,43.7,20.8,43.7 M21.2,41c1.7,0,1.7,0,1.7,0c0,1.7,0,1.7,0,1.7c-1.7,0-1.7,0-1.7,0V41L21.2,41L21.2,41z M12.1,43.7
		c2.6,0,2.6,0,2.6,0c0.2,0,0.4-0.2,0.4-0.4c0-2.6,0-2.6,0-2.6c0-0.2-0.2-0.4-0.4-0.4c-2.6,0-2.6,0-2.6,0c-0.2,0-0.4,0.2-0.4,0.4
		c0,2.6,0,2.6,0,2.6C11.7,43.4,11.9,43.7,12.1,43.7 M12.5,41c1.7,0,1.7,0,1.7,0c0,1.7,0,1.7,0,1.7c-1.7,0-1.7,0-1.7,0V41L12.5,41
		L12.5,41z M12.1,48c2.6,0,2.6,0,2.6,0c0.2,0,0.4-0.2,0.4-0.4c0-2.6,0-2.6,0-2.6c0-0.2-0.2-0.4-0.4-0.4c-2.6,0-2.6,0-2.6,0
		c-0.2,0-0.4,0.2-0.4,0.4c0,2.6,0,2.6,0,2.6C11.7,47.8,11.9,48,12.1,48 M12.5,45.4c1.7,0,1.7,0,1.7,0c0,1.7,0,1.7,0,1.7
		c-1.7,0-1.7,0-1.7,0V45.4L12.5,45.4L12.5,45.4z M20.8,48c2.6,0,2.6,0,2.6,0c0.2,0,0.4-0.2,0.4-0.4c0-2.6,0-2.6,0-2.6
		c0-0.2-0.2-0.4-0.4-0.4c-2.6,0-2.6,0-2.6,0c-0.2,0-0.4,0.2-0.4,0.4c0,2.6,0,2.6,0,2.6C20.4,47.8,20.6,48,20.8,48 M21.2,45.4
		c1.7,0,1.7,0,1.7,0c0,1.7,0,1.7,0,1.7c-1.7,0-1.7,0-1.7,0V45.4L21.2,45.4L21.2,45.4z M12.1,52.4c2.6,0,2.6,0,2.6,0
		c0.2,0,0.4-0.2,0.4-0.4c0-2.6,0-2.6,0-2.6c0-0.2-0.2-0.4-0.4-0.4c-2.6,0-2.6,0-2.6,0c-0.2,0-0.4,0.2-0.4,0.4c0,2.6,0,2.6,0,2.6
		C11.7,52.1,11.9,52.4,12.1,52.4 M12.5,49.7c1.7,0,1.7,0,1.7,0c0,1.7,0,1.7,0,1.7c-1.7,0-1.7,0-1.7,0V49.7L12.5,49.7L12.5,49.7z
		 M16.5,43.7c2.6,0,2.6,0,2.6,0c0.2,0,0.4-0.2,0.4-0.4c0-2.6,0-2.6,0-2.6c0-0.2-0.2-0.4-0.4-0.4c-2.6,0-2.6,0-2.6,0
		c-0.2,0-0.4,0.2-0.4,0.4c0,2.6,0,2.6,0,2.6C16,43.4,16.2,43.7,16.5,43.7 M16.9,41c1.7,0,1.7,0,1.7,0c0,1.7,0,1.7,0,1.7
		c-1.7,0-1.7,0-1.7,0V41L16.9,41L16.9,41z M20.8,52.4c2.6,0,2.6,0,2.6,0c0.2,0,0.4-0.2,0.4-0.4c0-2.6,0-2.6,0-2.6
		c0-0.2-0.2-0.4-0.4-0.4c-2.6,0-2.6,0-2.6,0c-0.2,0-0.4,0.2-0.4,0.4c0,2.6,0,2.6,0,2.6C20.4,52.1,20.6,52.4,20.8,52.4 M21.2,49.7
		c1.7,0,1.7,0,1.7,0c0,1.7,0,1.7,0,1.7c-1.7,0-1.7,0-1.7,0V49.7L21.2,49.7L21.2,49.7z M16.5,48c2.6,0,2.6,0,2.6,0
		c0.2,0,0.4-0.2,0.4-0.4c0-2.6,0-2.6,0-2.6c0-0.2-0.2-0.4-0.4-0.4c-2.6,0-2.6,0-2.6,0c-0.2,0-0.4,0.2-0.4,0.4c0,2.6,0,2.6,0,2.6
		C16,47.8,16.2,48,16.5,48 M16.9,45.4c1.7,0,1.7,0,1.7,0c0,1.7,0,1.7,0,1.7c-1.7,0-1.7,0-1.7,0V45.4L16.9,45.4L16.9,45.4z"/>
</g>
<g>
	<path class="st0" d="M56.1,8.5c-0.4,0-0.4,0-0.4,0c0-1.3,0-1.3,0-1.3c0-0.2-0.2-0.4-0.4-0.4c-16.6,0-16.6,0-16.6,0
		c-0.2,0-0.4,0.2-0.4,0.4c0,1.3,0,1.3,0,1.3c-0.4,0-0.4,0-0.4,0c-0.2,0-0.4,0.2-0.4,0.4s0.2,0.4,0.4,0.4c0.4,0,0.4,0,0.4,0
		c0,16.2,0,16.2,0,16.2c0,0.2,0.2,0.4,0.4,0.4c16.6,0,16.6,0,16.6,0c0.2,0,0.4-0.2,0.4-0.4c0-16.2,0-16.2,0-16.2c0.4,0,0.4,0,0.4,0
		c0.2,0,0.4-0.2,0.4-0.4S56.3,8.5,56.1,8.5 M47.8,25.1c-1.8,0-1.8,0-1.8,0c0-4.4,0-4.4,0-4.4c1.8,0,1.8,0,1.8,0V25.1L47.8,25.1
		L47.8,25.1z M54.8,25.1c-6.1,0-6.1,0-6.1,0c0-4.8,0-4.8,0-4.8c0-0.2-0.2-0.4-0.4-0.4c-2.6,0-2.6,0-2.6,0c-0.2,0-0.4,0.2-0.4,0.4
		c0,4.8,0,4.8,0,4.8c-6.1,0-6.1,0-6.1,0c0-15.8,0-15.8,0-15.8c15.8,0,15.8,0,15.8,0V25.1L54.8,25.1L54.8,25.1z M54.8,8.5
		C39,8.5,39,8.5,39,8.5c0-0.9,0-0.9,0-0.9c15.8,0,15.8,0,15.8,0V8.5L54.8,8.5L54.8,8.5z M50,14.6c2.6,0,2.6,0,2.6,0
		c0.2,0,0.4-0.2,0.4-0.4c0-2.6,0-2.6,0-2.6c0-0.2-0.2-0.4-0.4-0.4c-2.6,0-2.6,0-2.6,0c-0.2,0-0.4,0.2-0.4,0.4c0,2.6,0,2.6,0,2.6
		C49.5,14.4,49.8,14.6,50,14.6 M50.4,12c1.8,0,1.8,0,1.8,0c0,1.8,0,1.8,0,1.8c-1.8,0-1.8,0-1.8,0V12L50.4,12L50.4,12z M41.2,14.6
		c2.6,0,2.6,0,2.6,0c0.2,0,0.4-0.2,0.4-0.4c0-2.6,0-2.6,0-2.6c0-0.2-0.2-0.4-0.4-0.4c-2.6,0-2.6,0-2.6,0c-0.2,0-0.4,0.2-0.4,0.4
		c0,2.6,0,2.6,0,2.6C40.8,14.4,41,14.6,41.2,14.6 M41.7,12c1.8,0,1.8,0,1.8,0c0,1.8,0,1.8,0,1.8c-1.8,0-1.8,0-1.8,0V12L41.7,12
		L41.7,12z M41.2,19c2.6,0,2.6,0,2.6,0c0.2,0,0.4-0.2,0.4-0.4c0-2.6,0-2.6,0-2.6c0-0.2-0.2-0.4-0.4-0.4c-2.6,0-2.6,0-2.6,0
		c-0.2,0-0.4,0.2-0.4,0.4c0,2.6,0,2.6,0,2.6C40.8,18.7,41,19,41.2,19 M41.7,16.3c1.8,0,1.8,0,1.8,0c0,1.8,0,1.8,0,1.8
		c-1.8,0-1.8,0-1.8,0V16.3L41.7,16.3L41.7,16.3z M50,19c2.6,0,2.6,0,2.6,0c0.2,0,0.4-0.2,0.4-0.4c0-2.6,0-2.6,0-2.6
		c0-0.2-0.2-0.4-0.4-0.4c-2.6,0-2.6,0-2.6,0c-0.2,0-0.4,0.2-0.4,0.4c0,2.6,0,2.6,0,2.6C49.5,18.7,49.8,19,50,19 M50.4,16.3
		c1.8,0,1.8,0,1.8,0c0,1.8,0,1.8,0,1.8c-1.8,0-1.8,0-1.8,0V16.3L50.4,16.3L50.4,16.3z M41.2,23.3c2.6,0,2.6,0,2.6,0
		c0.2,0,0.4-0.2,0.4-0.4c0-2.6,0-2.6,0-2.6c0-0.2-0.2-0.4-0.4-0.4c-2.6,0-2.6,0-2.6,0c-0.2,0-0.4,0.2-0.4,0.4c0,2.6,0,2.6,0,2.6
		C40.8,23.1,41,23.3,41.2,23.3 M41.7,20.7c1.8,0,1.8,0,1.8,0c0,1.8,0,1.8,0,1.8c-1.8,0-1.8,0-1.8,0V20.7L41.7,20.7L41.7,20.7z
		 M45.6,14.6c2.6,0,2.6,0,2.6,0c0.2,0,0.4-0.2,0.4-0.4c0-2.6,0-2.6,0-2.6c0-0.2-0.2-0.4-0.4-0.4c-2.6,0-2.6,0-2.6,0
		c-0.2,0-0.4,0.2-0.4,0.4c0,2.6,0,2.6,0,2.6C45.2,14.4,45.4,14.6,45.6,14.6 M46,12c1.8,0,1.8,0,1.8,0c0,1.8,0,1.8,0,1.8
		c-1.8,0-1.8,0-1.8,0V12L46,12L46,12z M50,23.3c2.6,0,2.6,0,2.6,0c0.2,0,0.4-0.2,0.4-0.4c0-2.6,0-2.6,0-2.6c0-0.2-0.2-0.4-0.4-0.4
		c-2.6,0-2.6,0-2.6,0c-0.2,0-0.4,0.2-0.4,0.4c0,2.6,0,2.6,0,2.6C49.5,23.1,49.8,23.3,50,23.3 M50.4,20.7c1.8,0,1.8,0,1.8,0
		c0,1.8,0,1.8,0,1.8c-1.8,0-1.8,0-1.8,0V20.7L50.4,20.7L50.4,20.7z M45.6,19c2.6,0,2.6,0,2.6,0c0.2,0,0.4-0.2,0.4-0.4
		c0-2.6,0-2.6,0-2.6c0-0.2-0.2-0.4-0.4-0.4c-2.6,0-2.6,0-2.6,0c-0.2,0-0.4,0.2-0.4,0.4c0,2.6,0,2.6,0,2.6C45.2,18.7,45.4,19,45.6,19
		 M46,16.3c1.8,0,1.8,0,1.8,0c0,1.8,0,1.8,0,1.8c-1.8,0-1.8,0-1.8,0V16.3L46,16.3L46,16.3z"/>
</g>
</svg>
