<?xml version="1.0" encoding="utf-8"?>
<!-- Generator: Adobe Illustrator 21.1.0, SVG Export Plug-In . SVG Version: 6.00 Build 0)  -->
<svg version="1.1" id="レイヤー_1" xmlns="http://www.w3.org/2000/svg" xmlns:xlink="http://www.w3.org/1999/xlink" x="0px"
	 y="0px" width="60px" height="63px" viewBox="0 0 60 63" style="enable-background:new 0 0 60 63;" xml:space="preserve">
<style type="text/css">
	.st0{fill:#FFFFFF;}
</style>
<g>
	<g>
		<path class="st0" d="M15,0.1c-0.1,0-0.3,0.1-0.4,0.2c-0.1,0.1-0.2,0.3-0.2,0.4L14.1,4L0.6,5.7C0.2,5.8,0,6.1,0,6.5l6.8,55.4
			c0,0.1,0,0.2,0,0.3s0,0.3,0,0.4C6.9,62.8,7.1,63,7.4,63H52c0.4,0,0.6-0.3,0.6-0.7v-1.5l2.1,0.2c0.4,0,0.7-0.2,0.7-0.6L60,4.8
			c0-0.2,0-0.3-0.2-0.5l0,0C59.9,4.1,59.7,4,59.6,4L45.8,2.8l-0.3-2.2c0-0.2-0.1-0.3-0.2-0.4C45.2,0,45,0,44.9,0L32.4,1.6l0,0h-0.1
			L15,0.1C15,0.1,15,0.1,15,0.1z M51.5,61.6H8.1V7.1h43.4v20.4c0,0.4,0.3,0.7,0.6,0.7c0.4,0,0.6-0.3,0.6-0.7V6.4
			c0-0.4-0.3-0.7-0.6-0.7h-5.9l-0.2-1.6l12.9,1.1l-4.5,54.3l-1.5-0.1V31.8c0-0.4-0.3-0.7-0.6-0.7c-0.4,0-0.6,0.3-0.6,0.7L51.5,61.6
			L51.5,61.6z M6.3,47L1.4,7l5.5-0.7V51L6.3,47z M45,5.8H11l3.8-0.5l29.7-3.8L45,5.8z M15.3,3.8l0.2-2.4l10.8,0.9L15.3,3.8z"/>
	</g>
	<g>
		<path class="st0" d="M31.7,11.8c-0.4,0-0.6,0.3-0.6,0.7v13c0,0.4,0.3,0.7,0.6,0.7h12.7c0.4,0,0.6-0.3,0.6-0.7
			c0-3.7-1.5-7.3-4.2-9.9l-0.2-0.2l2.1-3.2h4.5c0.4,0,0.6-0.3,0.6-0.7s-0.3-0.7-0.6-0.7h-4.9c-0.2,0-0.4,0.1-0.5,0.3l-2.2,3.4
			l-0.2-0.2C37.2,12.6,34.5,11.8,31.7,11.8z M43.7,24.7H32.4V13.1h0.3c2.2,0.2,4.3,1,6.1,2.3l0.2,0.2l-1,1.5
			c-0.2,0.3-0.1,0.7,0.1,0.9c0.1,0.1,0.3,0.2,0.5,0.1c0.2,0,0.3-0.1,0.4-0.3l0.9-1.3l0.2,0.2c2,2.1,3.3,4.8,3.5,7.8L43.7,24.7z"/>
	</g>
	<g>
		<path class="st0" d="M36.3,39.9l1.7,2.8c0.1,0.2,0.3,0.3,0.5,0.3h8.8c0.4,0,0.6-0.3,0.6-0.7s-0.3-0.7-0.6-0.7h-8.4L37.3,39
			l0.1-0.2c2.4-2.6,3.7-5.9,3.7-9.4c0-0.4-0.3-0.7-0.6-0.7h-12V16.4c0-0.4-0.3-0.7-0.6-0.7c-7.3,0-13.3,6.1-13.3,13.6
			S20.5,43,27.8,43c3,0,5.9-1,8.2-2.9L36.3,39.9z M27.8,41.6c-6.6,0-12-5.5-12-12.3c0-6.4,4.9-11.8,11.1-12.3h0.3v12.3
			c0,0.4,0.3,0.7,0.6,0.7h12v0.3c-0.2,2.7-1.2,5.2-3,7.2l-0.2,0.3L34.2,34c-0.1-0.2-0.2-0.3-0.4-0.3c-0.2,0-0.3,0-0.5,0.1
			c-0.1,0.1-0.2,0.2-0.3,0.4c0,0.2,0,0.3,0.1,0.5l2.5,4l-0.2,0.2C33.3,40.7,30.6,41.6,27.8,41.6z"/>
	</g>
	<g>
		<path class="st0" d="M12.3,46.6c-0.4,0-0.6,0.3-0.6,0.7S12,48,12.3,48H20c0.4,0,0.6-0.3,0.6-0.7s-0.3-0.7-0.6-0.7H12.3z"/>
	</g>
	<g>
		<path class="st0" d="M23.9,46.6c-0.4,0-0.6,0.3-0.6,0.7s0.3,0.7,0.6,0.7h7.8c0.4,0,0.6-0.3,0.6-0.7s-0.3-0.7-0.6-0.7H23.9z"/>
	</g>
	<g>
		<path class="st0" d="M12.3,51.6c-0.4,0-0.6,0.3-0.6,0.7S12,53,12.3,53h12.7c0.4,0,0.6-0.3,0.6-0.7s-0.3-0.7-0.6-0.7H12.3z"/>
	</g>
	<g>
		<path class="st0" d="M28.8,51.6c-0.4,0-0.6,0.3-0.6,0.7s0.3,0.7,0.6,0.7h2.9c0.4,0,0.6-0.3,0.6-0.7s-0.3-0.7-0.6-0.7H28.8z"/>
	</g>
	<g>
		<path class="st0" d="M12.3,56.6c-0.4,0-0.6,0.3-0.6,0.7S12,58,12.3,58h3.9c0.4,0,0.6-0.3,0.6-0.7s-0.3-0.7-0.6-0.7H12.3z"/>
	</g>
	<g>
		<path class="st0" d="M20,56.6c-0.4,0-0.6,0.3-0.6,0.7S19.7,58,20,58h11.7c0.4,0,0.6-0.3,0.6-0.7s-0.3-0.7-0.6-0.7H20z"/>
	</g>
</g>
</svg>
