<?xml version="1.0" encoding="utf-8"?>
<!-- Generator: Adobe Illustrator 25.0.0, SVG Export Plug-In . SVG Version: 6.00 Build 0)  -->
<svg version="1.1" id="レイヤー_1" xmlns="http://www.w3.org/2000/svg" xmlns:xlink="http://www.w3.org/1999/xlink" x="0px"
	 y="0px" viewBox="0 0 61 59" style="enable-background:new 0 0 61 59;" xml:space="preserve">
<style type="text/css">
	.st0{fill-rule:evenodd;clip-rule:evenodd;fill:#E8E8E8;}
</style>
<g>
	<path class="st0" d="M32.2,48c0,0-3.2-0.8-3.2-3.7c0-2.5,1.5-3.3,2.2-4.1c0,0,0.9-0.8,0.2-3.3c1.3-1.4,1.5-3.9,0.2-6.4
		c-0.9-1.8-1.7-2.7-2.8-3.1c-0.9-0.4-1.7-0.6-2.6-0.6c-1.3,0-2.6,0.4-3.2,0.6c0.2,0.4,0.4,0.8,0.6,1.4l0,0c0.4-0.2,1.5-0.4,2.6-0.4
		c0.6,0,1.3,0.2,1.7,0.4c0.4,0.2,1.3,0.8,2.2,2.3c1.1,2.1,0.6,4.1,0,4.9c-0.4,0.4-0.4,1-0.4,1.4c0.4,1.4,0.2,1.8,0.2,1.9
		c0,0-0.2,0-0.2,0.2l-0.2,0.2c-0.6,0.8-2.2,2.1-2.2,4.7c0,3.3,2.8,4.9,4.5,5.3c2.2,0.6,4.5,1.6,4.9,3.7c-5.6,0-5.6,0-5.6,0
		c0.2,0.4,0.4,1,0.4,1.6c6,0,6,0,6,0c0.9,0,0.9-0.8,0.9-0.8C38.4,50,34.1,48.6,32.2,48 M22.9,48.8c0,0-3.4-0.8-3.4-3.9
		c0-2.9,1.5-3.9,1.9-4.7c0,0,1.1-0.8,0.4-3.7c1.3-1.6,1.5-4.3,0.2-7.2c-1.1-1.9-1.7-2.9-3-3.5c-0.9-0.4-1.7-0.6-2.6-0.6
		c-1.9,0-3.4,0.6-4.1,1c-2.2,0.8-3.4,1.4-4.5,4.1c-1.1,2.3,0.2,4.9,0.6,6c-0.6,2.9,0.4,3.9,0.4,3.9c0.4,0.8,1.9,1.8,1.9,4.7
		c0,3.1-3.4,3.9-3.4,3.9c-2.2,0.8-6.9,2.1-6.9,6.8c0,0,0,0.8,0.9,0.8c27.5,0,27.5,0,27.5,0c0.9,0,0.9-0.8,0.9-0.8
		C29.8,50.9,25.1,49.6,22.9,48.8 M2.2,54.8c0.4-2.7,3-3.7,5.6-4.5c1.7-0.4,4.7-2.1,4.7-5.4c0-3.1-1.3-4.5-2.2-5.3
		c0-0.2,0-0.2-0.2-0.4l0,0c0,0-0.4-0.8,0-2.5c0.2-0.2,0-0.6,0-1c-0.4-0.8-1.5-3.1-0.9-4.7c1.1-2.3,1.9-2.7,3.7-3.5c0,0,0,0,0.2,0
		c0.4-0.4,1.7-0.8,3.2-0.8c0.6,0,1.3,0.2,1.9,0.4c0.4,0.4,1.1,1,1.9,2.7c1.3,2.5,0.9,4.7,0,5.6c-0.2,0.4-0.2,1-0.2,1.4
		c0.4,1.6,0.2,2.1,0,2.3l0,0c-0.2,0.2-0.2,0.2-0.2,0.4c-0.9,0.8-2.2,2.1-2.2,5.3c0,3.3,3,5.1,4.7,5.4c2.4,0.8,5.2,1.8,5.6,4.5
		L2.2,54.8L2.2,54.8L2.2,54.8z"/>
</g>
<g>
	<path class="st0" d="M45.4,20.3c2.6,0,2.6,0,2.6,0c1.5,0,2.6-1.1,2.6-2.6c0-2.6,0-2.6,0-2.6c0-1.5-1.1-2.6-2.6-2.6
		c-2.6,0-2.6,0-2.6,0c-1.5,0-2.6,1.1-2.6,2.6c0,2.6,0,2.6,0,2.6C42.7,19.1,43.9,20.3,45.4,20.3 M44.1,15.1c0-0.7,0.7-1.3,1.3-1.3
		c2.6,0,2.6,0,2.6,0c0.7,0,1.3,0.7,1.3,1.3c0,2.6,0,2.6,0,2.6c0,0.7-0.7,1.3-1.3,1.3c-2.6,0-2.6,0-2.6,0c-0.7,0-1.3-0.7-1.3-1.3
		V15.1L44.1,15.1L44.1,15.1z M36.2,32c0.3,0,0.7-0.3,0.7-0.7c0-4.6,0-4.6,0-4.6c9.1,0,9.1,0,9.1,0c0,4.6,0,4.6,0,4.6
		c0,0.3,0.3,0.7,0.7,0.7s0.7-0.3,0.7-0.7c0-4.6,0-4.6,0-4.6c9.1,0,9.1,0,9.1,0c0,4.6,0,4.6,0,4.6c0,0.3,0.3,0.7,0.7,0.7
		c0.3,0,0.7-0.3,0.7-0.7c0-5.2,0-5.2,0-5.2c0-0.3-0.3-0.7-0.7-0.7c-9.8,0-9.8,0-9.8,0c0-3.3,0-3.3,0-3.3c0-0.3-0.3-0.7-0.7-0.7
		S46,21.7,46,22.1c0,3.3,0,3.3,0,3.3c-9.8,0-9.8,0-9.8,0c-0.3,0-0.7,0.3-0.7,0.7c0,5.2,0,5.2,0,5.2C35.6,31.7,35.9,32,36.2,32
		 M37.5,33.3c-2.6,0-2.6,0-2.6,0c-1.5,0-2.6,1.1-2.6,2.6c0,2.6,0,2.6,0,2.6c0,1.5,1.1,2.6,2.6,2.6c2.6,0,2.6,0,2.6,0
		c1.5,0,2.6-1.1,2.6-2.6c0-2.6,0-2.6,0-2.6C40.1,34.4,39,33.3,37.5,33.3 M38.8,38.5c0,0.7-0.7,1.3-1.3,1.3c-2.6,0-2.6,0-2.6,0
		c-0.7,0-1.3-0.7-1.3-1.3c0-2.6,0-2.6,0-2.6c0-0.7,0.7-1.3,1.3-1.3c2.6,0,2.6,0,2.6,0c0.7,0,1.3,0.7,1.3,1.3V38.5L38.8,38.5
		L38.8,38.5z M58.4,33.3c-2.6,0-2.6,0-2.6,0c-1.5,0-2.6,1.1-2.6,2.6c0,2.6,0,2.6,0,2.6c0,1.5,1.1,2.6,2.6,2.6c2.6,0,2.6,0,2.6,0
		c1.5,0,2.6-1.1,2.6-2.6c0-2.6,0-2.6,0-2.6C61,34.4,59.9,33.3,58.4,33.3 M59.7,38.5c0,0.7-0.7,1.3-1.3,1.3c-2.6,0-2.6,0-2.6,0
		c-0.7,0-1.3-0.7-1.3-1.3c0-2.6,0-2.6,0-2.6c0-0.7,0.7-1.3,1.3-1.3c2.6,0,2.6,0,2.6,0c0.7,0,1.3,0.7,1.3,1.3V38.5L59.7,38.5
		L59.7,38.5z M48,33.3c-2.6,0-2.6,0-2.6,0c-1.5,0-2.6,1.1-2.6,2.6c0,2.6,0,2.6,0,2.6c0,1.5,1.1,2.6,2.6,2.6c2.6,0,2.6,0,2.6,0
		c1.5,0,2.6-1.1,2.6-2.6c0-2.6,0-2.6,0-2.6C50.6,34.4,49.4,33.3,48,33.3 M49.3,38.5c0,0.7-0.7,1.3-1.3,1.3c-2.6,0-2.6,0-2.6,0
		c-0.7,0-1.3-0.7-1.3-1.3c0-2.6,0-2.6,0-2.6c0-0.7,0.7-1.3,1.3-1.3c2.6,0,2.6,0,2.6,0c0.7,0,1.3,0.7,1.3,1.3V38.5L49.3,38.5
		L49.3,38.5z"/>
</g>
<g>
	<path class="st0" d="M24.6,19.4c-0.7,0-1.3,0.4-1.8,0.8c-10.1-5.8-10.1-5.8-10.1-5.8c0.1-0.2,0.1-0.5,0.1-0.7s0-0.5-0.1-0.7
		c10.1-5.8,10.1-5.8,10.1-5.8C23.3,7.7,23.9,8,24.6,8C25.9,8.1,27,7,27,5.7s-1.1-2.4-2.4-2.4s-2.4,1.1-2.4,2.4c0,0.2,0,0.5,0.1,0.7
		c-10.1,5.8-10.1,5.8-10.1,5.8c-0.5-0.5-1.1-0.8-1.8-0.8c-1.3,0-2.4,1.1-2.4,2.4s1.1,2.4,2.4,2.4c0.7,0,1.3-0.4,1.8-0.8
		C22.4,21,22.4,21,22.4,21c-0.1,0.2-0.1,0.5-0.1,0.7c0,1.3,1.1,2.4,2.4,2.4S27,23,27,21.7C27,20.4,25.9,19.4,24.6,19.4 M24.6,4.3
		c0.8,0,1.4,0.6,1.4,1.4s-0.6,1.4-1.4,1.4s-1.4-0.6-1.4-1.4S23.8,4.3,24.6,4.3 M10.4,15.1c-0.8,0-1.4-0.6-1.4-1.4
		c0-0.8,0.6-1.4,1.4-1.4c0.8,0,1.4,0.6,1.4,1.4C11.9,14.6,11.3,15.1,10.4,15.1 M24.6,23.2c-0.8,0-1.4-0.6-1.4-1.4s0.6-1.4,1.4-1.4
		S26,21,26,21.8S25.4,23.2,24.6,23.2"/>
</g>
</svg>
