<?xml version="1.0" encoding="utf-8"?>
<!-- Generator: Adobe Illustrator 22.1.0, SVG Export Plug-In . SVG Version: 6.00 Build 0)  -->
<svg version="1.1" id="レイヤー_1" xmlns="http://www.w3.org/2000/svg" xmlns:xlink="http://www.w3.org/1999/xlink" x="0px"
	 y="0px" width="120px" height="17px" viewBox="0 0 120 17" style="enable-background:new 0 0 120 17;" xml:space="preserve">
<style type="text/css">
	.st0{fill:#0C2041;}
</style>
<g>
	<path class="st0" d="M12.9,16c-1,0.5-2.3,1-4.1,1c-2.9,0-4.7-1-6.1-2.3C0.7,12.9,0,10.9,0,8.5c0-3,1.2-5.1,2.7-6.4
		C4.3,0.6,6.4,0,8.8,0c1.2,0,2.6,0.2,4.1,1v3.7c-1.5-1.7-3.4-1.8-4-1.8c-3.3,0-5.5,2.7-5.5,5.7c0,3.6,2.8,5.6,5.6,5.6
		c1.5,0,2.9-0.7,3.9-1.8C12.9,12.3,12.9,16,12.9,16z"/>
	<path class="st0" d="M32.9,8.5c0,5-3.6,8.5-8.9,8.5c-5.2,0-8.9-3.5-8.9-8.5c0-5,3.6-8.5,8.9-8.5C29.2,0,32.9,3.6,32.9,8.5z
		 M29.5,8.5c0-3.3-2.3-5.6-5.5-5.6c-3.2,0-5.5,2.3-5.5,5.6s2.3,5.6,5.5,5.6C27.2,14.1,29.5,11.8,29.5,8.5z"/>
	<path class="st0" d="M38.1,0.4h2.3l4.4,10.3l4.6-10.3h2.3l2.8,16.3h-3.3l-1.5-10l-4.5,10h-1.1L40,6.6l-1.7,10H35L38.1,0.4z"/>
	<path class="st0" d="M62.4,0.4c1.9,0,3.2,0.2,4.4,1.2c1.3,1.2,1.7,2.8,1.7,3.9c0,0.6-0.1,2.4-1.4,3.6c-0.9,0.9-2.3,1.4-4.2,1.4
		h-2.1v6h-3.2V0.4H62.4z M60.8,7.9h1.3c0.6,0,1.4,0,2.1-0.5c0.6-0.5,0.9-1.2,0.9-1.9c0-0.9-0.5-1.5-0.9-1.9
		c-0.7-0.5-1.5-0.5-2.3-0.5h-1.1L60.8,7.9L60.8,7.9z"/>
	<path class="st0" d="M80.8,13.2h-6.7l-1.5,3.4h-3.5l7.2-16.3h2.5l7,16.3h-3.5L80.8,13.2z M79.8,10.6l-2.4-5.9l-2.4,5.9H79.8z"/>
	<path class="st0" d="M87.7,16.6V0.4h2.2l10.1,10.9V0.4h3.2v16.3h-2.2L90.9,5.8v10.9C90.9,16.6,87.7,16.6,87.7,16.6z"/>
	<path class="st0" d="M110.9,9.2l-5.7-8.8h3.8l3.6,5.7l3.6-5.7h3.8l-5.9,8.8v7.4h-3.2C110.9,16.6,110.9,9.2,110.9,9.2z"/>
</g>
</svg>
