<?xml version="1.0" encoding="utf-8"?>
<!-- Generator: Adobe Illustrator 22.1.0, SVG Export Plug-In . SVG Version: 6.00 Build 0)  -->
<svg version="1.1" id="レイヤー_1" xmlns="http://www.w3.org/2000/svg" xmlns:xlink="http://www.w3.org/1999/xlink" x="0px"
	 y="0px" width="152px" height="18px" viewBox="0 0 152 18" style="enable-background:new 0 0 152 18;" xml:space="preserve">
<style type="text/css">
	.st0{fill:#0C2041;}
</style>
<g>
	<path class="st0" d="M0,17.3L2.7,0l6.2,13.8L15.2,0l2.5,17.3h-1.8L14.4,5.9L8.9,18L3.4,5.9L1.8,17.3H0z"/>
	<path class="st0" d="M21.1,9.1c0-4.9,3.8-8.5,8.4-8.5s8.4,3.6,8.4,8.5c0,4.9-3.7,8.5-8.4,8.5S21.1,14,21.1,9.1z M23,9.1
		c0,3.8,2.9,6.8,6.6,6.8s6.6-3,6.6-6.8c0-3.8-2.9-6.8-6.6-6.8S23,5.4,23,9.1z"/>
	<path class="st0" d="M44.3,0.9c1.1,0,2.7,0.1,3.9,0.9C49.2,2.5,50,3.7,50,5.5C50,8,48.4,9.8,46,10l5.1,7.3h-2.2L44,10.1h-0.5v7.2
		h-1.8V0.9H44.3z M43.5,8.5h1.1c2.2,0,3.6-1.1,3.6-3c0-0.9-0.3-1.8-1.3-2.4c-0.7-0.4-1.6-0.5-2.3-0.5h-1.1V8.5z"/>
	<path class="st0" d="M62.8,2.7h-6.6v4.9h6.4v1.7h-6.4v6.4h6.6v1.7h-8.4V0.9h8.4V2.7z"/>
	<path class="st0" d="M72.7,0.9H76c1.6,0,3.9,0.2,6,1.9c1.5,1.3,2.8,3.3,2.8,6.3c0,3.4-1.7,5.3-2.8,6.3c-1.5,1.3-3,1.9-5.9,1.9h-3.3
		C72.7,17.3,72.7,0.9,72.7,0.9z M74.5,15.6h1.6c1.3,0,3.1-0.1,4.6-1.5c1.2-1,2.2-2.7,2.2-5c0-3.9-2.7-6.5-6.8-6.5h-1.6V15.6z"/>
	<path class="st0" d="M96.9,2.7h-6.6v4.9h6.4v1.7h-6.4v6.4h6.6v1.7h-8.4V0.9h8.4V2.7z"/>
	<path class="st0" d="M104.7,2.7v14.7h-1.8V2.7H99V0.9h9.7v1.7L104.7,2.7L104.7,2.7z"/>
	<path class="st0" d="M120.5,12.7h-6.9l-1.9,4.6h-2l7.4-17.2l7.3,17.2h-2L120.5,12.7z M119.8,11L117,4.4l-2.8,6.6H119.8z"/>
	<path class="st0" d="M128.9,0.9v16.4h-1.8V0.9H128.9z"/>
	<path class="st0" d="M135.4,0.9v14.7h4.5v1.7h-6.3V0.9H135.4z"/>
	<path class="st0" d="M150,4.2c-0.2-0.4-0.6-0.9-0.9-1.2c-0.3-0.2-0.9-0.6-1.8-0.6c-1.6,0-2.7,1-2.7,2.5c0,0.6,0.2,1,0.6,1.4
		c0.5,0.5,1.1,0.8,1.7,1l1.6,0.7c0.9,0.4,1.8,0.9,2.5,1.5c0.8,0.8,1.2,1.8,1.2,3c0,3-2.2,5-5.1,5c-1.1,0-2.4-0.2-3.5-1.3
		c-0.8-0.8-1.3-1.9-1.5-2.9l1.7-0.5c0.1,0.9,0.5,1.6,1,2.1c0.7,0.7,1.5,0.9,2.3,0.9c2.2,0,3.3-1.6,3.3-3.2c0-0.7-0.2-1.4-0.8-1.9
		c-0.5-0.4-1.1-0.7-1.9-1.1L146,8.9c-0.6-0.3-1.4-0.6-2.2-1.4c-0.7-0.7-1.1-1.4-1.1-2.7c0-2.5,1.9-4.2,4.5-4.2c1,0,1.8,0.2,2.6,0.7
		c0.7,0.4,1.2,1.1,1.6,1.8L150,4.2z"/>
</g>
</svg>
