<?xml version="1.0" encoding="utf-8"?>
<!-- Generator: Adobe Illustrator 22.1.0, SVG Export Plug-In . SVG Version: 6.00 Build 0)  -->
<svg version="1.1" id="レイヤー_1" xmlns="http://www.w3.org/2000/svg" xmlns:xlink="http://www.w3.org/1999/xlink" x="0px"
	 y="0px" width="150px" height="18px" viewBox="0 0 150 18" style="enable-background:new 0 0 150 18;" xml:space="preserve">
<style type="text/css">
	.st0{fill:#0C2041;}
</style>
<g>
	<path class="st0" d="M0,17.1L2.7,0l6.1,13.7L15,0l2.5,17.1h-1.8L14.2,5.9l-5.4,12l-5.3-12L1.8,17.1C1.8,17.1,0,17.1,0,17.1z"/>
	<path class="st0" d="M20.8,9c0-4.8,3.7-8.4,8.3-8.4s8.3,3.6,8.3,8.4c0,4.8-3.7,8.4-8.3,8.4C24.5,17.4,20.8,13.9,20.8,9z M22.6,9
		c0,3.7,2.9,6.7,6.5,6.7c3.6,0,6.5-3,6.5-6.7s-2.9-6.7-6.5-6.7C25.5,2.4,22.6,5.3,22.6,9z"/>
	<path class="st0" d="M43.6,0.9c1.1,0,2.7,0.1,3.9,0.9c0.9,0.6,1.7,1.9,1.7,3.6c0,2.5-1.6,4.3-4,4.5l5.1,7.2h-2.1L43.3,10h-0.5v7.1
		h-1.8V0.9H43.6z M42.8,8.4H44c2.2,0,3.5-1.1,3.5-3c0-0.9-0.3-1.8-1.3-2.4c-0.7-0.4-1.5-0.5-2.3-0.5h-1.1L42.8,8.4L42.8,8.4z"/>
	<path class="st0" d="M61.8,2.6h-6.5v4.8h6.3v1.7h-6.3v6.3h6.5v1.7h-8.3V0.9h8.3V2.6z"/>
	<path class="st0" d="M71.7,0.9l4.2,12.2l5-13l4.7,13l4.7-12.2h2L85.5,18L80.8,5l-5,13L69.7,0.9H71.7z"/>
	<path class="st0" d="M94.1,9c0-4.8,3.7-8.4,8.3-8.4s8.3,3.6,8.3,8.4c0,4.8-3.7,8.4-8.3,8.4C97.7,17.4,94.1,13.9,94.1,9z M95.9,9
		c0,3.7,2.9,6.7,6.5,6.7c3.6,0,6.5-3,6.5-6.7s-2.9-6.7-6.5-6.7C98.8,2.4,95.9,5.3,95.9,9z"/>
	<path class="st0" d="M116.9,0.9c1.1,0,2.7,0.1,3.9,0.9c0.9,0.6,1.7,1.9,1.7,3.6c0,2.5-1.6,4.3-4,4.5l5.1,7.2h-2.1l-4.8-7.1h-0.5
		v7.1h-1.8V0.9H116.9z M116.1,8.4h1.1c2.2,0,3.5-1.1,3.5-3c0-0.9-0.3-1.8-1.3-2.4c-0.7-0.4-1.5-0.5-2.3-0.5h-1.1V8.4z"/>
	<path class="st0" d="M128.6,7.9l6.8-7h2.4l-7.4,7.6l7.7,8.7h-2.4l-6.5-7.4l-0.5,0.5v7h-1.8V0.9h1.8V7.9z"/>
	<path class="st0" d="M148,4.1c-0.2-0.4-0.6-0.9-0.9-1.2c-0.3-0.2-0.9-0.6-1.8-0.6c-1.6,0-2.7,1-2.7,2.5c0,0.6,0.2,1,0.6,1.4
		c0.5,0.5,1.1,0.8,1.7,1l1.5,0.7c0.9,0.4,1.8,0.9,2.5,1.5c0.8,0.8,1.1,1.8,1.1,2.9c0,3-2.2,5-5,5c-1.1,0-2.4-0.2-3.5-1.3
		c-0.8-0.8-1.3-1.9-1.5-2.9l1.7-0.5c0.1,0.9,0.5,1.6,1,2.1c0.7,0.7,1.5,0.9,2.3,0.9c2.2,0,3.2-1.6,3.2-3.2c0-0.7-0.2-1.4-0.8-1.9
		c-0.5-0.4-1.1-0.7-1.9-1.1l-1.4-0.7c-0.6-0.3-1.4-0.6-2.1-1.3c-0.7-0.7-1.1-1.4-1.1-2.7c0-2.5,1.9-4.2,4.5-4.2c1,0,1.8,0.2,2.6,0.7
		c0.6,0.4,1.2,1.1,1.6,1.8L148,4.1z"/>
</g>
</svg>
