<?xml version="1.0" encoding="utf-8"?>
<!-- Generator: Adobe Illustrator 22.1.0, SVG Export Plug-In . SVG Version: 6.00 Build 0)  -->
<svg version="1.1" id="レイヤー_1" xmlns="http://www.w3.org/2000/svg" xmlns:xlink="http://www.w3.org/1999/xlink" x="0px"
	 y="0px" width="157px" height="18px" viewBox="0 0 157 18" style="enable-background:new 0 0 157 18;" xml:space="preserve">
<style type="text/css">
	.st0{fill:#0C2041;}
</style>
<g>
	<path class="st0" d="M8.4,17.6H5.9L0,0.4h3.5l3.8,11.7l4.2-11.9h1.8l3.9,11.9l4.1-11.7h3.5l-6.3,17.2h-2.5L12.3,6.7L8.4,17.6z"/>
	<path class="st0" d="M30.2,7.1h7.2V0.4h3.3v17.2h-3.3V9.9h-7.2v7.7h-3.3V0.4h3.3V7.1z"/>
	<path class="st0" d="M54.7,14h-6.9l-1.5,3.6h-3.6L50,0.4h2.6l7.1,17.2h-3.6L54.7,14z M53.7,11.3l-2.4-6.2l-2.4,6.2H53.7z"/>
	<path class="st0" d="M67.1,3.3v14.3h-3.3V3.3h-3.8V0.4h11v2.9C70.9,3.3,67.1,3.3,67.1,3.3z"/>
	<path class="st0" d="M85.5,17.6H83L77.1,0.4h3.5l3.8,11.7l4.2-11.9h1.8l3.9,11.9l4.1-11.7h3.5l-6.3,17.2h-2.5L89.4,6.7L85.5,17.6z"
		/>
	<path class="st0" d="M113.4,3.3h-6.1v3.8h5.9V10h-5.9v4.7h6.1v2.9h-9.4V0.4h9.4V3.3z"/>
	<path class="st0" d="M127,0.4c2.4,0,4.4,0.3,6.3,1.7c2.1,1.6,3.3,4.1,3.3,6.9s-1.2,5.3-3.4,6.9c-2,1.4-3.9,1.7-6.2,1.7h-4.4V0.4
		H127z M125.9,14.7h1c0.8,0,2.7-0.1,4.2-1.1c1.4-1,2.1-2.7,2.1-4.6c0-1.8-0.7-3.6-2.1-4.6c-1.4-1-3.1-1.1-4.2-1.1h-1L125.9,14.7
		L125.9,14.7z"/>
	<path class="st0" d="M157,9c0,5.2-3.7,9-9.1,9c-5.4,0-9.1-3.7-9.1-9c0-5.2,3.7-9,9.1-9C153.3,0,157,3.8,157,9z M153.6,9
		c0-3.5-2.3-6-5.7-6c-3.3,0-5.7,2.5-5.7,6s2.3,5.9,5.7,5.9C151.2,15,153.6,12.5,153.6,9z"/>
</g>
</svg>
