<?xml version="1.0" encoding="utf-8"?>
<!-- Generator: Adobe Illustrator 22.1.0, SVG Export Plug-In . SVG Version: 6.00 Build 0)  -->
<svg version="1.1" id="レイヤー_1" xmlns="http://www.w3.org/2000/svg" xmlns:xlink="http://www.w3.org/1999/xlink" x="0px"
	 y="0px" width="129px" height="17px" viewBox="0 0 129 17" style="enable-background:new 0 0 129 17;" xml:space="preserve">
<style type="text/css">
	.st0{fill:#0C2041;}
</style>
<g>
	<path class="st0" d="M12.1,4.2c-0.5-0.5-1.2-1.1-1.9-1.4C9.4,2.4,8.5,2.1,7.6,2.1c-3.4,0-6,2.9-6,6.5c0,4.2,3.3,6.3,6,6.3
		c1,0,2-0.3,2.8-0.7c0.8-0.4,1.4-1,1.7-1.3v2.1c-1.6,1.2-3.4,1.5-4.5,1.5c-4.4,0-7.7-3.5-7.7-8c0-4.6,3.3-8.1,7.8-8.1
		c0.9,0,2.6,0.1,4.4,1.5V4.2z"/>
	<path class="st0" d="M14.8,8.5c0-4.6,3.4-8,7.7-8s7.7,3.4,7.7,8c0,4.6-3.4,8-7.7,8C18.2,16.6,14.8,13.2,14.8,8.5z M16.5,8.5
		c0,3.6,2.7,6.4,6,6.4c3.3,0,6-2.8,6-6.4c0-3.6-2.7-6.4-6-6.4C19.2,2.1,16.5,5,16.5,8.5z"/>
	<path class="st0" d="M33.7,16.3V0.1l11.6,12.7V0.7h1.6V17L35.3,4.3v12H33.7z"/>
	<path class="st0" d="M54.8,2.4v13.9h-1.6V2.4h-3.6V0.7h8.8v1.6H54.8z"/>
	<path class="st0" d="M69.3,11.9H63l-1.8,4.4h-1.8L66.2,0l6.6,16.3H71L69.3,11.9z M68.6,10.3l-2.5-6.2l-2.5,6.2H68.6z"/>
	<path class="st0" d="M86.7,4.2c-0.5-0.5-1.2-1.1-1.9-1.4c-0.8-0.4-1.7-0.6-2.6-0.6c-3.4,0-6,2.9-6,6.5c0,4.2,3.3,6.3,6,6.3
		c1,0,2-0.3,2.8-0.7c0.8-0.4,1.4-1,1.7-1.3v2.1c-1.6,1.2-3.4,1.5-4.5,1.5c-4.4,0-7.7-3.5-7.7-8c0-4.6,3.3-8.1,7.8-8.1
		c0.9,0,2.6,0.1,4.4,1.5C86.7,2,86.7,4.2,86.7,4.2z"/>
	<path class="st0" d="M93.8,2.4v13.9h-1.6V2.4h-3.6V0.7h8.8v1.6H93.8z"/>
	<path class="st0" d="M107.3,10.3c0,1.3,0,2.7,1.2,3.8c0.6,0.5,1.6,0.9,2.4,0.9c0.8,0,1.8-0.3,2.4-0.9c1.2-1,1.2-2.5,1.2-3.8V0.7
		h1.6v10c0,1.3-0.1,2.6-0.9,3.7c-0.9,1.3-2.4,2.1-4.3,2.1c-1.9,0-3.4-0.8-4.3-2.1c-0.8-1.2-0.9-2.4-0.9-3.7v-10h1.6
		C107.3,0.7,107.3,10.3,107.3,10.3z"/>
	<path class="st0" d="M127.1,3.8c-0.2-0.4-0.5-0.9-0.9-1.2c-0.3-0.2-0.8-0.5-1.7-0.5c-1.5,0-2.5,1-2.5,2.4c0,0.6,0.2,1,0.6,1.4
		c0.4,0.5,1,0.7,1.6,1l1.4,0.7c0.9,0.4,1.7,0.8,2.3,1.5c0.8,0.8,1.1,1.7,1.1,2.8c0,2.9-2,4.8-4.7,4.8c-1,0-2.2-0.2-3.2-1.3
		c-0.7-0.7-1.2-1.8-1.4-2.8l1.6-0.5c0.1,0.8,0.5,1.5,0.9,2c0.6,0.7,1.4,0.9,2.1,0.9c2,0,3-1.5,3-3.1c0-0.7-0.2-1.3-0.7-1.8
		c-0.4-0.4-1-0.7-1.8-1.1l-1.3-0.7c-0.6-0.3-1.3-0.6-2-1.3c-0.6-0.7-1-1.4-1-2.5c0-2.4,1.8-4,4.2-4c0.9,0,1.6,0.2,2.4,0.7
		c0.6,0.4,1.1,1,1.4,1.7L127.1,3.8z"/>
</g>
</svg>
