<?xml version="1.0" encoding="utf-8"?>
<!-- Generator: Adobe Illustrator 25.0.0, SVG Export Plug-In . SVG Version: 6.00 Build 0)  -->
<svg version="1.1" id="レイヤー_1" xmlns="http://www.w3.org/2000/svg" xmlns:xlink="http://www.w3.org/1999/xlink" x="0px"
	 y="0px" viewBox="0 0 61 59" style="enable-background:new 0 0 61 59;" xml:space="preserve">
<style type="text/css">
	.st0{fill-rule:evenodd;clip-rule:evenodd;fill:#E8E8E8;}
</style>
<g>
	<path class="st0" d="M9.5,18.4c0-1.9,1.2-3.2,3-3.2c1.2,0,1.8,1.3,2.4,2.5l0,0c7.9,0,7.9,0,7.9,0c0-1.3,0.6-1.9,1.8-1.9
		c0-3.2,0-3.2,0-3.2c-1.2,0-2.4-1.3-2.4-2.5c0-1.9,1.2-3.2,3-3.2c1.2,0,2.4,1.3,2.4,3.2c0,1.3-0.6,2.5-1.8,2.5c0,3.2,0,3.2,0,3.2
		c0.6,0,1.2,0.6,1.8,1.9c7.9,0,7.9,0,7.9,0l0,0c0-1.3,1.2-2.5,2.4-2.5c1.2,0,2.4,1.3,2.4,3.2c0,1.3-0.6,2.5-1.8,2.5
		c0,3.2,0,3.2,0,3.2c-1.2,0-1.2,0-1.2,0c0-3.2,0-3.2,0-3.2c-1.2,0-1.8-1.3-1.8-1.9c-7.9,0-7.9,0-7.9,0c0,1.3-1.2,1.9-2.4,1.9
		s-2.4-0.6-2.4-1.9c-7.9,0-7.9,0-7.9,0c0,0.6-1.2,1.9-1.8,1.9c0,3.2,0,3.2,0,3.2c-1.2,0-1.2,0-1.2,0c0-3.2,0-3.2,0-3.2
		C10.7,21,9.5,19.7,9.5,18.4L9.5,18.4z M47.9,50.2c0,0.6,0,0.6-0.6,0.6l0,0c-11,0-11,0-11,0c-0.6-7-1.2-7.6-1.2-8.3
		c-1.2-0.6-2.4-1.3-4.9-1.9l0,0C29.6,40,29.6,40,29.6,40v-0.6c0.6-0.6,2.4-1.3,3.7-1.9c0.6,0,1.2,0,1.2,0l0,0c0,0,0.6,0,0.6-0.6l0,0
		c0,0,0,0,0-0.6c0-0.6,0-0.6,0-1.3c0-0.6-0.6-1.3-1.2-1.9c0,0-0.6-0.6-0.6-1.3c0-0.6,0-1.3,0.6-1.3v-0.6c0-3.2,1.2-5.1,4.3-5.1
		c2.4,0,3.7,1.9,3.7,5.1v0.6c0.6,0,0.6,0.6,0.6,1.3c0,0.6-0.6,1.3-0.6,1.3c-0.6,0.6-0.6,1.3-1.2,1.9c0,1.3,0,1.9,0,1.9v0.6l0,0l0,0
		c0.6,0,0.6,0,0.6,0c0.6,0,0.6,0,1.2,0c1.2,0.6,3,1.3,3.7,1.9C46.6,40.7,47.3,48.9,47.9,50.2L47.9,50.2z M37.5,40
		c-2.4-1.9-2.4-1.9-2.4-1.9c1.8,4.4,1.8,4.4,1.8,4.4L37.5,40L37.5,40L37.5,40z M40.6,38.1C38.1,40,38.1,40,38.1,40
		c0.6,3.2,0.6,3.2,0.6,3.2L40.6,38.1L40.6,38.1L40.6,38.1z M33.9,43.2c1.2,1.3,1.8,10.2,1.8,12.1c0,0,0,0,0,0.6h-0.6
		c-19.5,0-19.5,0-19.5,0s0,0-0.6,0l0,0l0,0l0,0c0-0.6,0-0.6,0-0.6c0-1.9,0.6-10.8,1.8-12.1c0.6-0.6,1.8-1.3,3.7-1.3
		c0.6-0.6,0.6-0.6,1.2-0.6l0,0h0.6l0,0c0-0.6,0-0.6,0-1.3c0-0.6,0-0.6,0-1.3c-0.6-0.6-0.6-1.3-1.2-1.9c0-0.6-0.6-0.6-0.6-1.9
		c0-0.6,0-0.6,0-1.3c0,0,0,0,0-0.6c0-2.5,1.8-5.1,4.9-5.1c2.4,0,4.3,2.5,4.3,5.1c0,0.6,0,0.6,0,0.6c0,0.6,0.6,0.6,0.6,1.3
		c-0.6,1.3-0.6,1.3-1.2,1.9c0,0.6-0.6,1.3-1.2,1.9c0,1.3,0.6,1.9,0.6,2.5l0,0l0,0l0,0c0,0,0,0,0.6,0c0,0,0.6,0,1.2,0.6
		C31.4,41.9,33.2,42.6,33.9,43.2L33.9,43.2z M24.7,43.8c-2.4-1.9-2.4-1.9-2.4-1.9c1.8,5.1,1.8,5.1,1.8,5.1L24.7,43.8L24.7,43.8
		L24.7,43.8z M27.8,41.9c-1.8,1.9-1.8,1.9-1.8,1.9c0.6,3.8,0.6,3.8,0.6,3.8L27.8,41.9L27.8,41.9L27.8,41.9z M15.6,42.6
		c0,0.6-1.2,1.3-1.8,8.3c-10.4,0-10.4,0-10.4,0l0,0H2.8l0,0l0,0c0,0,0,0,0-0.6c0-1.3,0.6-9.5,1.8-10.8c0.6-0.6,1.8-1.3,3.7-1.9
		c0,0,0.6,0,1.2,0l0,0c0,0,0,0,0-0.6l0,0c0,0,0.6,0,0.6-0.6c0-0.6,0-0.6,0-1.3c-0.6-0.6-1.2-1.3-1.2-1.9c0,0-0.6-0.6-0.6-1.3
		c-0.6-0.6,0-1.3,0-1.3v-0.6c0-3.2,1.8-5.1,4.3-5.1s4.3,1.9,4.3,5.1v0.6c0,0,0.6,0.6,0,1.3c0,0.6-0.6,1.3-0.6,1.3
		c0,0.6-0.6,1.3-1.2,1.9c0,1.3,0,1.9,0.6,1.9v0.6l0,0l0,0c0,0,0,0,0.6,0h0.6c1.8,0.6,3,1.3,3.7,1.9c0.6,0,0.6,0.6,0.6,0.6
		s-0.6,0-0.6,0.6c-0.6,0-0.6,0-0.6,0C18,41.3,16.2,41.9,15.6,42.6L15.6,42.6z M11.9,40c-1.8-1.9-1.8-1.9-1.8-1.9
		c1.2,4.4,1.2,4.4,1.2,4.4L11.9,40L11.9,40L11.9,40z M15,38.1C13.1,40,13.1,40,13.1,40c0.6,3.2,0.6,3.2,0.6,3.2L15,38.1L15,38.1
		L15,38.1z"/>
</g>
<g>
	<path class="st0" d="M35.1,17.6l0.4-0.4c11-3.1,11-3.1,11-3.1c0.4,0,0.4,0,0.8,0.4L47,15C36,18,36,18,36,18h-0.4
		C35.5,18,35.1,18,35.1,17.6L35.1,17.6z M43.2,12.3c0-0.4-0.4-0.4-0.4-0.4c-8.1,2.2-8.1,2.2-8.1,2.2c-0.4,0-0.4,0.4-0.4,0.4
		c0,0.4,0.4,0.4,0.4,0.4l0,0c8.1-2.2,8.1-2.2,8.1-2.2C43.2,12.8,43.2,12.3,43.2,12.3L43.2,12.3z M57.2,28.1c0.4,0.9,0.4,1.8,0,2.6
		c-0.4,0.9-1.3,1.3-2.1,1.8c-15.7,4.4-15.7,4.4-15.7,4.4c-0.4,0-0.8,0-0.8,0c-1.7,0-3-0.9-3.4-2.6c-7.6-22.8-7.6-22.8-7.6-22.8
		c-0.4-0.9-0.4-1.8,0-2.2c0.4-0.9,1.3-1.3,2.1-1.8C33,6.7,33,6.7,33,6.7V6.2c0-0.4,0.4-0.4,0.8-0.9c6.8-1.8,6.8-1.8,6.8-1.8
		c0.4,0,1.3,0,1.3,0.4c3.4-0.9,3.4-0.9,3.4-0.9c0.4,0,0.8,0,0.8,0c1.7,0,3,0.9,3.4,2.2c2.1,5.7,2.1,5.7,2.1,5.7
		c-0.8,1.3-0.8,1.3-0.8,1.3c-2.5-6.6-2.5-6.6-2.5-6.6c0-0.9-0.8-1.3-2.1-1.3c0,0,0,0-0.4,0c-3,0.9-3,0.9-3,0.9c0,0.4,0,0.4,0,0.4
		c0,0.4,0,0.9,0,0.9c-0.4,0.4-0.4,0.9-0.8,0.9c-6.8,1.8-6.8,1.8-6.8,1.8h-0.4c-0.4,0-1.3-0.4-1.3-0.9C33,8,33,8,33,8
		c-3,0.9-3,0.9-3,0.9c-0.8,0-1.3,0.4-1.3,0.9c-0.4,0.4-0.4,0.9,0,1.3c7.6,22.8,7.6,22.8,7.6,22.8c0.4,1.3,1.3,1.8,2.5,1.8
		c16.1-4.4,16.1-4.4,16.1-4.4c0.4-0.4,0.8-0.4,0.8-0.9c0.4-0.4,0.4-1.3,0.4-1.8C53.8,22,53.8,22,53.8,22c0.8-1.3,0.8-1.3,0.8-1.3
		L57.2,28.1L57.2,28.1L57.2,28.1z M33.8,7.1C34.3,8,34.3,8,34.3,8c0,0.4,0.4,0.4,0.4,0.4c6.8-1.8,6.8-1.8,6.8-1.8c0.4,0,0.4,0,0.4,0
		c0-0.4,0-0.4,0-0.4c-0.4-1.3-0.4-1.3-0.4-1.3c0-0.4-0.4-0.4-0.4-0.4s0,0-0.4,0c-6.8,1.8-6.8,1.8-6.8,1.8v0.4
		C33.8,6.7,33.8,6.7,33.8,7.1L33.8,7.1z M44.9,24.6v-0.4c-6.4,1.8-6.4,1.8-6.4,1.8l-0.4,0.4c0,0.4,0.4,0.4,0.4,0.4h0.4
		c5.9-1.8,5.9-1.8,5.9-1.8V24.6L44.9,24.6L44.9,24.6z M39.8,29.4L39.8,29.4c5.1-1.3,5.1-1.3,5.1-1.3c0-0.4,0-0.4,0-0.9
		c-5.5,1.3-5.5,1.3-5.5,1.3s-0.4,0.4,0,0.4C39.4,29.4,39.4,29.4,39.8,29.4L39.8,29.4z M47.8,17.2L47.8,17.2
		c-11.5,3.1-11.5,3.1-11.5,3.1s0,0,0,0.4c0,0,0,0.4,0.4,0.4l0,0C47.4,18,47.4,18,47.4,18L47.8,17.2L47.8,17.2L47.8,17.2z M49.5,14.1
		c-2.1-6.6-2.1-6.6-2.1-6.6c0-0.4-0.4-0.4-0.4-0.4c-16.1,4.4-16.1,4.4-16.1,4.4s-0.4,0-0.4,0.4l0,0c7.2,21.9,7.2,21.9,7.2,21.9
		c0.4,0.4,0.4,0.4,0.4,0.4c0.4,0,0.4,0,0.4,0c16.1-4.4,16.1-4.4,16.1-4.4s0,0,0-0.4c0,0,0,0,0-0.4c-1.7-4.8-1.7-4.8-1.7-4.8
		C52.5,25,52.5,25,52.5,25l0,0c1.3,3.9,1.3,3.9,1.3,3.9c-15.3,4.4-15.3,4.4-15.3,4.4c-7.2-21-7.2-21-7.2-21C46.6,8,46.6,8,46.6,8
		c2.5,7,2.5,7,2.5,7L49.5,14.1L49.5,14.1L49.5,14.1z M45.7,21.1c0.4-0.4,0.4-0.4,0.4-0.4c-8.5,2.2-8.5,2.2-8.5,2.2
		c-0.4,0-0.4,0.4-0.4,0.9h0.4l0,0c7.6-2.2,7.6-2.2,7.6-2.2C45.7,21.5,45.7,21.1,45.7,21.1L45.7,21.1z M58.5,12.8
		c-6.8,11.8-6.8,11.8-6.8,11.8c-0.4,0.9-1.3,1.8-2.1,2.2c-1.7,1.3-1.7,1.3-1.7,1.3s-0.4,0-0.8,0c-0.4,0-0.8,0-0.8-0.4
		c-0.4,0-0.8-0.4-0.4-1.3c0-1.8,0-1.8,0-1.8c0-0.9,0.4-2.2,0.8-3.1c6.8-11.8,6.8-11.8,6.8-11.8c0.4-0.9,1.3-1.3,1.7-1.3
		c0.4,0,0.8,0,1.3,0.4c1.3,0.4,1.3,0.4,1.3,0.4C58.5,9.7,58.9,11.5,58.5,12.8L58.5,12.8z M47.4,22.4c0.4,0.4,0.4,0.4,0.4,0.4
		c5.5-9.6,5.5-9.6,5.5-9.6c-0.4-0.4-0.4-0.4-0.4-0.4C47.8,22,47.8,22,47.8,22C47.4,22.4,47.4,22.4,47.4,22.4L47.4,22.4z M48.7,23.3
		c0.4,0.4,0.4,0.4,0.4,0.4c5.5-9.6,5.5-9.6,5.5-9.6c-0.8-0.4-0.8-0.4-0.8-0.4L48.7,23.3L48.7,23.3L48.7,23.3z M50,25
		c-2.1-1.3-2.1-1.3-2.1-1.3l0,0l0,0C47,23.3,47,23.3,47,23.3c0,0.4,0,0.9,0,1.3c0,1.3,0,1.3,0,1.3c0.8,0.4,0.8,0.4,0.8,0.4
		c0.8-0.4,0.8-0.4,0.8-0.4C49.1,25.5,49.5,25.5,50,25L50,25z M55.9,14.5c-0.4,0-0.4,0-0.4,0C50,24.2,50,24.2,50,24.2
		c0.4,0,0.4,0,0.4,0s0,0,0-0.4L55.9,14.5L55.9,14.5L55.9,14.5z M56.8,12.8c-3-1.8-3-1.8-3-1.8c-0.4,1.3-0.4,1.3-0.4,1.3
		c2.1,0.9,2.1,0.9,2.1,0.9l0,0l0,0c0.8,0.9,0.8,0.9,0.8,0.9L56.8,12.8L56.8,12.8L56.8,12.8z M57.2,11c0-0.4,0-0.4-0.4-0.4
		c-0.8-0.9-0.8-0.9-0.8-0.9c-0.4,0-0.4,0-0.8,0c0,0-0.4,0-0.8,0.4l0,0c3,1.8,3,1.8,3,1.8l0,0C57.2,11.5,57.6,11.5,57.2,11L57.2,11z"
		/>
</g>
</svg>
