<?xml version="1.0" encoding="utf-8"?>
<!-- Generator: Adobe Illustrator 21.1.0, SVG Export Plug-In . SVG Version: 6.00 Build 0)  -->
<svg version="1.1" id="レイヤー_1" xmlns="http://www.w3.org/2000/svg" xmlns:xlink="http://www.w3.org/1999/xlink" x="0px"
	 y="0px" width="61px" height="59px" viewBox="0 0 61 59" style="enable-background:new 0 0 61 59;" xml:space="preserve">
<style type="text/css">
	.st0{fill:#FFFFFF;}
</style>
<g>
	<g>
		<path class="st0" d="M51.5,50.2c4.5,0,8.1,3.6,8.1,8.1c0,0.4,0.3,0.7,0.7,0.7c0.4,0,0.7-0.3,0.7-0.7c0-3.8-2.2-7.2-5.7-8.7
			l-0.5-0.2l0.5-0.3c1.7-1.2,2.8-3.2,2.8-5.4c0-3.6-3-6.6-6.6-6.6s-6.6,3-6.6,6.6c0,2.1,1,4.1,2.8,5.4l0.5,0.3l-0.5,0.2
			c-3.4,1.5-5.7,5-5.7,8.7c0,0.4,0.3,0.7,0.7,0.7c0.4,0,0.7-0.3,0.7-0.7C43.4,53.8,47,50.2,51.5,50.2z M51.5,48.7
			c-2.8,0-5.1-2.3-5.1-5.1c0-2.8,2.3-5.1,5.1-5.1c2.8,0,5.1,2.3,5.1,5.1C56.6,46.4,54.3,48.7,51.5,48.7z"/>
	</g>
	<g>
		<path class="st0" d="M30.5,0c0,0-0.1,0-0.1,0c-5.2,0.1-9.4,4.4-9.3,9.6c0,2.4,1,4.7,2.7,6.4c1.2,1.3,1.9,3,1.9,4.7v1.2
			c0,2.3,1.9,4.2,4.2,4.2h1.2c2.3,0,4.2-1.9,4.2-4.2v-1.2c0-1.7,0.7-3.4,1.9-4.7c1.7-1.8,2.7-4.1,2.7-6.6c0-2.5-1-4.9-2.8-6.7
			C35.3,1,33,0,30.5,0z M31.1,24.7h-1.2c-1.5,0-2.8-1.2-2.8-2.8v-0.5h6.7v0.5C33.9,23.5,32.6,24.7,31.1,24.7z M33.9,20h-2.7v-6.7
			l3.3-3.3c0.3-0.3,0.3-0.8,0-1c-0.3-0.3-0.8-0.3-1,0l-3,3l-3-3c-0.3-0.3-0.8-0.3-1,0c-0.1,0.1-0.2,0.3-0.2,0.5
			c0,0.2,0.1,0.4,0.2,0.5l3.3,3.3V20h-2.7l0-0.3c-0.2-1.8-1-3.4-2.3-4.7c-1.4-1.5-2.2-3.4-2.2-5.4c-0.1-4.4,3.5-8,7.8-8.1l0.1,0
			c2.1,0,4.1,0.8,5.6,2.3c1.5,1.5,2.4,3.5,2.4,5.7c0,2.1-0.8,4.1-2.2,5.6l0,0c-1.3,1.3-2,2.9-2.3,4.7L33.9,20z"/>
	</g>
	<g>
		<path class="st0" d="M19.5,26.9c-0.2,0-0.4,0.1-0.5,0.2l-6.5,6.5c-0.3,0.3-0.3,0.8,0,1c0.3,0.3,0.8,0.3,1,0l6.5-6.5
			c0.3-0.3,0.3-0.8,0-1C19.9,26.9,19.7,26.9,19.5,26.9z"/>
	</g>
	<g>
		<path class="st0" d="M41.5,26.9c-0.2,0-0.4,0.1-0.5,0.2c-0.1,0.1-0.2,0.3-0.2,0.5c0,0.2,0.1,0.4,0.2,0.5l6.5,6.5
			c0.3,0.3,0.8,0.3,1,0c0.1-0.1,0.2-0.3,0.2-0.5c0-0.2-0.1-0.4-0.2-0.5L42,27.1C41.9,26.9,41.7,26.9,41.5,26.9z"/>
	</g>
	<g>
		<path class="st0" d="M30.5,29.4c-0.4,0-0.7,0.3-0.7,0.7v4.1c0,0.4,0.3,0.7,0.7,0.7s0.7-0.3,0.7-0.7v-4.1
			C31.2,29.8,30.9,29.4,30.5,29.4z"/>
	</g>
	<g>
		<path class="st0" d="M30.5,50.2c4.5,0,8.1,3.6,8.1,8.1c0,0.4,0.3,0.7,0.7,0.7c0.4,0,0.7-0.3,0.7-0.7c0-3.8-2.2-7.2-5.7-8.7
			l-0.5-0.2l0.5-0.3c1.7-1.2,2.8-3.2,2.8-5.4c0-3.6-3-6.6-6.6-6.6s-6.6,3-6.6,6.6c0,2.1,1,4.1,2.8,5.4l0.5,0.3l-0.5,0.2
			c-3.4,1.5-5.7,5-5.7,8.7c0,0.4,0.3,0.7,0.7,0.7c0.4,0,0.7-0.3,0.7-0.7C22.4,53.8,26,50.2,30.5,50.2z M30.5,48.7
			c-2.8,0-5.1-2.3-5.1-5.1c0-2.8,2.3-5.1,5.1-5.1c2.8,0,5.1,2.3,5.1,5.1C35.6,46.4,33.3,48.7,30.5,48.7z"/>
	</g>
	<g>
		<path class="st0" d="M9.5,50.2c4.5,0,8.1,3.6,8.1,8.1c0,0.4,0.3,0.7,0.7,0.7c0.4,0,0.7-0.3,0.7-0.7c0-3.8-2.2-7.2-5.7-8.7
			l-0.5-0.2l0.5-0.3c1.7-1.2,2.8-3.2,2.8-5.4c0-3.6-3-6.6-6.6-6.6S3,39.9,3,43.6c0,2.1,1,4.1,2.8,5.4l0.5,0.3l-0.5,0.2
			c-3.4,1.5-5.7,5-5.7,8.7C0,58.7,0.3,59,0.7,59s0.7-0.3,0.7-0.7C1.5,53.8,5.1,50.2,9.5,50.2z M9.5,48.7c-2.8,0-5.1-2.3-5.1-5.1
			c0-2.8,2.3-5.1,5.1-5.1s5.1,2.3,5.1,5.1C14.7,46.4,12.4,48.7,9.5,48.7z"/>
	</g>
</g>
</svg>
