<?xml version="1.0" encoding="utf-8"?>
<!-- Generator: Adobe Illustrator 21.1.0, SVG Export Plug-In . SVG Version: 6.00 Build 0)  -->
<svg version="1.1" id="レイヤー_1" xmlns="http://www.w3.org/2000/svg" xmlns:xlink="http://www.w3.org/1999/xlink" x="0px"
	 y="0px" width="58px" height="58px" viewBox="0 0 58 58" style="enable-background:new 0 0 58 58;" xml:space="preserve">
<style type="text/css">
	.st0{fill:#FFFFFF;}
</style>
<g>
	<g>
		<path class="st0" d="M28.4,30.6H58V4.7h-5.1V25h1.3V6h2.5v23.3h-2.5v-1.8h-1.3v1.8h-2.5v-18h-5.1v18h-2.5V14.2h-5.1v15.1h-2.5V17
			h-5.1v12.3h-1.9C28.4,29.3,28.4,30.6,28.4,30.6z M49.1,29.3h-2.5V12.6h2.5V29.3z M41.6,29.3h-2.5V15.5h2.5V29.3z M34,29.3h-2.5
			v-11H34V29.3z"/>
	</g>
	<g>
		<path class="st0" d="M8.5,39.7v13.9c0,2.4,2,4.4,4.4,4.4s4.4-2,4.4-4.4V39.7h-1.9v-4.6l0.2-0.1c5.9-1.3,10.2-6.6,10.2-12.6
			c0-1.9-0.4-3.8-1.3-5.6l-0.1-0.3l0.3-0.1c7.8-2.6,14.4-7.5,19.1-14.3l0.5-0.8V6h1.3V0h-6v1.3h3.2l-0.3,0.5
			c-4.6,6.5-11,11.1-18.6,13.5l-0.2,0.1l-0.1-0.2c-2.4-3.6-6.4-5.7-10.7-5.7C5.8,9.5,0,15.3,0,22.4c0,6,4.3,11.3,10.2,12.6l0.2,0.1
			v4.6H8.5z M12.9,56.7c-1.7,0-3.1-1.4-3.1-3.1V41h6.3v12.6C16.1,55.3,14.7,56.7,12.9,56.7z M14.2,39.7h-2.5v-4.5l0.4,0
			c0.6,0,1.1,0,1.6,0l0.4,0V39.7z M12.9,34C6.5,34,1.3,28.8,1.3,22.4s5.2-11.6,11.6-11.6c3.7,0,7.1,1.7,9.3,4.6l0.3,0.4L22,15.9
			c-0.7,0.2-1.3,0.3-2.1,0.5l-0.2,0l-0.1-0.1c-1.7-1.9-4.2-3-6.8-3c-5,0-9.2,4.1-9.2,9.2s4.1,9.2,9.2,9.2s9.2-4.1,9.2-9.2
			c0-1.6-0.4-3.2-1.2-4.5l-0.2-0.4l0.4-0.1c0.7-0.1,1.3-0.3,1.9-0.5l0.2-0.1l0.1,0.2c0.9,1.7,1.3,3.4,1.3,5.3
			C24.6,28.8,19.4,34,12.9,34z M12.9,30.2c-4.3,0-7.9-3.5-7.9-7.9s3.5-7.9,7.9-7.9c1.8,0,3.4,0.6,4.8,1.7l0.6,0.4l-0.7,0.1
			c-1.5,0.2-2.9,0.3-4.4,0.3v1.3c1.9,0,3.9-0.2,5.9-0.5l0.2,0l0.1,0.2c0.9,1.3,1.4,2.9,1.4,4.5C20.8,26.7,17.3,30.2,12.9,30.2z"/>
	</g>
	<g>
		<path class="st0" d="M34,37.2h20.2v-1.3H34V37.2z"/>
	</g>
	<g>
		<path class="st0" d="M34,48.5h20.2v-1.3H34V48.5z"/>
	</g>
	<g>
		<path class="st0" d="M34,42.9h8.9v-1.3H34V42.9z"/>
	</g>
	<g>
		<path class="st0" d="M45.4,42.9h8.8v-1.3h-8.8V42.9z"/>
	</g>
	<g>
		<path class="st0" d="M34,54.2h8.9v-1.3H34V54.2z"/>
	</g>
	<g>
		<path class="st0" d="M45.4,54.2h8.8v-1.3h-8.8V54.2z"/>
	</g>
	<g>
		<path class="st0" d="M30.2,37.2h1.3v-1.3h-1.3V37.2z"/>
	</g>
	<g>
		<path class="st0" d="M30.2,42.9h1.3v-1.3h-1.3V42.9z"/>
	</g>
	<g>
		<path class="st0" d="M30.2,48.5h1.3v-1.3h-1.3V48.5z"/>
	</g>
	<g>
		<path class="st0" d="M30.2,54.2h1.3v-1.3h-1.3V54.2z"/>
	</g>
</g>
</svg>
