<?xml version="1.0" encoding="utf-8"?>
<!-- Generator: Adobe Illustrator 25.0.0, SVG Export Plug-In . SVG Version: 6.00 Build 0)  -->
<svg version="1.1" id="レイヤー_1" xmlns="http://www.w3.org/2000/svg" xmlns:xlink="http://www.w3.org/1999/xlink" x="0px"
	 y="0px" viewBox="0 0 61 59" style="enable-background:new 0 0 61 59;" xml:space="preserve">
<style type="text/css">
	.st0{fill-rule:evenodd;clip-rule:evenodd;fill:#E8E8E8;}
</style>
<g>
	<polygon class="st0" points="10.7,32.3 10.7,19.2 3.9,26.1 3.2,25.5 3.2,32.3 10.7,32.3 10.7,32.3 	"/>
	<polygon class="st0" points="19.7,32.3 19.7,21.4 14.3,15.5 12.2,17.4 12.2,32.3 19.7,32.3 19.7,32.3 	"/>
	<polygon class="st0" points="28.5,32.3 28.5,18.1 22.1,24 21,22.8 21,32.3 28.5,32.3 28.5,32.3 	"/>
	<polygon class="st0" points="37.5,32.3 37.5,9.9 30,16.9 30,32.3 37.5,32.3 37.5,32.3 	"/>
	<path class="st0" d="M37.3,2.4C22.5,16,22.5,16,22.5,16c-7-7.2-7-7.2-7-7.2c-0.4-0.4-0.7-0.5-1.3-0.5c-0.4,0-0.9,0.2-1.1,0.5
		c-10,10-10,10-10,10c0,3.6,0,3.6,0,3.6C3.9,23,3.9,23,3.9,23c10.4-10.6,10.4-10.6,10.4-10.6c7,7,7,7,7,7c0.5,0.7,1.6,0.7,2.3,0.2
		C37.5,6.7,37.5,6.7,37.5,6.7c0-4.1,0-4.1,0-4.1L37.3,2.4L37.3,2.4L37.3,2.4z"/>
</g>
<g>
	<path class="st0" d="M55,23.1c-3.2,0-5.3,2.5-5.3,5.3c0,1.4,0.7,2.8,1.8,3.9c-6.7,9.9-6.7,9.9-6.7,9.9c-0.4-0.4-1.1-0.7-1.8-0.7
		c-2.1,0-3.9,1.4-4.6,2.8c-3.9-2.1-3.9-2.1-3.9-2.1c0.4-0.4,0.4-1.1,0.4-1.8c0-3.2-2.5-5.3-5.3-5.3s-5.3,2.1-5.3,5.3
		c0,1.4,0.7,2.8,1.8,3.9C23.2,48,23.2,48,23.2,48c-0.7-0.4-1.8-0.7-2.8-0.7c-3.2,0-5.3,2.1-5.3,5.3c0,2.8,2.1,5.3,5.3,5.3
		c2.8,0,5.3-2.5,5.3-5.3c0-1.4-0.7-2.5-1.4-3.5c2.8-3.9,2.8-3.9,2.8-3.9c0.7,0.4,1.8,0.7,2.5,0.7c1.8,0,3.5-1.1,4.2-2.5
		c3.9,2.5,3.9,2.5,3.9,2.5c0,0.4,0,0.7,0,1.4c0,2.8,2.1,5.3,5.3,5.3c2.8,0,5.3-2.5,5.3-5.3c0-1.8-1.1-3.5-2.1-4.3
		c6.4-9.9,6.4-9.9,6.4-9.9c0.7,0.4,1.4,0.7,2.5,0.7c2.8,0,5.3-2.5,5.3-5.3C60.3,25.6,57.8,23.1,55,23.1L55,23.1z M20.4,55
		c-1.4,0-2.8-1.1-2.8-2.5c0-1.8,1.4-2.8,2.8-2.8s2.5,1.1,2.5,2.8C22.9,54,21.8,55,20.4,55L20.4,55z M29.6,43c-1.4,0-2.5-1.1-2.5-2.5
		c0-1.4,1.1-2.8,2.5-2.8s2.8,1.4,2.8,2.8C32.4,41.9,31,43,29.6,43L29.6,43z M43,49.7c-1.4,0-2.8-1.1-2.8-2.5c0-1.8,1.4-2.8,2.8-2.8
		s2.5,1.1,2.5,2.8C45.5,48.7,44.4,49.7,43,49.7L43,49.7z M55,30.9c-1.8,0-2.8-1.1-2.8-2.5c0-1.4,1.1-2.8,2.8-2.8
		c1.4,0,2.5,1.4,2.5,2.8C57.5,29.9,56.4,30.9,55,30.9L55,30.9z"/>
</g>
</svg>
