<?xml version="1.0" encoding="utf-8"?>
<!-- Generator: Adobe Illustrator 25.0.0, SVG Export Plug-In . SVG Version: 6.00 Build 0)  -->
<svg version="1.1" id="レイヤー_1" xmlns="http://www.w3.org/2000/svg" xmlns:xlink="http://www.w3.org/1999/xlink" x="0px"
	 y="0px" viewBox="0 0 61 59" style="enable-background:new 0 0 61 59;" xml:space="preserve">
<style type="text/css">
	.st0{fill-rule:evenodd;clip-rule:evenodd;fill:#E8E8E8;}
</style>
<g>
	<path class="st0" d="M37.8,3c-10.7,0-19.1,8.3-19.1,19c0,3.2,0.8,6.3,2.4,8.7C7.6,44.2,7.6,44.2,7.6,44.2l0,0C6.8,45,6,46.5,6,48.1
		c0,3.2,2.4,5.5,5.6,5.5c1.6,0,3.2-0.8,4-1.6l0,0c13.5-13.5,13.5-13.5,13.5-13.5c2.4,1.6,5.6,2.4,8.8,2.4c10.7,0,19.1-8.3,19.1-19
		S48.5,3,37.8,3L37.8,3z M13.5,50.1c-0.4,0.4-1.2,0.8-2,0.8c-1.6,0-2.8-1.2-2.8-2.8c0-0.8,0.4-1.6,0.8-2l0,0
		c12.7-12.7,12.7-12.7,12.7-12.7c1.2,1.2,2.8,2.8,4,4L13.5,50.1L13.5,50.1L13.5,50.1z M37.8,37.8c-8.8,0-15.9-7.1-15.9-15.9
		c0-8.7,7.2-15.8,15.9-15.8S53.7,13.3,53.7,22C53.7,30.7,46.6,37.8,37.8,37.8L37.8,37.8z"/>
	<path class="st0" d="M37.7,10.9c-5.9,0-11,5.1-11,11c0,0.4,0.4,0.8,0.8,0.8s0.8-0.4,0.8-0.8c0-5.1,4.3-9.4,9.4-9.4
		c0.4,0,0.8-0.4,0.8-0.8C38.5,11.3,38.1,10.9,37.7,10.9L37.7,10.9z"/>
</g>
<g>
	<path class="st0" d="M48,45.9c0-0.8,0.7-1.5,1.5-1.5c0.8,0,1.5,0.7,1.5,1.5s-0.7,1.5-1.5,1.5C48.7,47.4,48,46.8,48,45.9L48,45.9z"
		/>
	<path class="st0" d="M54.1,40.9c0-0.6,0.5-1,1-1c0.6,0,1,0.5,1,1c0,0.6-0.5,1-1,1C54.6,41.9,54.1,41.5,54.1,40.9L54.1,40.9z"/>
	<path class="st0" d="M40.4,44.2c0-0.6,0.5-1,1-1s1,0.5,1,1c0,0.6-0.5,1-1,1S40.4,44.8,40.4,44.2L40.4,44.2z"/>
	<path class="st0" d="M56.7,45.9L56.7,45.9c1.6-1.6,2.1-3,1.6-4.1c-0.2-0.5-0.7-0.9-1.7-1.2c0,0.1,0,0.2,0,0.3
		c0,0.2-0.1,0.5-0.2,0.7c0.6,0.1,0.9,0.4,1,0.7c0.3,0.7-0.2,1.8-1.3,2.9L56,45.2c-0.8-0.6-1.7-1.2-2.7-1.8c-0.1-0.7-0.2-1.3-0.3-1.9
		c0.3-0.1,0.6-0.1,0.9-0.2c-0.1-0.1-0.1-0.3-0.1-0.5s0-0.3,0-0.5c-0.3,0.1-0.7,0.1-0.9,0.2c-0.2-0.5-0.3-0.9-0.5-1.4
		c-0.8-1.9-1.8-2.9-2.9-2.9c-1.2,0-2.3,1-3,2.9c-0.1,0.5-0.3,0.9-0.4,1.4c-0.8-0.1-1.4-0.2-2.1-0.2c-2.2,0-3,0.8-3.3,1.4
		c-0.2,0.4-0.3,0.9-0.2,1.3c0.3-0.2,0.6-0.4,0.9-0.4c0-0.2,0-0.4,0.1-0.6c0.2-0.6,1.1-0.9,2.5-0.9c0.6,0,1.1,0,1.9,0.2
		c-0.2,0.6-0.3,1.2-0.4,1.9c-0.9,0.6-1.8,1.2-2.6,1.8c-0.1,0-0.1-0.1-0.1-0.1C42.7,45,42.6,45,42.6,45c-0.2,0.3-0.5,0.5-0.8,0.6
		c0,0.1,0.1,0.2,0.2,0.3c0.1,0,0.1,0.1,0.2,0.1c-0.1,0.1-0.1,0.1-0.2,0.2c-1.4,1.4-2,2.8-1.4,3.9c0.3,0.7,1.1,1.5,3.3,1.5
		c0.7,0,1.3-0.1,2.1-0.3c0.1,0.6,0.3,1,0.4,1.4c0.8,2,1.8,3,3,3c0.7,0,1.2-0.4,1.8-1c-0.3-0.1-0.6-0.3-0.8-0.6
		c-0.4,0.5-0.7,0.7-1,0.7c-0.9,0-1.9-1.4-2.5-3.7c0.8-0.2,1.6-0.4,2.5-0.8c0.9,0.4,1.6,0.6,2.5,0.8c-0.1,0.4-0.2,0.6-0.3,0.9
		c0.4,0,0.7,0.2,0.9,0.4c0.1-0.4,0.2-0.7,0.3-1c0.8,0.2,1.4,0.3,2.1,0.3l0,0c2.2,0,3-0.9,3.3-1.5c0.5-1,0-2.5-1.5-3.9
		C56.8,46,56.7,46,56.7,45.9L56.7,45.9z M45.4,44.6c0,0.5,0,0.9,0,1.3s0,0.9,0,1.3c-0.7-0.4-1.2-0.9-1.8-1.3
		C44.2,45.5,44.7,45,45.4,44.6L45.4,44.6z M44,50.5c-1.3,0-2.3-0.4-2.5-0.9c-0.4-0.7,0.2-1.8,1.4-3c0.8,0.7,1.6,1.2,2.6,1.9
		c0.1,0.7,0.2,1.2,0.4,1.9C45.1,50.4,44.5,50.5,44,50.5L44,50.5z M52.3,42.9c-0.4-0.2-0.8-0.5-1.1-0.7c-0.2,0-0.3-0.1-0.4-0.1
		c0.5-0.2,0.9-0.3,1.3-0.4C52.2,42.1,52.3,42.5,52.3,42.9L52.3,42.9z M49.5,37.2c0.9,0,1.9,1.3,2.5,3.6c-0.9,0.2-1.6,0.5-2.5,0.8
		c-0.9-0.3-1.7-0.6-2.5-0.8C47.6,38.5,48.5,37.2,49.5,37.2L49.5,37.2z M46.7,41.7c0.5,0.1,0.9,0.2,1.4,0.4c-0.2,0-0.3,0.1-0.4,0.1
		c-0.4,0.2-0.9,0.5-1.2,0.7C46.6,42.5,46.7,42.1,46.7,41.7L46.7,41.7z M46.7,50.2c0-0.4-0.1-0.8-0.2-1.1c0.4,0.2,0.9,0.4,1.2,0.6
		c0.1,0.1,0.2,0.1,0.4,0.2C47.7,49.9,47.2,50.1,46.7,50.2L46.7,50.2z M52.1,50.2c-0.4-0.1-0.9-0.3-1.3-0.4c0.1-0.1,0.2-0.1,0.4-0.2
		c0.4-0.2,0.8-0.4,1.1-0.6C52.3,49.4,52.2,49.8,52.1,50.2L52.1,50.2z M52.5,47.9c-0.6,0.3-1.1,0.6-1.7,0.9c-0.5,0.2-0.9,0.4-1.3,0.6
		c-0.5-0.2-0.9-0.4-1.3-0.6c-0.6-0.3-1.1-0.6-1.7-0.9c-0.1-0.7-0.1-1.3-0.1-2s0-1.3,0.1-1.9c0.6-0.3,1.1-0.6,1.7-0.9
		c0.5-0.3,0.9-0.5,1.3-0.6c0.4,0.1,0.9,0.3,1.3,0.6c0.6,0.3,1.1,0.6,1.7,0.9c0,0.6,0,1.2,0,1.9S52.5,47.2,52.5,47.9L52.5,47.9z
		 M53.5,44.6c0.7,0.5,1.3,0.9,1.8,1.3c-0.6,0.5-1.1,0.9-1.8,1.3c0-0.4,0-0.9,0-1.3S53.5,45,53.5,44.6L53.5,44.6z M57.4,49.6
		c-0.3,0.6-1.1,0.9-2.5,0.9l0,0c-0.6,0-1.2-0.1-1.9-0.2c0.1-0.7,0.2-1.2,0.3-1.9c0.9-0.7,1.9-1.2,2.7-1.9
		C57.2,47.8,57.7,48.9,57.4,49.6L57.4,49.6z"/>
	<path class="st0" d="M50.6,53.3c0-0.6,0.5-1,1-1c0.6,0,1,0.5,1,1c0,0.6-0.5,1-1,1C51.1,54.3,50.6,53.8,50.6,53.3L50.6,53.3z"/>
</g>
<g>
	<path class="st0" d="M18.7,7.9V3.8h-2.3v2.4l-3.7-2.7l-9.2,7.1l1.5,1.9l0.9-0.6v8.7h13.7v-8.7l0.9,0.6l1.4-1.9L18.7,7.9L18.7,7.9
		L18.7,7.9z M18.2,19.3h-3v-5.1h-4.8v5.1H7.4V11l5.3-4.2l5.4,4.2V19.3L18.2,19.3L18.2,19.3z"/>
</g>
</svg>
