<?xml version="1.0" encoding="utf-8"?>
<!-- Generator: Adobe Illustrator 21.1.0, SVG Export Plug-In . SVG Version: 6.00 Build 0)  -->
<svg version="1.1" id="レイヤー_1" xmlns="http://www.w3.org/2000/svg" xmlns:xlink="http://www.w3.org/1999/xlink" x="0px"
	 y="0px" width="60px" height="60px" viewBox="0 0 60 60" style="enable-background:new 0 0 60 60;" xml:space="preserve">
<style type="text/css">
	.st0{fill:#FFFFFF;}
</style>
<g>
	<g>
		<path class="st0" d="M20.2,15.6h12.5v-1.4H20.2V15.6z"/>
	</g>
	<g>
		<path class="st0" d="M35.3,15.6h4.5v-1.4h-4.5V15.6z"/>
	</g>
	<g>
		<path class="st0" d="M0.7,8.1C0.3,8.1,0,8.4,0,8.8v42.4c0,0.4,0.3,0.7,0.7,0.7h54.5c2.6,0,4.8-2.1,4.8-4.8V4.8
			C60,2.1,57.9,0,55.2,0h-2c-0.4,0-0.7,0.3-0.7,0.7v7.4C52.5,8.1,0.7,8.1,0.7,8.1z M55.2,50.5H1.4v-41h51.1v33.6
			c0,0.4,0.3,0.7,0.7,0.7h2c1.8,0,3.3,1.5,3.3,3.3C58.6,49,57.1,50.5,55.2,50.5z M58.6,43.7l-0.5-0.4c-0.8-0.6-1.8-1-2.9-1h-1.3v-41
			h1.3c1.8,0,3.3,1.5,3.3,3.3V43.7z"/>
	</g>
	<g>
		<path class="st0" d="M37.1,32.3c-0.4,0-0.7,0.3-0.7,0.7v6.1c0,0.4,0.3,0.7,0.7,0.7h12.1c0.4,0,0.7-0.3,0.7-0.7V33
			c0-0.4-0.3-0.7-0.7-0.7h-5.3V29c0-0.4-0.3-0.7-0.7-0.7H30.7v-2.6h5.3c0.4,0,0.7-0.3,0.7-0.7v-6.1c0-0.4-0.3-0.7-0.7-0.7H23.9
			c-0.4,0-0.7,0.3-0.7,0.7V25c0,0.4,0.3,0.7,0.7,0.7h5.3v2.6H16.9c-0.4,0-0.7,0.3-0.7,0.7v3.3h-5.3c-0.4,0-0.7,0.3-0.7,0.7v6.1
			c0,0.4,0.3,0.7,0.7,0.7h12.1c0.4,0,0.7-0.3,0.7-0.7V33c0-0.4-0.3-0.7-0.7-0.7h-5.3v-2.6h24.8v2.6H37.1z M48.5,38.4H37.8v-4.6h10.7
			V38.4z M22.2,38.4H11.5v-4.6h10.7C22.2,33.7,22.2,38.4,22.2,38.4z M35.3,24.2H24.7v-4.6h10.7C35.3,19.6,35.3,24.2,35.3,24.2z"/>
	</g>
	<g>
		<path class="st0" d="M10.1,43.8h3.5v-1.4h-3.5V43.8z"/>
	</g>
	<g>
		<path class="st0" d="M16.2,43.8h7.5v-1.4h-7.5C16.2,42.4,16.2,43.8,16.2,43.8z"/>
	</g>
	<g>
		<path class="st0" d="M26,54.5c-0.1,0-0.3,0-0.4,0.1l-3,2c-0.3,0.2-0.4,0.7-0.2,1c0.1,0.1,0.1,0.1,0.2,0.2l3,2
			C25.7,60,25.8,60,26,60h23.2c0.4,0,0.7-0.3,0.7-0.7v-4c0-0.4-0.3-0.7-0.7-0.7C49.2,54.5,26,54.5,26,54.5z M48.5,58.6h-2.6V56h2.6
			V58.6z M44.4,58.6H26.2l-2-1.3l2-1.3h18.3C44.4,56,44.4,58.6,44.4,58.6z"/>
	</g>
	<g>
		<path class="st0" d="M36.4,43.8h7.5v-1.4h-7.5V43.8z"/>
	</g>
	<g>
		<path class="st0" d="M46.4,43.8h3.5v-1.4h-3.5V43.8z"/>
	</g>
</g>
</svg>
