<?xml version="1.0" encoding="utf-8"?>
<!-- Generator: Adobe Illustrator 22.1.0, SVG Export Plug-In . SVG Version: 6.00 Build 0)  -->
<svg version="1.1" id="レイヤー_1" xmlns="http://www.w3.org/2000/svg" xmlns:xlink="http://www.w3.org/1999/xlink" x="0px"
	 y="0px" width="115px" height="12px" viewBox="0 0 115 12" style="enable-background:new 0 0 115 12;" xml:space="preserve">
<style type="text/css">
	.st0{fill:#A4ADBC;}
</style>
<g>
	<path class="st0" d="M2.95213,0.25819c0.66282,0,1.95062,0,2.91719,0.72321c0.69776,0.51638,1.10923,1.41187,1.10923,2.376
		c0,1.48051-1.01995,2.08326-1.34214,2.25554c0.78704,0.12046,1.25286,0.44728,1.55661,0.72275
		c0.7162,0.65458,0.85885,1.54961,0.85885,2.15236c0,0.67139-0.197,1.61824-1.01995,2.32418
		c-0.89476,0.75729-1.98555,0.92958-3.02394,0.92958H0V0.25819H2.95213z M2.32618,5.02747h0.66185
		c0.3581,0,1.80796-0.03455,1.80796-1.49778c0-1.0505-0.84139-1.44642-1.78952-1.44642H2.32618V5.02747z M2.32618,9.91674h1.00248
		c0.42894,0,1.07332-0.01727,1.59252-0.31001c0.57257-0.32682,0.73269-0.87775,0.73269-1.3255
		c0-0.36137-0.12519-0.9814-0.87632-1.30823C4.2768,6.74889,3.68579,6.74889,3.18504,6.74889H2.32618V9.91674z"/>
	<path class="st0" d="M13.64946,0.25819c1.64589,0,2.48728,0.4132,3.04141,0.86094c0.91223,0.74049,1.18104,1.72189,1.18104,2.58237
		c0,1.11913-0.46485,2.10054-1.39552,2.70329c-0.30472,0.20637-0.73366,0.39592-1.30623,0.49911l3.7217,4.83791h-2.89875
		l-3.18504-4.61427h-0.28628v4.61427h-2.32618V0.25819H13.64946z M12.52179,5.54385h0.66185
		c0.44738,0,2.29028-0.05182,2.29028-1.7387c0-1.70461-1.82446-1.72189-2.25437-1.72189h-0.69776V5.54385z"/>
	<path class="st0" d="M27.53086,9.33126H22.7174l-1.05489,2.41055h-2.52319l5.13468-11.48362h1.82543l4.99203,11.48362h-2.50475
		L27.53086,9.33126z M26.85057,7.50665l-1.69927-4.13197l-1.70024,4.13197H26.85057z"/>
	<path class="st0" d="M32.4831,11.74181V0.25819h1.61096l7.26386,7.66166V0.25819h2.32618v11.48362h-1.60999l-7.26483-7.67847
		v7.67847H32.4831z"/>
	<path class="st0" d="M49.51266,0.25819c1.66433,0,3.11322,0.17228,4.4379,1.11913c1.44889,1.0505,2.29028,2.7201,2.29028,4.63155
		c0,1.91098-0.82294,3.56377-2.39799,4.63108c-1.39552,0.94685-2.70175,1.10186-4.36511,1.10186h-3.07829V0.25819H49.51266z
		 M48.72562,9.81356h0.71619c0.59004,0,1.8788-0.03455,2.91622-0.75776c0.94814-0.65411,1.4848-1.82461,1.4848-3.04692
		c0-1.20551-0.51823-2.376-1.46733-3.06466c-0.9656-0.68866-2.14665-0.75776-2.93369-0.75776h-0.71619V9.81356z"/>
	<path class="st0" d="M60.71075,0.25819v11.48362h-2.32618V0.25819H60.71075z"/>
	<path class="st0" d="M63.42803,11.74181V0.25819h1.61095l7.26386,7.66166V0.25819h2.32619v11.48362h-1.60999l-7.26483-7.67847
		v7.67847H63.42803z"/>
	<path class="st0" d="M83.39225,5.59567h5.47531v0.13773c0,0.77457-0.10772,3.18512-1.75362,4.75154
		C85.87953,11.67318,84.35883,12,82.87305,12c-1.48479,0-3.02394-0.29274-4.3292-1.54961
		c-0.41245-0.39592-1.77206-1.84188-1.77206-4.42471c0-2.22053,1.03839-3.58104,1.75362-4.26924
		C79.42017,0.87822,80.92341,0,83.23116,0c0.89476,0,1.8429,0.13773,2.7561,0.60275c0.7686,0.37865,1.60999,1.06731,2.23593,2.10054
		l-2.02146,1.05003c-0.41148-0.77457-1.01995-1.17049-1.39552-1.36005c-0.50172-0.24092-1.12767-0.36137-1.6818-0.36137
		c-0.9491,0-2.02243,0.32682-2.7561,1.01549c-0.67932,0.6373-1.19851,1.73916-1.19851,3.03011
		c0,1.53233,0.67931,2.44463,1.18104,2.90966c0.53667,0.49911,1.37708,0.9814,2.64838,0.9814
		c0.78704,0,1.6818-0.20683,2.34365-0.68866c0.46485-0.34456,0.93067-0.92958,1.1267-1.75597h-3.07732V5.59567z"/>
	<path class="st0" d="M97.50462,0.25819V7.4721c0,0.87822,0.30472,1.41187,0.57256,1.70461
		c0.33966,0.39592,0.96658,0.79185,1.89725,0.79185c0.9297,0,1.55661-0.39592,1.89627-0.79185
		c0.26785-0.29274,0.57256-0.8264,0.57256-1.70461V0.25819h2.32619v7.02436c0,1.08505-0.17953,2.18691-0.89476,3.06466
		C103.01584,11.4318,101.5126,12,99.97443,12c-1.53915,0-3.04238-0.5682-3.90124-1.65279
		c-0.71523-0.87775-0.89476-1.97961-0.89476-3.06466V0.25819H97.50462z"/>
	<path class="st0" d="M113.3541,2.87511c-0.69775-0.89503-1.5207-0.9814-1.95061-0.9814c-1.25285,0-1.64589,0.75776-1.64589,1.34324
		c0,0.27547,0.08928,0.53365,0.37556,0.77457c0.28629,0.25819,0.68029,0.39592,1.43142,0.65411
		c0.93067,0.31002,1.80699,0.62003,2.41547,1.15368C114.51672,6.28434,115,7.05891,115,8.2294
		C115,10.46767,113.3182,12,110.84936,12c-2.20099,0-3.48975-1.29142-4.1157-2.16917l1.52071-1.3946
		c0.57256,1.11913,1.66433,1.53233,2.50475,1.53233c1.05585,0,1.8429-0.62003,1.8429-1.58416
		c0-0.4132-0.14266-0.74002-0.46485-1.03276c-0.44738-0.39592-1.16261-0.62003-1.8429-0.84367
		c-0.62595-0.20683-1.37804-0.4823-1.98652-0.99868c-0.39304-0.32682-0.94814-0.96413-0.94814-2.13462
		C107.3596,1.68734,108.54064,0,111.18902,0c0.75114,0,2.16508,0.13773,3.38107,1.34277L113.3541,2.87511z"/>
</g>
</svg>
