<?xml version="1.0" encoding="utf-8"?>
<!-- Generator: Adobe Illustrator 22.1.0, SVG Export Plug-In . SVG Version: 6.00 Build 0)  -->
<svg version="1.1" id="レイヤー_1" xmlns="http://www.w3.org/2000/svg" xmlns:xlink="http://www.w3.org/1999/xlink" x="0px"
	 y="0px" width="86px" height="12px" viewBox="0 0 86 12" style="enable-background:new 0 0 86 12;" xml:space="preserve">
<style type="text/css">
	.st0{fill:#A4ADBC;}
</style>
<g>
	<path class="st0" d="M9.23578,11.32861C8.51981,11.68999,7.57133,12,6.28258,12c-2.09452,0-3.36531-0.68866-4.36767-1.60096
		C0.53686,9.12489,0,7.69574,0,6.00887c0-2.08326,0.8946-3.58104,1.91492-4.49381C3.11435,0.43047,4.59969,0,6.30054,0
		c0.84121,0,1.84356,0.13773,2.93524,0.70594v2.61692C8.14411,2.11781,6.78352,2.0319,6.35394,2.0319
		c-2.39838,0-3.95556,1.8937-3.95556,4.01105c0,2.54828,2.04015,3.92561,4.04487,3.92561c1.11012,0,2.09452-0.46502,2.79253-1.25687
		V11.32861z"/>
	<path class="st0" d="M23.5518,6.00887C23.5518,9.50354,20.93839,12,17.17942,12s-6.37238-2.49646-6.37238-5.99113
		C10.80704,2.51373,13.42045,0,17.17942,0S23.5518,2.51373,23.5518,6.00887z M21.15294,6.00887
		c0-2.32418-1.64649-3.97697-3.97352-3.97697S13.2059,3.68469,13.2059,6.00887s1.64649,3.95969,3.97352,3.95969
		S21.15294,8.33305,21.15294,6.00887z"/>
	<path class="st0" d="M27.30592,0.25819h1.68241l3.16823,7.29982l3.31143-7.29982h1.6829l2.00472,11.48362h-2.36295
		l-1.07371-7.07618l-3.20415,7.07618h-0.78781l-3.06047-7.07618l-1.21739,7.07618h-2.36246L27.30592,0.25819z"/>
	<path class="st0" d="M44.73532,0.25819c1.34262,0,2.27314,0.13773,3.15027,0.87822c0.96644,0.82639,1.2174,1.94553,1.2174,2.77192
		c0,0.44775-0.07184,1.68734-0.9844,2.56509c-0.66257,0.6373-1.64697,1.01595-3.02504,1.01595h-1.50378v4.25243h-2.32654V0.25819
		H44.73532z M43.58977,5.56112h0.94896c0.44754,0,1.02032,0,1.52126-0.36184c0.42958-0.32682,0.64462-0.8432,0.64462-1.34277
		c0-0.63684-0.32231-1.06731-0.66258-1.30822c-0.48298-0.32729-1.09167-0.36184-1.64649-0.36184h-0.80577V5.56112z"/>
	<path class="st0" d="M57.88831,9.33126h-4.81472l-1.05624,2.41055h-2.52361l5.13703-11.48362h1.82561l4.99384,11.48362h-2.50566
		L57.88831,9.33126z M57.20778,7.50665l-1.69989-4.13197l-1.70037,4.13197H57.20778z"/>
	<path class="st0" d="M62.84235,11.74181V0.25819h1.61154l7.26649,7.66166V0.25819h2.32703v11.48362h-1.61057l-7.26747-7.67847
		v7.67847H62.84235z"/>
	<path class="st0" d="M79.46646,6.4907l-4.09875-6.23251h2.75709l2.55905,3.99424l2.56002-3.99424H86L81.79349,6.4907v5.25111
		h-2.32703V6.4907z"/>
</g>
</svg>
