<?xml version="1.0" encoding="utf-8"?>
<!-- Generator: Adobe Illustrator 22.1.0, SVG Export Plug-In . SVG Version: 6.00 Build 0)  -->
<svg version="1.1" id="レイヤー_1" xmlns="http://www.w3.org/2000/svg" xmlns:xlink="http://www.w3.org/1999/xlink" x="0px"
	 y="0px" width="104px" height="12px" viewBox="0 0 104 12" style="enable-background:new 0 0 104 12;" xml:space="preserve">
<style type="text/css">
	.st0{fill:#A4ADBC;}
</style>
<g>
	<path class="st0" d="M3.47136,0.25819c1.34215,0,2.27235,0.13773,3.14916,0.87822C7.5871,1.9628,7.83748,3.08194,7.83748,3.90833
		c0,0.44775-0.07181,1.68734-0.98405,2.56509c-0.66234,0.6373-1.6464,1.01595-3.02397,1.01595H2.32621v4.25243H0V0.25819H3.47136z
		 M2.32621,5.56112h0.94863c0.4469,0,1.01947,0,1.52072-0.36184c0.42943-0.32682,0.6439-0.8432,0.6439-1.34277
		c0-0.63684-0.32171-1.06731-0.66186-1.30822C4.29431,2.22099,3.68632,2.18644,3.13169,2.18644H2.32621V5.56112z"/>
	<path class="st0" d="M11.87802,4.70018h5.04594V0.25819h2.32621v11.48362h-2.32621V6.62843h-5.04594v5.11338H9.5523V0.25819
		h2.32572V4.70018z"/>
	<path class="st0" d="M24.29174,0.25819v11.48362h-2.32621V0.25819H24.29174z"/>
	<path class="st0" d="M29.33622,0.25819v9.55537h3.68583v1.92825h-6.01204V0.25819H29.33622z"/>
	<path class="st0" d="M46.79782,6.00887c0,3.49467-2.6125,5.99113-6.37014,5.99113s-6.37014-2.49646-6.37014-5.99113
		C34.05754,2.51373,36.67003,0,40.42768,0S46.79782,2.51373,46.79782,6.00887z M44.3998,6.00887
		c0-2.32418-1.64591-3.97697-3.97212-3.97697s-3.97212,1.65279-3.97212,3.97697s1.64591,3.95969,3.97212,3.95969
		S44.3998,8.33305,44.3998,6.00887z"/>
	<path class="st0" d="M54.80901,2.87511c-0.69777-0.89503-1.52072-0.9814-1.95064-0.9814
		c-1.25287,0-1.64591,0.75776-1.64591,1.34324c0,0.27547,0.08928,0.53365,0.37557,0.77457
		c0.28629,0.25819,0.6803,0.39592,1.43144,0.65411c0.93068,0.31002,1.80701,0.62003,2.41549,1.15368
		c0.53667,0.46502,1.01996,1.23959,1.01996,2.41009c0,2.23827-1.68182,3.7706-4.15165,3.7706
		c-2.20005,0-3.48883-1.29142-4.11478-2.16917l1.52072-1.3946c0.57257,1.11913,1.66435,1.53233,2.50478,1.53233
		c1.05587,0,1.84291-0.62003,1.84291-1.58416c0-0.4132-0.14266-0.74002-0.46486-1.03276
		c-0.44738-0.39592-1.16262-0.62003-1.84291-0.84367c-0.62595-0.20683-1.37806-0.4823-1.98655-0.99868
		c-0.39304-0.32682-0.94814-0.96413-0.94814-2.13462C48.81445,1.68734,49.9955,0,52.64391,0
		c0.75114,0,2.16511,0.13773,3.38207,1.34277L54.80901,2.87511z"/>
	<path class="st0" d="M70.65964,6.00887C70.65964,9.50354,68.04714,12,64.2895,12s-6.37014-2.49646-6.37014-5.99113
		C57.91936,2.51373,60.53185,0,64.2895,0S70.65964,2.51373,70.65964,6.00887z M68.26161,6.00887
		c0-2.32418-1.6459-3.97697-3.97211-3.97697c-2.32621,0-3.97212,1.65279-3.97212,3.97697s1.64591,3.95969,3.97212,3.95969
		C66.61571,9.96856,68.26161,8.33305,68.26161,6.00887z"/>
	<path class="st0" d="M76.27281,0.25819c1.34216,0,2.27283,0.13773,3.14916,0.87822
		c0.96658,0.82639,1.21696,1.94553,1.21696,2.77192c0,0.44775-0.07182,1.68734-0.98405,2.56509
		c-0.66186,0.6373-1.6459,1.01595-3.02397,1.01595h-1.50325v4.25243h-2.32621V0.25819H76.27281z M75.12766,5.56112h0.94814
		c0.44739,0,1.01997,0,1.52169-0.36184c0.42895-0.32682,0.64342-0.8432,0.64342-1.34277c0-0.63684-0.3222-1.06731-0.66186-1.30822
		c-0.48329-0.32729-1.09177-0.36184-1.64591-0.36184h-0.80549V5.56112z"/>
	<path class="st0" d="M84.67996,4.70018h5.04642V0.25819h2.32523v11.48362h-2.32523V6.62843h-5.04642v5.11338h-2.32621V0.25819
		h2.32621V4.70018z"/>
	<path class="st0" d="M97.46877,6.4907l-4.09731-6.23251h2.75613l2.55815,3.99424l2.55912-3.99424H104L99.79497,6.4907v5.25111
		h-2.3262V6.4907z"/>
</g>
</svg>
