<?xml version="1.0" encoding="utf-8"?>
<!-- Generator: Adobe Illustrator 22.1.0, SVG Export Plug-In . SVG Version: 6.00 Build 0)  -->
<svg version="1.1" id="レイヤー_1" xmlns="http://www.w3.org/2000/svg" xmlns:xlink="http://www.w3.org/1999/xlink" x="0px"
	 y="0px" width="110px" height="12px" viewBox="0 0 110 12" style="enable-background:new 0 0 110 12;" xml:space="preserve">
<style type="text/css">
	.st0{fill:#A4ADBC;}
</style>
<g>
	<path class="st0" d="M5.90418,11.74181H4.15073L0,0.25819h2.46909l2.66559,7.81667l2.91594-7.91985h1.28864l2.75486,7.91985
		l2.86257-7.81667h2.46909l-4.41904,11.48362h-1.75345L8.64109,4.45926L5.90418,11.74181z"/>
	<path class="st0" d="M21.14181,4.70018h5.04541V0.25819h2.32596v11.48362h-2.32596V6.62843h-5.04541v5.11338h-2.32596V0.25819
		h2.32596V4.70018z"/>
	<path class="st0" d="M38.29542,9.33173H33.4829l-1.05576,2.41008h-2.52246l5.13468-11.48362h1.82477l4.99155,11.48362h-2.50451
		L38.29542,9.33173z M37.61568,7.50665l-1.6996-4.13197L34.2165,7.50665H37.61568z"/>
	<path class="st0" d="M47.00444,2.18644v9.55537h-2.32548V2.18644h-2.68402V0.25819h7.69305v1.92825H47.00444z"/>
	<path class="st0" d="M59.9001,11.74181h-1.75296L53.9964,0.25819h2.46861l2.66608,7.81667l2.91643-7.91985h1.28767l2.75535,7.91985
		l2.86257-7.81667h2.46909l-4.41904,11.48362h-1.75345l-2.61222-7.28255L59.9001,11.74181z"/>
	<path class="st0" d="M79.43159,2.18644h-4.29386V4.752h4.11531v1.92825h-4.11531v3.1333h4.29386v1.92825h-6.61983V0.25819h6.61983
		V2.18644z"/>
	<path class="st0" d="M88.96348,0.25819c1.66369,0,3.11292,0.17228,4.43699,1.11913c1.44923,1.0505,2.29005,2.72057,2.29005,4.63155
		s-0.82335,3.56377-2.39728,4.63108c-1.39587,0.94685-2.70198,1.10186-4.36567,1.10186h-3.07703V0.25819H88.96348z
		 M88.17603,9.81356h0.71564c0.59046,0,1.87862-0.03455,2.91643-0.7573c0.94804-0.65458,1.48515-1.82507,1.48515-3.04739
		c0-1.20551-0.51915-2.376-1.46719-3.06466c-0.96648-0.68866-2.14693-0.75776-2.93438-0.75776h-0.71564V9.81356z"/>
	<path class="st0" d="M110,6.00887C110,9.50354,107.38778,12,103.63053,12c-3.75726,0-6.36947-2.49646-6.36947-5.99113
		C97.26106,2.51373,99.87328,0,103.63053,0C107.38778,0,110,2.51373,110,6.00887z M107.60223,6.00887
		c0-2.32464-1.64574-3.97743-3.9717-3.97743c-2.32597,0-3.9717,1.65279-3.9717,3.97743c0,2.32418,1.64574,3.95969,3.9717,3.95969
		C105.95649,9.96856,107.60223,8.33305,107.60223,6.00887z"/>
</g>
</svg>
