<?xml version="1.0" encoding="utf-8"?>
<!-- Generator: Adobe Illustrator 21.1.0, SVG Export Plug-In . SVG Version: 6.00 Build 0)  -->
<svg version="1.1" id="レイヤー_1" xmlns="http://www.w3.org/2000/svg" xmlns:xlink="http://www.w3.org/1999/xlink" x="0px"
	 y="0px" width="186px" height="21px" viewBox="0 0 186 21" style="enable-background:new 0 0 186 21;" xml:space="preserve">
<style type="text/css">
	.st0{fill:#0C2041;}
</style>
<g>
	<g>
		<g>
			<g>
				<path class="st0" d="M12.5053,20.5252h2.9453V0.4748h-2.9453v8.7887H2.9456V0.4748H0v20.0504h2.9456v-8.7621h9.5597V20.5252z"/>
			</g>
		</g>
		<g>
			<g>
				<path class="st0" d="M21.8586,20.5252h11.4927l2.0846-2.4995h-8.4474l4.2623-4.8268c1.5791-1.7725,3.5411-3.974,3.5411-7.015
					C34.7918,3.1109,32.5136,0,28.1589,0c-3.5782,0-6.1847,2.4027-6.5632,6.0098h3.0706c0.2399-1.7838,1.442-3.5103,3.6748-3.5103
					c2.031,0,3.5049,1.5625,3.5049,3.7152c0,1.4745-0.7941,2.9339-1.2677,3.6727c-0.6638,1.0381-2.5748,3.337-3.2944,4.2021
					l-0.2044,0.247L21.8586,20.5252z"/>
			</g>
		</g>
		<g>
			<g>
				<path class="st0" d="M48.6823,0c-5.5952,0-9.5032,4.3243-9.5032,10.516c0,6.1728,3.908,10.484,9.5032,10.484
					c5.5957,0,9.5037-4.3113,9.5037-10.484C58.186,4.3243,54.278,0,48.6823,0z M48.6823,18.3108
					c-3.9674,0-6.7384-3.2055-6.7384-7.7949c0-4.5351,2.8338-7.8268,6.7384-7.8268s6.7389,3.2917,6.7389,7.8268
					C55.4212,15.1054,52.6502,18.3108,48.6823,18.3108z"/>
			</g>
		</g>
	</g>
	<g>
		<path class="st0" d="M70.574,8.5402c1.6207,0,2.4498,0.424,2.9955,0.8825c0.8989,0.7598,1.1632,1.766,1.1632,2.6485
			c0,1.1483-0.4586,2.1545-1.3747,2.7723c-0.2997,0.212-0.7218,0.4057-1.2857,0.5123l3.6646,4.9613h-2.8547l-3.1362-4.732h-0.2824
			v4.732h-2.2899V8.5402H70.574z M69.4635,13.961h0.6519c0.4414,0,2.2555-0.0527,2.2555-1.7832c0-1.7488-1.7969-1.766-2.22-1.766
			h-0.6874V13.961z"/>
		<path class="st0" d="M84.865,10.5182h-4.2285v2.6302h4.0523v1.978h-4.0523v3.2125h4.2285v1.978h-6.5194V8.5402h6.5194V10.5182z"/>
		<path class="st0" d="M96.6717,19.893c-0.7046,0.3713-1.639,0.6888-2.9074,0.6888c-2.0611,0-3.3123-0.706-4.2993-1.6423
			c-1.3565-1.3065-1.8849-2.7712-1.8849-4.5017c0-2.1362,0.8807-3.673,1.8849-4.6083c1.1804-1.1128,2.6432-1.554,4.3176-1.554
			c0.8281,0,1.8141,0.141,2.8892,0.7243v2.683c-1.0751-1.2355-2.4134-1.3237-2.8365-1.3237c-2.3617,0-3.8944,1.9425-3.8944,4.1143
			c0,2.613,2.0084,4.025,3.9825,4.025c1.0923,0,2.0611-0.4768,2.7485-1.2893V19.893z"/>
		<path class="st0" d="M103.2457,8.5402c1.6207,0,2.4498,0.424,2.9955,0.8825c0.8989,0.7598,1.1632,1.766,1.1632,2.6485
			c0,1.1483-0.4586,2.1545-1.3747,2.7723c-0.2996,0.212-0.7218,0.4057-1.2856,0.5123l3.6646,4.9613h-2.8548l-3.1362-4.732h-0.2824
			v4.732h-2.2899V8.5402H103.2457z M102.1352,13.961h0.6519c0.4414,0,2.2555-0.0527,2.2555-1.7832c0-1.7488-1.7969-1.766-2.22-1.766
			h-0.6874V13.961z"/>
		<path class="st0" d="M113.3082,8.5402v7.3978c0,0.9008,0.2997,1.4485,0.5639,1.7477c0.3351,0.4068,0.9516,0.8125,1.8677,0.8125
			s1.5327-0.4057,1.8677-0.8125c0.2642-0.2992,0.5639-0.847,0.5639-1.7477V8.5402h2.2909v7.204
			c0,1.1117-0.1761,2.2417-0.8807,3.1425c-0.8463,1.1128-2.3263,1.695-3.8418,1.695c-1.5154,0-2.9955-0.5822-3.8418-1.695
			c-0.7046-0.9008-0.8807-2.0308-0.8807-3.1425v-7.204H113.3082z"/>
		<path class="st0" d="M126.4896,8.5402V20.317h-2.2909V8.5402H126.4896z"/>
		<path class="st0" d="M133.9261,10.5182v9.7987h-2.2909v-9.7987h-2.6432v-1.978h7.5772v1.978H133.9261z"/>
		<path class="st0" d="M140.2876,8.5402h1.6562l3.119,7.486l3.2597-7.486h1.6572l1.973,11.7768h-2.3253l-1.0579-7.2568
			l-3.1544,7.2568h-0.7744l-3.0137-7.2568l-1.1986,7.2568h-2.3253L140.2876,8.5402z"/>
		<path class="st0" d="M161.6101,10.5182h-4.2295v2.6302h4.0533v1.978h-4.0533v3.2125h4.2295v1.978h-6.5194V8.5402h6.5194V10.5182z"
			/>
		<path class="st0" d="M164.889,20.317V8.5402h1.5853l7.1541,7.8573V8.5402h2.2909V20.317h-1.5863l-7.1541-7.8745v7.8745H164.889z"
			/>
		<path class="st0" d="M183.3568,10.5182v9.7987h-2.2909v-9.7987h-2.6432v-1.978H186v1.978H183.3568z"/>
	</g>
</g>
</svg>
