<?xml version="1.0" encoding="utf-8"?>
<!-- Generator: Adobe Illustrator 21.1.0, SVG Export Plug-In . SVG Version: 6.00 Build 0)  -->
<svg version="1.1" id="レイヤー_1" xmlns="http://www.w3.org/2000/svg" xmlns:xlink="http://www.w3.org/1999/xlink" x="0px"
	 y="0px" width="187px" height="21px" viewBox="0 0 187 21" style="enable-background:new 0 0 187 21;" xml:space="preserve">
<style type="text/css">
	.st0{fill:#FFFFFF;}
</style>
<g>
	<g>
		<g>
			<g>
				<path class="st0" d="M12.5082,20.5252h2.946V0.4748h-2.946v8.7887H2.9463V0.4748H0v20.0504h2.9463v-8.7621h9.5619V20.5252z"/>
			</g>
		</g>
		<g>
			<g>
				<path class="st0" d="M21.8636,20.5252H33.359l2.0851-2.4995h-8.4494l4.2633-4.8268c1.5795-1.7725,3.5419-3.974,3.5419-7.015
					C34.7999,3.1109,32.5212,0,28.1654,0c-3.5791,0-6.1861,2.4027-6.5647,6.0098h3.0713c0.24-1.7838,1.4424-3.5103,3.6756-3.5103
					c2.0315,0,3.5057,1.5625,3.5057,3.7152c0,1.4745-0.7943,2.9339-1.268,3.6727c-0.664,1.0381-2.5754,3.337-3.2951,4.2021
					l-0.2045,0.247L21.8636,20.5252z"/>
			</g>
		</g>
		<g>
			<g>
				<path class="st0" d="M48.6937,0c-5.5965,0-9.5054,4.3243-9.5054,10.516c0,6.1728,3.9089,10.484,9.5054,10.484
					c5.597,0,9.5059-4.3113,9.5059-10.484C58.1996,4.3243,54.2907,0,48.6937,0z M48.6937,18.3108c-3.9683,0-6.74-3.2055-6.74-7.7949
					c0-4.5351,2.8345-7.8268,6.74-7.8268s6.7405,3.2917,6.7405,7.8268C55.4341,15.1054,52.6624,18.3108,48.6937,18.3108z"/>
			</g>
		</g>
	</g>
	<g>
		<path class="st0" d="M70.607,8.4424c1.6353,0,2.4703,0.4275,3.0206,0.8902c0.9065,0.7654,1.1729,1.7799,1.1729,2.6701
			c0,1.1566-0.4614,2.1715-1.3863,2.7943c-0.3011,0.2137-0.7278,0.4096-1.2964,0.5164l3.6953,5.0016h-2.8776l-3.1635-4.7705h-0.2838
			v4.7705h-2.3101V8.4424H70.607z M69.4882,13.9067h0.6574c0.4441,0,2.2744-0.0532,2.2744-1.7978
			c0-1.762-1.813-1.7799-2.2386-1.7799h-0.6931V13.9067z"/>
		<path class="st0" d="M85.0177,10.436h-4.2639v2.6522H84.84v1.9936h-4.0863v3.2397h4.2639v1.9936h-6.574V8.4424h6.574V10.436z"/>
		<path class="st0" d="M96.9243,19.8881c-0.7115,0.3738-1.6527,0.6938-2.9328,0.6938c-2.0784,0-3.3401-0.7117-4.3354-1.6551
			c-1.3679-1.3171-1.9007-2.7948-1.9007-4.5394c0-2.1536,0.8881-3.7024,1.9007-4.6458c1.1913-1.1213,2.6653-1.5661,4.3537-1.5661
			c0.835,0,1.8303,0.1421,2.9144,0.7296v2.7059c-1.0841-1.2461-2.4346-1.335-2.8613-1.335c-2.3805,0-3.927,1.9578-3.927,4.1472
			c0,2.6343,2.0263,4.0583,4.0158,4.0583c1.1014,0,2.0794-0.4806,2.7725-1.2992V19.8881z"/>
		<path class="st0" d="M103.5524,8.4424c1.6353,0,2.4703,0.4275,3.0206,0.8902c0.9065,0.7654,1.1729,1.7799,1.1729,2.6701
			c0,1.1566-0.4614,2.1715-1.3863,2.7943c-0.3011,0.2137-0.7278,0.4096-1.2964,0.5164l3.6953,5.0016h-2.8776l-3.1635-4.7705h-0.2838
			v4.7705h-2.3101V8.4424H103.5524z M102.4336,13.9067h0.6574c0.444,0,2.2743-0.0532,2.2743-1.7978
			c0-1.762-1.8129-1.7799-2.2386-1.7799h-0.6931V13.9067z"/>
		<path class="st0" d="M113.6992,8.4424v7.4585c0,0.9076,0.3022,1.4593,0.5686,1.762c0.3369,0.4096,0.9596,0.8186,1.8834,0.8186
			s1.5455-0.409,1.8834-0.8186c0.2664-0.3027,0.5686-0.8544,0.5686-1.762V8.4424h2.3101v7.2627
			c0,1.1213-0.1776,2.2605-0.8891,3.1681c-0.8524,1.1213-2.3448,1.7088-3.8729,1.7088s-3.0206-0.5875-3.8739-1.7088
			c-0.7105-0.9076-0.8881-2.0468-0.8881-3.1681V8.4424H113.6992z"/>
		<path class="st0" d="M126.9911,8.4424V20.315h-2.3101V8.4424H126.9911z"/>
		<path class="st0" d="M134.4899,10.436v9.879h-2.3101v-9.879h-2.6653V8.4424h7.6407v1.9936H134.4899z"/>
		<path class="st0" d="M140.9046,8.4424h1.6711l3.1451,7.5475l3.287-7.5475h1.67l1.9895,11.8727h-2.3448l-1.0667-7.3158
			l-3.1798,7.3158h-0.7819l-3.0389-7.3158l-1.2076,7.3158h-2.3458L140.9046,8.4424z"/>
		<path class="st0" d="M162.4058,10.436h-4.2639v2.6522h4.0863v1.9936h-4.0863v3.2397h4.2639v1.9936h-6.574V8.4424h6.574V10.436z"/>
		<path class="st0" d="M165.7122,20.315V8.4424h1.5986l7.214,7.9212V8.4424h2.3101V20.315h-1.5986l-7.214-7.9386v7.9386H165.7122z"
			/>
		<path class="st0" d="M184.3347,10.436v9.879h-2.3101v-9.879h-2.6653V8.4424H187v1.9936H184.3347z"/>
	</g>
</g>
</svg>
