<svg id="logo" xmlns="http://www.w3.org/2000/svg" viewBox="0 0 55 19.068">
  <defs>
    <style>
      .cls-1 {
        fill: #0c2041;
      }
    </style>
  </defs>
  <g id="グループ化_2" data-name="グループ化 2" transform="translate(0 0.431)">
    <g id="グループ化_1" data-name="グループ化 1">
      <path id="パス_2" data-name="パス 2" class="cls-1" d="M11.821,19.128H14.6V.922H11.821V8.9H2.784V.922H0V19.128H2.784V11.172h9.036Z" transform="translate(0 -0.922)"/>
    </g>
  </g>
  <g id="グループ化_4" data-name="グループ化 4" transform="translate(20.413)">
    <g id="グループ化_3" data-name="グループ化 3">
      <path id="パス_3" data-name="パス 3" class="cls-1" d="M43.934,18.637H54.8l1.97-2.27H48.782l4.029-4.383c1.493-1.609,3.347-3.608,3.347-6.37,0-2.79-2.153-5.615-6.27-5.615a5.941,5.941,0,0,0-6.2,5.457h2.9A3.461,3.461,0,0,1,50.061,2.27a3.234,3.234,0,0,1,3.313,3.373,6.526,6.526,0,0,1-1.2,3.335c-.627.943-2.434,3.03-3.114,3.816l-.193.224Z" transform="translate(-43.685)"/>
    </g>
  </g>
  <g id="グループ化_6" data-name="グループ化 6" transform="translate(37.034)">
    <g id="グループ化_5" data-name="グループ化 5">
      <path id="パス_4" data-name="パス 4" class="cls-1" d="M88.237,0c-5.289,0-8.983,3.927-8.983,9.549,0,5.6,3.694,9.52,8.983,9.52s8.983-3.915,8.983-9.52C97.22,3.927,93.526,0,88.237,0Zm0,16.627c-3.75,0-6.369-2.911-6.369-7.078,0-4.118,2.679-7.107,6.369-7.107s6.37,2.989,6.37,7.107C94.607,13.716,91.987,16.627,88.237,16.627Z" transform="translate(-79.254)"/>
    </g>
  </g>
</svg>
