<?xml version="1.0" encoding="utf-8"?>
<!-- Generator: Adobe Illustrator 21.1.0, SVG Export Plug-In . SVG Version: 6.00 Build 0)  -->
<svg version="1.1" id="レイヤー_1" xmlns="http://www.w3.org/2000/svg" xmlns:xlink="http://www.w3.org/1999/xlink" x="0px"
	 y="0px" width="61px" height="58px" viewBox="0 0 61 58" style="enable-background:new 0 0 61 58;" xml:space="preserve">
<style type="text/css">
	.st0{fill:#FFFFFF;}
</style>
<g>
	<g>
		<path class="st0" d="M4.7,0C2.1,0,0,2.1,0,4.7v48.6C0,55.9,2.1,58,4.7,58h51.5c2.6,0,4.7-2.1,4.7-4.7V4.7C61,2.1,58.9,0,56.3,0
			H4.7z M56.3,56.7H4.7c-1.9,0-3.4-1.5-3.4-3.4V12.1h58.3v41.2C59.7,55.2,58.1,56.7,56.3,56.7z M59.7,10.8H1.3V4.7
			c0-1.9,1.5-3.4,3.4-3.4h51.5c1.9,0,3.4,1.5,3.4,3.4V10.8z"/>
	</g>
	<g>
		<ellipse class="st0" cx="6.8" cy="6.1" rx="1.4" ry="1.3"/>
		<path class="st0" d="M6.8,5.4c-0.4,0-0.7,0.3-0.7,0.7c0,0.4,0.3,0.7,0.7,0.7c0.4,0,0.7-0.3,0.7-0.7S7.1,5.4,6.8,5.4z"/>
	</g>
	<g>
		<ellipse class="st0" cx="12.2" cy="6.1" rx="1.4" ry="1.3"/>
		<path class="st0" d="M12.2,5.4c-0.4,0-0.7,0.3-0.7,0.7c0,0.4,0.3,0.7,0.7,0.7c0.4,0,0.7-0.3,0.7-0.7C12.9,5.7,12.6,5.4,12.2,5.4z"
			/>
	</g>
	<g>
		<ellipse class="st0" cx="17.6" cy="6.1" rx="1.4" ry="1.3"/>
		<path class="st0" d="M17.6,5.4c-0.4,0-0.7,0.3-0.7,0.7c0,0.4,0.3,0.7,0.7,0.7c0.4,0,0.7-0.3,0.7-0.7C18.3,5.7,18,5.4,17.6,5.4z"/>
	</g>
</g>
<g>
	<g>
		<g>
			<g>
				<path class="st0" d="M16.9,44.1h2.6v1.2c0,0.2,0.2,0.4,0.4,0.4c0.2,0,0.4-0.2,0.4-0.4v-4.9c0-1.1-0.9-2-2.1-2s-2.1,0.9-2.1,2
					v4.9c0,0.2,0.2,0.4,0.4,0.4c0.2,0,0.4-0.2,0.4-0.4C16.9,45.3,16.9,44.1,16.9,44.1z M19.5,43.3h-2.6v-2.8c0-0.7,0.6-1.2,1.3-1.2
					c0.7,0,1.3,0.5,1.3,1.2V43.3z"/>
				<path class="st0" d="M19.9,45.9c-0.3,0-0.6-0.2-0.6-0.5v-1.1h-2.2v1.1c0,0.3-0.3,0.5-0.6,0.5s-0.6-0.2-0.6-0.5v-4.9
					c0-1.2,1-2.2,2.3-2.2c1.3,0,2.3,1,2.3,2.2v4.9C20.5,45.6,20.2,45.9,19.9,45.9z M16.8,44h2.9v1.4c0,0.1,0.1,0.3,0.3,0.3
					c0.1,0,0.3-0.1,0.3-0.3v-4.9c0-1-0.9-1.9-2-1.9c-1.1,0-2,0.8-2,1.9v4.9c0,0.1,0.1,0.3,0.3,0.3c0.1,0,0.3-0.1,0.3-0.3
					C16.8,45.3,16.8,44,16.8,44z M19.6,43.5h-2.9v-3c0-0.8,0.6-1.4,1.4-1.4c0.8,0,1.4,0.6,1.4,1.4V43.5z M17.1,43.2h2.2v-2.7
					c0-0.6-0.5-1.1-1.1-1.1c-0.6,0-1.1,0.5-1.1,1.1C17.1,40.5,17.1,43.2,17.1,43.2z"/>
			</g>
		</g>
		<g>
			<g>
				<path class="st0" d="M23.3,38.5c-0.2,0-0.4,0.2-0.4,0.4v6.5c0,0.2,0.2,0.4,0.4,0.4H25c1.2,0,2.1-0.9,2.1-2v-3.2
					c0-1.1-0.9-2-2.1-2C25,38.5,23.3,38.5,23.3,38.5z M25,44.9h-1.3v-5.7H25c0.7,0,1.3,0.5,1.3,1.2v3.2C26.3,44.4,25.7,44.9,25,44.9
					z"/>
				<path class="st0" d="M25,45.9h-1.7c-0.3,0-0.6-0.2-0.6-0.5v-6.5c0-0.3,0.3-0.5,0.6-0.5H25c1.3,0,2.3,1,2.3,2.2v3.2
					C27.3,44.9,26.3,45.9,25,45.9z M23.3,38.6c-0.1,0-0.3,0.1-0.3,0.3v6.5c0,0.1,0.1,0.3,0.3,0.3H25c1.1,0,2-0.8,2-1.9v-3.2
					c0-1-0.9-1.9-2-1.9C25,38.6,23.3,38.6,23.3,38.6z M25,45.1h-1.4v-6H25c0.8,0,1.4,0.6,1.4,1.4v3.2C26.4,44.5,25.8,45.1,25,45.1z
					 M23.9,44.8H25c0.6,0,1.1-0.5,1.1-1.1v-3.2c0-0.6-0.5-1.1-1.1-1.1h-1.1V44.8z"/>
			</g>
		</g>
	</g>
	<g>
		<g>
			<path class="st0" d="M43.7,56.8V18c0-0.4-0.3-0.7-0.7-0.7c-0.4,0-0.7,0.3-0.7,0.7v38.8"/>
		</g>
		<g>
			<path class="st0" d="M47.3,17.4c-0.4,0-0.7,0.3-0.7,0.7s0.3,0.7,0.7,0.7h9.1c0.4,0,0.7-0.3,0.7-0.7s-0.3-0.7-0.7-0.7H47.3z"/>
		</g>
		<g>
			<path class="st0" d="M6.2,17.4c-0.4,0-0.7,0.3-0.7,0.7s0.3,0.7,0.7,0.7h31.4c0.4,0,0.7-0.3,0.7-0.7s-0.3-0.7-0.7-0.7H6.2z"/>
		</g>
		<g>
			<path class="st0" d="M6.2,23.5c-0.4,0-0.7,0.3-0.7,0.7s0.3,0.7,0.7,0.7h31.4c0.4,0,0.7-0.3,0.7-0.7s-0.3-0.7-0.7-0.7H6.2z"/>
		</g>
		<g>
			<path class="st0" d="M6.2,29.5c-0.4,0-0.7,0.3-0.7,0.7s0.3,0.7,0.7,0.7h31.4c0.4,0,0.7-0.3,0.7-0.7s-0.3-0.7-0.7-0.7H6.2z"/>
		</g>
		<g>
			<path class="st0" d="M47.3,29.5c-0.4,0-0.7,0.3-0.7,0.7c0,0.4,0.3,0.7,0.7,0.7h9.1c0.4,0,0.7-0.3,0.7-0.7c0-0.4-0.3-0.7-0.7-0.7
				H47.3z"/>
		</g>
		<g>
			<path class="st0" d="M47.3,23.5c-0.4,0-0.7,0.3-0.7,0.7s0.3,0.7,0.7,0.7h9.1c0.4,0,0.7-0.3,0.7-0.7s-0.3-0.7-0.7-0.7H47.3z"/>
		</g>
		<g>
			<path class="st0" d="M47.3,35.5c-0.4,0-0.7,0.3-0.7,0.7c0,0.4,0.3,0.7,0.7,0.7h9.1c0.4,0,0.7-0.3,0.7-0.7s-0.3-0.7-0.7-0.7H47.3z
				"/>
		</g>
		<g>
			<path class="st0" d="M47.3,47.5c-0.4,0-0.7,0.3-0.7,0.7c0,0.4,0.3,0.7,0.7,0.7h9.1c0.4,0,0.7-0.3,0.7-0.7s-0.3-0.7-0.7-0.7H47.3z
				"/>
		</g>
		<g>
			<path class="st0" d="M47.3,41.5c-0.4,0-0.7,0.3-0.7,0.7c0,0.4,0.3,0.7,0.7,0.7h9.1c0.4,0,0.7-0.3,0.7-0.7c0-0.4-0.3-0.7-0.7-0.7
				H47.3z"/>
		</g>
		<g>
			<path class="st0" d="M5.6,35.5c-0.4,0-0.7,0.3-0.7,0.6v12.3c0,0.3,0.3,0.6,0.7,0.6h31.9c0.4,0,0.7-0.3,0.7-0.6V36.1
				c0-0.3-0.3-0.6-0.7-0.6H5.6z M36.9,47.8H6.2V36.7h30.6V47.8z"/>
		</g>
	</g>
</g>
</svg>
