<?xml version="1.0" encoding="utf-8"?>
<!-- Generator: Adobe Illustrator 25.0.0, SVG Export Plug-In . SVG Version: 6.00 Build 0)  -->
<svg version="1.1" id="レイヤー_1" xmlns="http://www.w3.org/2000/svg" xmlns:xlink="http://www.w3.org/1999/xlink" x="0px"
	 y="0px" viewBox="0 0 61 59" style="enable-background:new 0 0 61 59;" xml:space="preserve">
<style type="text/css">
	.st0{fill-rule:evenodd;clip-rule:evenodd;fill:#E8E8E8;}
</style>
<g>
	<path class="st0" d="M46.3,27.5c0.2-0.5,0.5-1.1,0.6-1.7c2.7-0.9,2.7-0.9,2.7-0.9c0-0.5,0-0.9,0-1.4c0-0.5,0-0.8,0-1.2
		c-2.7-0.9-2.7-0.9-2.7-0.9c-0.2-0.6-0.5-1.2-0.6-1.7c1.1-2.5,1.1-2.5,1.1-2.5c-0.5-0.8-1.1-1.4-1.9-2C43,16.3,43,16.3,43,16.3
		c-0.6-0.3-1.1-0.5-1.7-0.6C40.4,13,40.4,13,40.4,13c-0.5-0.2-0.9-0.2-1.4-0.2s-0.9,0-1.4,0.2c-0.9,2.7-0.9,2.7-0.9,2.7
		c-0.5,0.2-1.1,0.3-1.6,0.6C32.4,15,32.4,15,32.4,15c-0.6,0.6-1.2,1.2-1.9,2c1.2,2.5,1.2,2.5,1.2,2.5c-0.3,0.5-0.6,1.1-0.8,1.7
		c-2.7,0.9-2.7,0.9-2.7,0.9c0,0.5,0,0.8,0,1.2c0,0.5,0,0.9,0,1.4c2.7,0.9,2.7,0.9,2.7,0.9c0.2,0.6,0.5,1.2,0.8,1.7
		C30.5,30,30.5,30,30.5,30c0.6,0.8,1.2,1.4,1.9,2c2.7-1.2,2.7-1.2,2.7-1.2c0.5,0.3,1.1,0.5,1.6,0.6c0.9,2.7,0.9,2.7,0.9,2.7
		c0.5,0.2,0.9,0.2,1.4,0.2s0.9,0,1.4-0.2c0.9-2.7,0.9-2.7,0.9-2.7c0.6-0.2,1.1-0.3,1.7-0.6c2.5,1.2,2.5,1.2,2.5,1.2
		c0.8-0.6,1.4-1.2,1.9-2L46.3,27.5L46.3,27.5L46.3,27.5z M39,27.2c-2,0-3.7-1.6-3.7-3.7c0-2,1.7-3.6,3.7-3.6c2,0,3.7,1.6,3.7,3.6
		C42.7,25.6,41,27.2,39,27.2L39,27.2z"/>
	<path class="st0" d="M39.2,11.5c1.9,0,1.9,0,1.9,0c0.3,0.3,0.6,0.6,0.9,0.9c-0.2,1.9-0.2,1.9-0.2,1.9c0.3,0.2,0.6,0.3,0.8,0.5
		c0.3,0,0.6,0.2,0.9,0.3c1.2-1.4,1.2-1.4,1.2-1.4c0.5,0,0.9,0,1.2,0c1.2,1.4,1.2,1.4,1.2,1.4c0.6-0.2,1.2-0.3,1.7-0.6
		c0-1.9,0-1.9,0-1.9c0.3-0.3,0.6-0.6,0.9-0.9c1.9,0.2,1.9,0.2,1.9,0.2c0.2-0.3,0.3-0.6,0.3-0.8c0.2-0.3,0.3-0.6,0.3-0.9
		c-1.2-1.3-1.2-1.3-1.2-1.3c0-0.5,0-0.9,0-1.3c1.4-1.3,1.4-1.3,1.4-1.3C52.4,5.7,52.1,5,52,4.6c-2,0-2,0-2,0
		c-0.2-0.3-0.5-0.6-0.8-0.9c0.2-1.9,0.2-1.9,0.2-1.9c-0.3-0.2-0.6-0.3-0.9-0.3c-0.2-0.2-0.5-0.3-0.8-0.5c-1.4,1.4-1.4,1.4-1.4,1.4
		c-0.3,0-0.8,0-1.2,0C43.7,1,43.7,1,43.7,1c-0.5,0.2-1.1,0.5-1.7,0.6c0.2,2,0.2,2,0.2,2c-0.3,0.2-0.6,0.5-0.9,0.8
		c-1.9-0.2-1.9-0.2-1.9-0.2c-0.2,0.3-0.3,0.6-0.5,0.9c0,0.2-0.2,0.5-0.3,0.8c1.4,1.3,1.4,1.3,1.4,1.3c0,0.5,0,0.9,0,1.3
		c-1.4,1.3-1.4,1.3-1.4,1.3C38.7,10.4,38.8,11,39.2,11.5L39.2,11.5z M43.2,7.1c0.6-1.4,2-1.9,3.3-1.4c1.4,0.6,1.9,2,1.4,3.5
		c-0.6,1.3-2,1.7-3.4,1.3C43.2,9.8,42.6,8.3,43.2,7.1L43.2,7.1z"/>
	<path class="st0" d="M58.2,17.8c1.4-0.5,1.4-0.5,1.4-0.5c0-0.3,0-0.6,0-0.8c0-0.3,0-0.5,0-0.8c-1.4-0.5-1.4-0.5-1.4-0.5
		c-0.2-0.3-0.3-0.6-0.5-0.8c0.6-1.4,0.6-1.4,0.6-1.4c-0.3-0.3-0.6-0.8-1-0.9C56,12.8,56,12.8,56,12.8c-0.3-0.2-0.6-0.3-1-0.3
		c-0.5-1.4-0.5-1.4-0.5-1.4c-0.3-0.2-0.5-0.2-0.8-0.2c-0.2,0-0.5,0.2-0.6,0.2c-0.5,1.4-0.5,1.4-0.5,1.4c-0.3,0-0.6,0.2-1,0.3
		c-1.4-0.6-1.4-0.6-1.4-0.6c-0.3,0.3-0.6,0.8-1,1.1c0.6,1.4,0.6,1.4,0.6,1.4c-0.2,0.2-0.2,0.5-0.3,0.8c-1.4,0.6-1.4,0.6-1.4,0.6
		c0,0.2,0,0.5,0,0.6c0,0.3,0,0.6,0,0.8c1.4,0.5,1.4,0.5,1.4,0.5c0.2,0.3,0.3,0.6,0.5,0.9c-0.6,1.2-0.6,1.2-0.6,1.2
		c0.3,0.5,0.6,0.8,1.1,1.1c1.3-0.6,1.3-0.6,1.3-0.6c0.3,0,0.6,0.2,1,0.3c0.5,1.4,0.5,1.4,0.5,1.4c0.3,0,0.5,0,0.8,0
		c0.2,0,0.5,0,0.6-0.2c0.5-1.4,0.5-1.4,0.5-1.4c0.3,0,0.6-0.2,1-0.3c1.4,0.6,1.4,0.6,1.4,0.6c0.3-0.3,0.6-0.6,1-1.1
		c-0.6-1.2-0.6-1.2-0.6-1.2C58.1,18.4,58.2,18.1,58.2,17.8L58.2,17.8z M54,18.6c-1.1,0-1.9-0.8-2.1-1.9c0-1.1,1-2,2.1-2
		s2.1,0.8,2.1,1.9S55.1,18.6,54,18.6L54,18.6z"/>
</g>
<g>
	<path class="st0" d="M31.6,48.9c0-0.3,0.3-0.5,0.3-1.1c-0.3-0.3-0.3-0.3-0.5-0.5c0-0.3-0.3-0.3-0.5-0.3c-0.5,0-0.8,0.3-1.1,0.5
		C25.3,53,25.3,53,25.3,53c0.8,0.3,1.4,0.3,2.2,0.5l0,0c3.6-4.1,3.6-4.1,3.6-4.1C31.1,49.2,31.4,48.9,31.6,48.9L31.6,48.9z"/>
	<path class="st0" d="M27.9,47.8c0-0.5-0.3-0.8-0.6-0.8c0-0.3-0.3-0.3-0.6-0.3c-0.3,0-0.8,0.3-1.1,0.5c-3.6,4.3-3.6,4.3-3.6,4.3
		c0.8,0.3,1.4,0.5,2.2,0.8c3.3-3.8,3.3-3.8,3.3-3.8C27.9,48.4,27.9,48.1,27.9,47.8L27.9,47.8z"/>
	<path class="st0" d="M32.5,49.7h-0.3c-3.5,4.5-3.5,4.5-3.5,4.5c0.8,0,1.6,0.3,2.4,0.6c2.2-2.8,2.2-2.8,2.2-2.8c0-0.3,0-0.3,0-0.3
		c0.3-0.3,0.3-0.3,0.3-0.3c0.3-0.3,0.3-1.1-0.3-1.4C33,49.7,32.8,49.7,32.5,49.7L32.5,49.7z"/>
	<path class="st0" d="M22.2,48.7c-0.3-0.3-0.5-0.3-0.8-0.3l0,0c-1.6,1.9-1.6,1.9-1.6,1.9c0.5,0.3,0.8,0.5,1.4,0.8
		c1.4-1.6,1.4-1.6,1.4-1.6C22.7,49.5,22.5,48.9,22.2,48.7L22.2,48.7z"/>
	<path class="st0" d="M32.2,54.9L32.2,54.9c0.5,0,1-0.3,1-0.3c0-1,0-1,0-1L32.2,54.9L32.2,54.9L32.2,54.9z"/>
	<path class="st0" d="M56.7,34.2c0-1.4-1.9-2.5-4.3-2.5c-2.4,0-4.3,1.4-4.3,2.8c0,0.8,0,0.8,0,0.8c-5.9,2.2-5.9,2.2-5.9,2.2
		c-0.3-0.3-0.3-0.3-0.3-0.3c-0.5-0.6-4.6-2.5-7-3.6l0,0c-0.5-0.3-1.1-0.6-1.6-0.6c-0.8,0-1.3,0.6-1.3,0.6l0,0
		c-4.8,2.8-4.8,2.8-4.8,2.8C26,39.8,26,39.8,26,39.8c-0.8,2.2-0.5,2.8-0.3,2.8c0,0,0,0.3,0.3,0.3c0.5,0,1.1-0.3,1.3-0.6
		c2.2-1.4,3.5-5,3.5-5c0.3-0.6,0.3-0.6,0.3-0.6c0.5,0.3,0.5,0.3,0.5,0.3c0.3,0.3,0.5,0.3,1.1,0.6c0.5,0.3,1.3,0.6,1.6,0.8l0,0
		c1.1,1.1,2.2,1.9,3.2,2.8c1.3,1.1,2.7,1.9,3.2,3.3l0,0l0,0c0.3,2.2,0.3,4.1,0.3,5.2c7.3-3.6,7.3-3.6,7.3-3.6
		c0.5,1.1,2.2,1.7,4.3,1.7c2.4,0,4.3-1.1,4.3-2.5L56.7,34.2L56.7,34.2L56.7,34.2z"/>
	<path class="st0" d="M36.7,41.8c-0.8-0.8-2.2-1.7-3-2.5c-0.3-0.3-0.8-0.6-1.3-0.8c-0.3,0-0.5,0-0.8-0.3c-0.5,1.1-1.9,3.9-3.8,5l0,0
		c-0.3,0-1.1,0.6-1.9,0.6c-0.5,0-1.1-0.3-1.1-0.6c-0.5-0.6-0.5-1.7,0.3-3.6c1.1-3.6,1.1-3.6,1.1-3.6c3-1.9,3-1.9,3-1.9
		c-0.5-0.3-1.3-0.6-2.2-0.6c-3.5,0.3-8.1,3-8.1,3c0,0.3,0,0.3,0,0.3c-6.7-3-6.7-3-6.7-3c0-1.4-1.9-2.5-4.3-2.5
		c-2.4,0.3-4.3,1.4-4.3,2.8c0,10.7,0,10.7,0,10.7c0,1.7,2.2,2.8,4.6,2.5c2.2,0,3.8-0.8,4.3-1.9c6.5,3,6.5,3,6.5,3c0,0.3,0,0.3,0,0.3
		c0,0.3,0,0.6,0.3,0.8c1.3-1.7,1.3-1.7,1.3-1.7c0-0.3,0.5-0.6,0.8-0.6c0.5,0,1.1,0.3,1.3,0.6c0.3,0.3,0.5,0.6,0.5,0.6
		c1.6-1.9,1.6-1.9,1.6-1.9c0.5-0.6,1.1-0.8,1.9-0.8c0.5,0,1.1,0.3,1.3,0.6c0.3,0.3,0.5,0.6,0.5,0.8c0.3,0,0.3,0,0.3,0
		c0.5-0.8,1.1-1.1,1.9-1.1c0.5,0,0.8,0.3,1.3,0.6c0.3,0.3,0.5,0.8,0.5,1.4c0.3,0.3,0,0.6,0,0.8c0.5,0,0.8,0.3,1.3,0.6
		c0.8,0.8,1.1,2.2,0.3,3C34,52.8,34,52.8,34,52.8c0,1.7,0,1.7,0,1.7s0,0,0.3,0c0.8,0,1.3-0.8,1.3-1.1c0-0.6,0.3-3,0-4.4
		c0-0.3-0.3-0.3-0.3-0.6c-0.3-0.8-2.4-2.5-3.2-3.3c0.5-0.6,0.5-0.6,0.5-0.6c0.3,0.3,3,2.2,3.5,3.6c0,0.3,0,0.3,0.3,0.6
		c0.3,1.4,0,3.6,0,4.4c0.3,0,0.3,0,0.3,0c1.1,0,1.3-0.6,1.3-0.8c0,0,0-1.4,0-2.8c0-2.2-0.3-3.3-0.3-3.6c-0.5-1.1-3.2-3.3-4.3-4.1
		c0.5-0.6,0.5-0.6,0.5-0.6s3.8,2.8,4.3,4.4c0.3,0.6,0.5,1.9,0.5,3.9c0,1.1,0,2.2,0,2.5l0,0c0.5,0,0.8,0,1.1-0.3c0-0.3,0-0.3,0-0.3
		s0.3-2.8-0.3-6.6C39.4,43.7,38,42.9,36.7,41.8L36.7,41.8z"/>
</g>
</svg>
