<?xml version="1.0" encoding="utf-8"?>
<!-- Generator: Adobe Illustrator 21.1.0, SVG Export Plug-In . SVG Version: 6.00 Build 0)  -->
<svg version="1.1" id="レイヤー_1" xmlns="http://www.w3.org/2000/svg" xmlns:xlink="http://www.w3.org/1999/xlink" x="0px"
	 y="0px" width="60px" height="60px" viewBox="0 0 60 60" style="enable-background:new 0 0 60 60;" xml:space="preserve">
<style type="text/css">
	.st0{fill:#FFFFFF;}
</style>
<g>
	<g>
		<path class="st0" d="M39.1,45.8l12.8,12.8c0.9,0.9,2.1,1.4,3.4,1.4c2.6,0,4.8-2.1,4.8-4.8c0-1.3-0.5-2.5-1.4-3.4L45.8,39.1
			l0.1-0.2c1.5-2.7,2.3-5.8,2.3-8.8c0-0.2,0-0.3,0-0.5l0-0.3L48,27.2c-1.3-8.8-9.1-15.5-18-15.5c-0.2,0-0.3,0-0.5,0l-0.3,0
			c-0.6,0-1.9,0.2-1.9,0.2c-8.8,1.3-15.5,9.1-15.5,18c0,0.2,0,0.3,0,0.5l0,0.3l0.2,1.9c1.3,8.8,9.1,15.5,18,15.5
			c3.1,0,6.1-0.8,8.8-2.3L39.1,45.8z M55.2,58.7c-0.9,0-1.8-0.4-2.5-1l-9.6-9.6l5-5l9.6,9.6c0.7,0.7,1,1.5,1,2.5
			C58.7,57.2,57.2,58.7,55.2,58.7z M42.2,47.2l-2.1-2.1l0.3-0.2c1.7-1.2,3.2-2.7,4.4-4.4l0.2-0.3l2.1,2.1L42.2,47.2z M30,47
			c-8.4,0-15.6-6.2-16.8-14.5c-0.1-0.4-0.2-1.7-0.2-2l0-0.2c0-0.1,0-0.2,0-0.3c0-8.4,6.2-15.6,14.5-16.8c0,0,1-0.2,2-0.2l0.2,0
			c0.1,0,0.2,0,0.3,0c8.4,0,15.6,6.2,16.8,14.5c0,0.2,0.2,1.5,0.2,2l0,0.2c0,0.1,0,0.2,0,0.3C47,39.4,39.4,47,30,47z M30,15.7
			l-0.1,0c-0.8,0-1.9,0.2-1.9,0.2c-7,1-12.3,7.1-12.3,14.2l0,0.1c0,0.8,0.2,1.9,0.2,1.9l0,0c1,7,7.1,12.3,14.2,12.3
			c7.9,0,14.3-6.4,14.3-14.3l0-0.1c0-0.2-0.1-1.3-0.2-1.9C43.2,20.9,37.1,15.7,30,15.7z M30,43.1c-7.2,0-13.1-5.9-13.1-13.1
			c0-7.2,5.9-13.1,13.1-13.1S43.1,22.8,43.1,30C43.1,37.2,37.2,43.1,30,43.1z"/>
	</g>
	<g>
		<path class="st0" d="M51.5,0c-4.7,0-8.5,3.8-8.5,8.5s3.8,8.5,8.5,8.5S60,13.1,60,8.5S56.2,0,51.5,0z M51.5,15.7
			c-1.1,0-2.1-0.2-3.1-0.7l-0.2-0.1v-1.5c0-1.8,1.5-3.3,3.3-3.3s3.3,1.5,3.3,3.3v1.5L54.6,15C53.6,15.4,52.6,15.7,51.5,15.7z
			 M47,14.1l-0.6-0.6c-1.3-1.4-2.1-3.1-2.1-5c0-4,3.2-7.2,7.2-7.2s7.2,3.2,7.2,7.2c0,1.9-0.7,3.7-2.1,5l-0.6,0.6l0-0.8
			c0-1.5-0.8-2.9-2-3.7l-0.4-0.2L54,9.1c0.7-0.7,1.1-1.6,1.1-2.5c0-2-1.6-3.6-3.6-3.6c-2,0-3.6,1.6-3.6,3.6c0,1,0.4,1.9,1.1,2.5
			l0.3,0.3L49,9.6c-1.2,0.8-2,2.2-2,3.7L47,14.1z M51.5,8.8c-1.3,0-2.3-1-2.3-2.3s1-2.3,2.3-2.3c1.3,0,2.3,1,2.3,2.3
			S52.8,8.8,51.5,8.8z"/>
	</g>
	<g>
		<path class="st0" d="M8.5,0C3.8,0,0,3.8,0,8.5s3.8,8.5,8.5,8.5s8.5-3.8,8.5-8.5S13.1,0,8.5,0z M8.5,15.7c-1.1,0-2.1-0.2-3.1-0.7
			l-0.2-0.1v-1.5c0-1.8,1.5-3.3,3.3-3.3s3.3,1.5,3.3,3.3v1.5L11.5,15C10.6,15.4,9.5,15.7,8.5,15.7z M13,14.1l0-0.8
			c0-1.5-0.8-2.9-2-3.7l-0.4-0.2L11,9.1C11.6,8.4,12,7.5,12,6.5c0-2-1.6-3.6-3.6-3.6S4.9,4.5,4.9,6.5c0,1,0.4,1.9,1.1,2.5l0.3,0.3
			L5.9,9.6c-1.2,0.8-2,2.2-2,3.7l0,0.8l-0.6-0.6c-1.3-1.4-2.1-3.1-2.1-5c0-4,3.2-7.2,7.2-7.2s7.2,3.2,7.2,7.2c0,1.9-0.7,3.7-2.1,5
			L13,14.1z M8.5,8.8c-1.3,0-2.3-1-2.3-2.3s1-2.3,2.3-2.3s2.3,1,2.3,2.3S9.7,8.8,8.5,8.8z"/>
	</g>
	<g>
		<path class="st0" d="M8.5,43.1c-4.7,0-8.5,3.8-8.5,8.5S3.8,60,8.5,60s8.5-3.8,8.5-8.5S13.1,43.1,8.5,43.1z M8.5,58.7
			c-1.1,0-2.1-0.2-3.1-0.7l-0.2-0.1v-1.5c0-1.8,1.5-3.3,3.3-3.3s3.3,1.5,3.3,3.3v1.5L11.5,58C10.6,58.5,9.5,58.7,8.5,58.7z M13,57.2
			l0-0.8c0-1.5-0.8-2.9-2-3.7l-0.4-0.2l0.3-0.3c0.7-0.7,1.1-1.6,1.1-2.5c0-2-1.6-3.6-3.6-3.6s-3.6,1.6-3.6,3.6c0,1,0.4,1.9,1.1,2.5
			l0.3,0.3l-0.4,0.2c-1.2,0.8-2,2.2-2,3.7l0,0.8l-0.6-0.6c-1.3-1.4-2.1-3.1-2.1-5c0-4,3.2-7.2,7.2-7.2s7.2,3.2,7.2,7.2
			c0,1.9-0.7,3.7-2.1,5L13,57.2z M8.5,51.9c-1.3,0-2.3-1-2.3-2.3s1-2.3,2.3-2.3s2.3,1,2.3,2.3S9.7,51.9,8.5,51.9z"/>
	</g>
	<g>
		<path class="st0" d="M19.6,34.5h20.8V24.5h-5.2v8.8h-2.7V20.6h-5.2v12.7h-2.7v-4.9h-5.2C19.6,28.4,19.6,34.5,19.6,34.5z
			 M39.2,33.3h-2.7v-7.5h2.7V33.3z M31.3,33.3h-2.7V21.8h2.7V33.3z M23.5,33.3h-2.7v-3.6h2.7V33.3z"/>
	</g>
</g>
</svg>
