<?xml version="1.0" encoding="utf-8"?>
<!-- Generator: Adobe Illustrator 21.1.0, SVG Export Plug-In . SVG Version: 6.00 Build 0)  -->
<svg version="1.1" id="レイヤー_1" xmlns="http://www.w3.org/2000/svg" xmlns:xlink="http://www.w3.org/1999/xlink" x="0px"
	 y="0px" width="73px" height="57px" viewBox="0 0 73 57" style="enable-background:new 0 0 73 57;" xml:space="preserve">
<style type="text/css">
	.st0{fill:#FFFFFF;}
</style>
<g>
	<g>
		<path class="st0" d="M55.2,0c-1.1,0-2,0.9-2,2v25.6c0,1.1,0.9,2,2,2h4.7c1.1,0,2-0.9,2-2V2c0-1.1-0.9-2-2-2H55.2z M59.9,28h-4.7
			c-0.3,0-0.5-0.2-0.5-0.5V2c0-0.3,0.2-0.5,0.5-0.5h4.7c0.3,0,0.5,0.2,0.5,0.5v25.6C60.4,27.8,60.2,28,59.9,28z"/>
	</g>
	<g>
		<path class="st0" d="M66.3,6.9c-1.1,0-2,0.9-2,2v18.6c0,1.1,0.9,2,2,2H71c1.1,0,2-0.9,2-2V8.9c0-1.1-0.9-2-2-2
			C71,6.9,66.3,6.9,66.3,6.9z M71,28h-4.7c-0.3,0-0.5-0.2-0.5-0.5V8.9c0-0.3,0.2-0.5,0.5-0.5H71c0.3,0,0.5,0.2,0.5,0.5v18.6
			C71.5,27.8,71.3,28,71,28z"/>
	</g>
	<g>
		<path class="st0" d="M11.8,47.7L11.8,47.7c1,0.9,2.1,1.7,3.2,2.4l0.2,0.1l0,0.2c0.1,3.6,3.1,6.6,6.7,6.6c2.4,0,4.7-1.3,5.8-3.5
			l0.1-0.2l0.2,0c5.8-0.5,11.3-3.5,14.9-8.2l0.1-0.1l0.2,0c2.6-0.1,4.9-1.7,6-4.1l0.1-0.3l10.4,2.7l0,0.3c0,0.2,0,0.4,0,0.6
			c0,3.7,3,6.7,6.7,6.7s6.7-3,6.7-6.7c0-3.7-3-6.7-6.7-6.7c-2.7,0-5.1,1.6-6.1,4.1l-0.1,0.3l-10.4-2.7l0-0.3c0-0.2,0-0.4,0-0.6
			c0-1.9-0.8-3.7-2.2-5l-0.1-0.1l0-0.2l0.3-0.1l-0.3,0c0-1,0-2-0.1-3l0-0.4h1.7c1.1,0,2-0.9,2-2V15.2c0-1.1-0.9-2-2-2H44
			c-1.1,0-2,0.9-2,2v2.9l-0.6-0.6c-3.6-3.9-8.5-6.3-13.7-6.7c-0.6-0.1-1.2,0.2-1.7,0.6c-0.5,0.4-0.7,1-0.7,1.6v17.5
			c0,0.4-0.3,0.8-0.8,0.8H7.3c-0.6,0-1.2,0.3-1.6,0.7c-0.4,0.5-0.6,1.1-0.6,1.7c0.3,3.3,1.3,6.6,3.1,9.5l0.2,0.3l0,0
			C9.4,45.5,11.2,47.2,11.8,47.7L11.8,47.7z M21.7,55.5c-2.8,0-5.2-2.3-5.2-5.2c0-2.9,2.3-5.2,5.2-5.2s5.2,2.3,5.2,5.2
			C26.9,53.2,24.6,55.5,21.7,55.5z M28.2,51.8l0.1-0.4c0.1-0.4,0.1-0.7,0.1-1.1c0-0.8-0.1-1.6-0.4-2.4l-0.1-0.3l9.6-5.4l0.2,0.2
			c0.8,1,1.8,1.8,3,2.2l0.5,0.2l-0.3,0.4c-3.1,3.6-7.4,5.9-12.1,6.5L28.2,51.8z M66.1,49.5c-2.8,0-5.2-2.3-5.2-5.2
			c0-2.9,2.3-5.2,5.2-5.2c2.8,0,5.2,2.3,5.2,5.2C71.2,47.1,68.9,49.5,66.1,49.5z M15.3,48.6l-0.4-0.3c-0.8-0.5-1.5-1.1-2.2-1.8
			c-1.4-1.3-2.5-2.9-3.1-3.7l0-0.1c-1.7-2.7-2.8-5.9-3.1-9.1c0-0.2,0.1-0.4,0.2-0.6c0.1-0.2,0.3-0.2,0.5-0.2h17.3
			c1.2,0,2.2-1,2.2-2.3V13.1c0-0.2,0.1-0.4,0.2-0.5c0.2-0.1,0.4-0.2,0.6-0.2c5,0.4,9.7,2.7,13.1,6.5c0.5,0.6,1,1.2,1.5,1.9
			c2.2,3.3,3.4,7,3.5,11l0,0.5L45.2,32c-0.8-0.3-1.6-0.5-2.4-0.5c-3.7,0-6.7,3-6.7,6.7c0,0.8,0.1,1.6,0.4,2.3l0.1,0.3l-9.6,5.4
			L27,46.1c-1.3-1.6-3.2-2.6-5.2-2.6c-2.9,0-5.4,1.9-6.3,4.6L15.3,48.6z M42.8,43.5c-2.8,0-5.2-2.3-5.2-5.2s2.3-5.2,5.2-5.2
			c2.8,0,5.2,2.3,5.2,5.2S45.7,43.5,42.8,43.5z M48.8,28h-2l-0.1-0.3c-0.6-2.7-1.6-5.2-3.1-7.5l-0.1-0.1v-4.9c0-0.3,0.2-0.5,0.5-0.5
			h4.7c0.3,0,0.5,0.2,0.5,0.5v12.3C49.3,27.8,49,28,48.8,28z"/>
	</g>
	<g>
		<path class="st0" d="M19.5,5.7c-0.1,0-0.1,0-0.2,0c-5,0.4-9.6,2.6-13.2,6.2C2.6,15.5,0.4,20.2,0,25.2C0,25.8,0.2,26.5,0.6,27
			c0.4,0.5,1.1,0.8,1.7,0.8h17.2c1.2,0,2.2-1,2.2-2.3V8.1c0-0.7-0.3-1.3-0.7-1.7C20.6,5.9,20,5.7,19.5,5.7z M19.5,26.2H2.3
			c-0.2,0-0.4-0.1-0.6-0.3c-0.2-0.2-0.2-0.4-0.2-0.6c0.4-4.6,2.4-9,5.7-12.3c3.3-3.3,7.6-5.3,12.2-5.7c0.3,0,0.5,0.1,0.6,0.2
			c0.1,0.1,0.3,0.3,0.3,0.6v17.4C20.3,25.9,20,26.2,19.5,26.2z"/>
	</g>
</g>
</svg>
