<?xml version="1.0" encoding="utf-8"?>
<!-- Generator: Adobe Illustrator 21.1.0, SVG Export Plug-In . SVG Version: 6.00 Build 0)  -->
<svg version="1.1" id="レイヤー_1" xmlns="http://www.w3.org/2000/svg" xmlns:xlink="http://www.w3.org/1999/xlink" x="0px"
	 y="0px" width="59px" height="59px" viewBox="0 0 59 59" style="enable-background:new 0 0 59 59;" xml:space="preserve">
<style type="text/css">
	.st0{fill:#FFFFFF;}
</style>
<g>
	<g>
		<path class="st0" d="M4.8,0C2.2,0,0,2.2,0,4.8v49.4C0,56.8,2.2,59,4.8,59h49.4c2.6,0,4.8-2.2,4.8-4.8V4.8C59,2.2,56.8,0,54.2,0
			H4.8z M54.2,57.6H4.8c-1.9,0-3.4-1.5-3.4-3.4V12.3h56.3v41.9C57.6,56.1,56.1,57.6,54.2,57.6z M57.6,11H1.4V4.8
			c0-1.9,1.5-3.4,3.4-3.4h49.4c1.9,0,3.4,1.5,3.4,3.4V11z"/>
	</g>
	<g>
		<circle class="st0" cx="6.2" cy="6.2" r="1.4"/>
		<path class="st0" d="M6.2,5.5c-0.4,0-0.7,0.3-0.7,0.7c0,0.4,0.3,0.7,0.7,0.7c0.4,0,0.7-0.3,0.7-0.7C6.8,5.8,6.5,5.5,6.2,5.5z"/>
	</g>
	<g>
		<circle class="st0" cx="11.7" cy="6.2" r="1.4"/>
		<path class="st0" d="M11.7,5.5c-0.4,0-0.7,0.3-0.7,0.7c0,0.4,0.3,0.7,0.7,0.7c0.4,0,0.7-0.3,0.7-0.7S12,5.5,11.7,5.5z"/>
	</g>
	<g>
		<circle class="st0" cx="17.1" cy="6.2" r="1.4"/>
		<path class="st0" d="M17.1,5.5c-0.4,0-0.7,0.3-0.7,0.7c0,0.4,0.3,0.7,0.7,0.7c0.4,0,0.7-0.3,0.7-0.7S17.5,5.5,17.1,5.5z"/>
	</g>
	<g>
		<path class="st0" d="M8.9,19.2c-0.4,0-0.7,0.3-0.7,0.7v22c0,0.4,0.3,0.7,0.7,0.7h27.5c0.4,0,0.7-0.3,0.7-0.7v-22
			c0-0.4-0.3-0.7-0.7-0.7C36.4,19.2,8.9,19.2,8.9,19.2z M35.7,41.2H9.6V20.6h26.1C35.7,20.6,35.7,41.2,35.7,41.2z"/>
	</g>
	<g>
		<path class="st0" d="M15.1,34.3h4.1v2.1c0,0.4,0.3,0.7,0.7,0.7c0.4,0,0.7-0.3,0.7-0.7v-8.2c0-1.9-1.5-3.4-3.4-3.4
			c-1.9,0-3.4,1.5-3.4,3.4v8.2c0,0.4,0.3,0.7,0.7,0.7c0.4,0,0.7-0.3,0.7-0.7L15.1,34.3L15.1,34.3z M19.2,32.9h-4.1v-4.8
			c0-1.1,0.9-2.1,2.1-2.1c1.1,0,2.1,0.9,2.1,2.1V32.9z"/>
	</g>
	<g>
		<path class="st0" d="M25.4,24.7c-0.4,0-0.7,0.3-0.7,0.7v11c0,0.4,0.3,0.7,0.7,0.7h2.7c1.9,0,3.4-1.5,3.4-3.4v-5.5
			c0-1.9-1.5-3.4-3.4-3.4C28.1,24.7,25.4,24.7,25.4,24.7z M28.1,35.7h-2.1v-9.6h2.1c1.1,0,2.1,0.9,2.1,2.1v5.5
			C30.2,34.8,29.3,35.7,28.1,35.7z"/>
	</g>
	<g>
		<path class="st0" d="M8.9,49.4c-0.4,0-0.7,0.3-0.7,0.7c0,0.4,0.3,0.7,0.7,0.7h41.2c0.4,0,0.7-0.3,0.7-0.7c0-0.4-0.3-0.7-0.7-0.7
			H8.9z"/>
	</g>
	<g>
		<path class="st0" d="M41.9,24.7c-0.4,0-0.7,0.3-0.7,0.7c0,0.4,0.3,0.7,0.7,0.7h8.2c0.4,0,0.7-0.3,0.7-0.7s-0.3-0.7-0.7-0.7H41.9z"
			/>
	</g>
	<g>
		<path class="st0" d="M41.9,32.9c-0.4,0-0.7,0.3-0.7,0.7c0,0.4,0.3,0.7,0.7,0.7h8.2c0.4,0,0.7-0.3,0.7-0.7s-0.3-0.7-0.7-0.7H41.9z"
			/>
	</g>
	<g>
		<path class="st0" d="M41.9,41.2c-0.4,0-0.7,0.3-0.7,0.7s0.3,0.7,0.7,0.7h8.2c0.4,0,0.7-0.3,0.7-0.7s-0.3-0.7-0.7-0.7H41.9z"/>
	</g>
</g>
</svg>
