<?xml version="1.0" encoding="utf-8"?>
<!-- Generator: Adobe Illustrator 22.1.0, SVG Export Plug-In . SVG Version: 6.00 Build 0)  -->
<svg version="1.1" id="レイヤー_1" xmlns="http://www.w3.org/2000/svg" xmlns:xlink="http://www.w3.org/1999/xlink" x="0px"
	 y="0px" width="111px" height="15px" viewBox="0 0 111 15" style="enable-background:new 0 0 111 15;" xml:space="preserve">
<style type="text/css">
	.st0{fill:#FFFFFF;}
</style>
<g>
	<path class="st0" d="M10.2,11.7H4.3l-1.3,3H0L6.2,0.3h2.2l6,14.4h-3L10.2,11.7z M9.3,9.4L7.3,4.2L5.2,9.4H9.3z"/>
	<path class="st0" d="M16.6,14.7V0.3h2l8.8,9.6V0.3h2.8v14.4h-2l-8.8-9.6v9.6C19.4,14.7,16.6,14.7,16.6,14.7z"/>
	<path class="st0" d="M42.5,11.7h-5.8l-1.3,3h-3.1l6.2-14.4h2.2l6,14.4h-3L42.5,11.7z M41.6,9.4l-2.1-5.2l-2.1,5.2H41.6z"/>
	<path class="st0" d="M51.7,0.3v11.9h4.5v2.4h-7.3V0.3H51.7z"/>
	<path class="st0" d="M61.9,8.1l-5-7.8h3.3l3.1,5l3.1-5h3.3l-5.1,7.8v6.6h-2.8C61.9,14.7,61.9,8.1,61.9,8.1z"/>
	<path class="st0" d="M76.4,2.7v11.9h-2.8V2.7h-3.3V0.3h9.3v2.4H76.4z"/>
	<path class="st0" d="M84.6,0.3v14.4h-2.8V0.3H84.6z"/>
	<path class="st0" d="M98.9,14.2c-0.9,0.5-2,0.8-3.6,0.8c-2.5,0-4.1-0.9-5.3-2c-1.7-1.6-2.3-3.4-2.3-5.5c0-2.6,1.1-4.5,2.3-5.6
		C91.4,0.5,93.2,0,95.3,0c1,0,2.2,0.2,3.6,0.9v3.3c-1.3-1.5-3-1.6-3.5-1.6c-2.9,0-4.8,2.4-4.8,5c0,3.2,2.5,4.9,4.9,4.9
		c1.3,0,2.5-0.6,3.4-1.6C98.9,10.9,98.9,14.2,98.9,14.2z"/>
	<path class="st0" d="M109,3.6c-0.8-1.1-1.8-1.2-2.4-1.2c-1.5,0-2,0.9-2,1.7c0,0.3,0.1,0.7,0.5,1c0.3,0.3,0.8,0.5,1.7,0.8
		c1.1,0.4,2.2,0.8,2.9,1.4c0.7,0.6,1.2,1.5,1.2,3c0,2.8-2,4.7-5,4.7c-2.7,0-4.2-1.6-5-2.7l1.8-1.7c0.7,1.4,2,1.9,3,1.9
		c1.3,0,2.2-0.8,2.2-2c0-0.5-0.2-0.9-0.6-1.3c-0.5-0.5-1.4-0.8-2.2-1.1c-0.8-0.3-1.7-0.6-2.4-1.2c-0.5-0.4-1.1-1.2-1.1-2.7
		c0-2.1,1.4-4.2,4.6-4.2c0.9,0,2.6,0.2,4.1,1.7L109,3.6z"/>
</g>
</svg>
