<?xml version="1.0" encoding="utf-8"?>
<!-- Generator: Adobe Illustrator 22.1.0, SVG Export Plug-In . SVG Version: 6.00 Build 0)  -->
<svg version="1.1" id="レイヤー_1" xmlns="http://www.w3.org/2000/svg" xmlns:xlink="http://www.w3.org/1999/xlink" x="0px"
	 y="0px" width="94px" height="15px" viewBox="0 0 94 15" style="enable-background:new 0 0 94 15;" xml:space="preserve">
<style type="text/css">
	.st0{fill:#FFFFFF;}
</style>
<g>
	<path class="st0" d="M11.4,14.2C10.5,14.6,9.3,15,7.8,15c-2.6,0-4.2-0.9-5.4-2C0.7,11.4,0,9.6,0,7.5C0,4.9,1.1,3,2.4,1.9
		C3.8,0.5,5.7,0,7.8,0c1,0,2.3,0.2,3.6,0.9v3.3c-1.3-1.5-3-1.6-3.6-1.6c-3,0-4.9,2.4-4.9,5c0,3.2,2.5,4.9,5,4.9
		c1.4,0,2.6-0.6,3.4-1.6V14.2z"/>
	<path class="st0" d="M18.8,0.3c2,0,3.1,0.5,3.8,1.1C23.6,2.3,24,3.6,24,4.6C24,6,23.4,7.3,22.2,8c-0.4,0.3-0.9,0.5-1.6,0.6l4.6,6
		h-3.6l-3.9-5.8h-0.4v5.8h-2.9V0.3H18.8z M17.4,6.9h0.8c0.6,0,2.8-0.1,2.8-2.2c0-2.1-2.3-2.2-2.8-2.2h-0.9
		C17.4,2.6,17.4,6.9,17.4,6.9z"/>
	<path class="st0" d="M35.8,2.7h-5.3v3.2h5.1v2.4h-5.1v3.9h5.3v2.4h-8.2V0.3h8.2V2.7z"/>
	<path class="st0" d="M47.7,11.7h-5.9l-1.3,3h-3.1l6.3-14.4H46l6.2,14.4H49L47.7,11.7z M46.9,9.4l-2.1-5.2l-2.1,5.2H46.9z"/>
	<path class="st0" d="M58.9,2.7v11.9h-2.9V2.7h-3.3V0.3h9.5v2.4H58.9z"/>
	<path class="st0" d="M67.4,0.3v14.4h-2.9V0.3H67.4z"/>
	<path class="st0" d="M72.7,0.3l3.9,9.6l3.9-9.6h3.1l-6.2,14.4h-1.7L69.5,0.3H72.7z"/>
	<path class="st0" d="M94,2.7h-5.3v3.2h5.1v2.4h-5.1v3.9H94v2.4h-8.2V0.3H94V2.7z"/>
</g>
</svg>
