<?xml version="1.0" encoding="utf-8"?>
<!-- Generator: Adobe Illustrator 22.1.0, SVG Export Plug-In . SVG Version: 6.00 Build 0)  -->
<svg version="1.1" id="レイヤー_1" xmlns="http://www.w3.org/2000/svg" xmlns:xlink="http://www.w3.org/1999/xlink" x="0px"
	 y="0px" width="123px" height="15px" viewBox="0 0 123 15" style="enable-background:new 0 0 123 15;" xml:space="preserve">
<style type="text/css">
	.st0{fill:#FFFFFF;}
</style>
<g>
	<path class="st0" d="M2.7,0.3h2.1l3.9,9.1l4.1-9.1h2.1l2.5,14.4h-2.9l-1.3-8.8l-3.9,8.8h-1L4.4,5.8l-1.5,8.8H0L2.7,0.3z"/>
	<path class="st0" d="M29,11.7h-5.9l-1.3,3h-3.1L25,0.3h2.2l6.1,14.4h-3.1L29,11.7z M28.2,9.4l-2.1-5.2L24,9.4H28.2z"/>
	<path class="st0" d="M39.8,0.3c2,0,3.1,0.5,3.7,1.1C44.7,2.3,45,3.6,45,4.6C45,6,44.4,7.3,43.3,8c-0.4,0.3-0.9,0.5-1.6,0.6l4.6,6
		h-3.6l-3.9-5.8h-0.4v5.8h-2.9V0.3H39.8z M38.4,6.9h0.8c0.6,0,2.8-0.1,2.8-2.2c0-2.1-2.2-2.2-2.8-2.2h-0.9V6.9z"/>
	<path class="st0" d="M51.5,6.4l5.4-6.1h3.6L54.3,7l6.5,7.7h-3.8l-5.2-6.4l-0.3,0.3v6.1h-2.9V0.3h2.9V6.4z"/>
	<path class="st0" d="M71.2,2.7h-5.3v3.2H71v2.4h-5.1v3.9h5.3v2.4h-8.1V0.3h8.1V2.7z"/>
	<path class="st0" d="M79.1,2.7v11.9h-2.9V2.7h-3.3V0.3h9.5v2.4H79.1z"/>
	<path class="st0" d="M87.5,0.3v14.4h-2.9V0.3H87.5z"/>
	<path class="st0" d="M91.3,14.7V0.3h2l8.9,9.6V0.3h2.9v14.4h-2l-8.9-9.6v9.6C94.1,14.7,91.3,14.7,91.3,14.7z"/>
	<path class="st0" d="M116.3,7h6.7v0.2c0,1-0.1,4-2.2,5.9c-1.5,1.5-3.4,1.9-5.2,1.9c-1.8,0-3.7-0.4-5.3-1.9
		c-0.5-0.5-2.2-2.3-2.2-5.5c0-2.8,1.3-4.5,2.2-5.3c1.1-1.1,2.9-2.2,5.8-2.2c1.1,0,2.3,0.2,3.4,0.8c0.9,0.5,2,1.3,2.8,2.6l-2.5,1.3
		c-0.5-1-1.3-1.5-1.7-1.7c-0.6-0.3-1.4-0.5-2.1-0.5c-1.2,0-2.5,0.4-3.4,1.3c-0.8,0.8-1.5,2.2-1.5,3.8c0,1.9,0.8,3.1,1.5,3.6
		c0.7,0.6,1.7,1.2,3.3,1.2c1,0,2.1-0.3,2.9-0.9c0.6-0.4,1.1-1.2,1.4-2.2h-3.8L116.3,7L116.3,7z"/>
</g>
</svg>
