<?xml version="1.0" encoding="utf-8"?>
<!-- Generator: Adobe Illustrator 22.1.0, SVG Export Plug-In . SVG Version: 6.00 Build 0)  -->
<svg version="1.1" id="レイヤー_1" xmlns="http://www.w3.org/2000/svg" xmlns:xlink="http://www.w3.org/1999/xlink" x="0px"
	 y="0px" width="108px" height="15px" viewBox="0 0 108 15" style="enable-background:new 0 0 108 15;" xml:space="preserve">
<style type="text/css">
	.st0{fill:#FFFFFF;}
</style>
<g>
	<path class="st0" d="M4.2,0.3c1.6,0,2.7,0.2,3.8,1.1c1.2,1,1.5,2.4,1.5,3.5c0,0.6-0.1,2.1-1.2,3.2c-0.8,0.8-2,1.3-3.6,1.3H2.8v5.3
		H0V0.3H4.2z M2.8,7h1.1c0.5,0,1.2,0,1.8-0.5c0.5-0.4,0.8-1.1,0.8-1.7c0-0.8-0.4-1.3-0.8-1.6c-0.6-0.4-1.3-0.5-2-0.5h-1
		C2.8,2.7,2.8,7,2.8,7z"/>
	<path class="st0" d="M14.7,0.3v11.9h4.4v2.4h-7.2V0.3H14.7z"/>
	<path class="st0" d="M29.9,11.7h-5.8l-1.3,3h-3L26,0.3h2.2l6,14.4h-3L29.9,11.7z M29.1,9.4l-2-5.2l-2,5.2H29.1z"/>
	<path class="st0" d="M36.3,14.7V0.3h1.9L47,9.9V0.3h2.8v14.4h-1.9l-8.7-9.6v9.6H36.3z"/>
	<path class="st0" d="M53.4,14.7V0.3h1.9l8.7,9.6V0.3h2.8v14.4h-1.9l-8.7-9.6v9.6C56.2,14.7,53.4,14.7,53.4,14.7z"/>
	<path class="st0" d="M73.4,0.3v14.4h-2.8V0.3H73.4z"/>
	<path class="st0" d="M77.1,14.7V0.3H79l8.7,9.6V0.3h2.8v14.4h-1.9l-8.7-9.6v9.6C79.8,14.7,77.1,14.7,77.1,14.7z"/>
	<path class="st0" d="M101.4,7h6.6v0.2c0,1-0.1,4-2.1,5.9c-1.5,1.5-3.3,1.9-5.1,1.9c-1.8,0-3.6-0.4-5.2-1.9
		c-0.5-0.5-2.1-2.3-2.1-5.5c0-2.8,1.2-4.5,2.1-5.3c1.1-1.1,2.9-2.2,5.6-2.2c1.1,0,2.2,0.2,3.3,0.8c0.9,0.5,1.9,1.3,2.7,2.6l-2.4,1.3
		c-0.5-1-1.2-1.5-1.7-1.7c-0.6-0.3-1.4-0.5-2-0.5c-1.1,0-2.4,0.4-3.3,1.3C97,4.6,96.4,6,96.4,7.6c0,1.9,0.8,3.1,1.4,3.6
		c0.6,0.6,1.7,1.2,3.2,1.2c0.9,0,2-0.3,2.8-0.9c0.6-0.4,1.1-1.2,1.4-2.2h-3.7V7z"/>
</g>
</svg>
