<?xml version="1.0" encoding="utf-8"?>
<!-- Generator: Adobe Illustrator 22.1.0, SVG Export Plug-In . SVG Version: 6.00 Build 0)  -->
<svg version="1.1" id="レイヤー_1" xmlns="http://www.w3.org/2000/svg" xmlns:xlink="http://www.w3.org/1999/xlink" x="0px"
	 y="0px" width="224px" height="23px" viewBox="0 0 224 23" style="enable-background:new 0 0 224 23;" xml:space="preserve">
<style type="text/css">
	.st0{fill:#0C2041;}
</style>
<g>
	<path class="st0" d="M5.57571,0.49526c1.25052,0,3.68394,0,5.5087,1.38611c1.31816,0.98989,2.09527,2.70555,2.09527,4.55328
		c0,2.83824-1.9262,3.99261-2.53423,4.32277c1.48661,0.23112,2.36579,0.85784,2.94002,1.38611
		c1.35197,1.25404,1.62249,2.9697,1.62249,4.12468c0,1.28705-0.37197,3.10177-1.92682,4.45484
		c-1.6895,1.45152-3.75095,1.78169-5.71096,1.78169H0V0.49526H5.57571z M4.39343,9.63546h1.24989
		c0.6763,0,3.41343-0.06604,3.41343-2.87064c0-2.01282-1.58805-2.77159-3.37961-2.77159H4.39343
		C4.39343,3.99323,4.39343,9.63546,4.39343,9.63546z M4.39343,19.00678h1.89238c0.81093,0,2.02765-0.03302,3.00765-0.59369
		c1.08145-0.62732,1.38578-1.68325,1.38578-2.54109c0-0.69275-0.23671-1.88075-1.65631-2.50746
		c-0.94619-0.42921-2.06145-0.42921-3.00764-0.42921H4.39343V19.00678z"/>
	<path class="st0" d="M26.45892,0.49526c3.10909,0,4.69714,0.7918,5.74478,1.64962c1.72393,1.41911,2.23053,3.29986,2.23053,4.9501
		c0,2.14488-0.87857,4.02562-2.63569,5.18061c-0.57485,0.39559-1.38579,0.75878-2.46724,0.95688l7.02912,9.27227h-5.47488
		l-6.0153-8.84366h-0.54042v8.84366H19.9364V0.49526H26.45892z M24.32983,10.62537h1.2499c0.84538,0,4.3258-0.09905,4.3258-3.33288
		c0-3.26623-3.44662-3.29925-4.25818-3.29925h-1.31753C24.32982,3.99324,24.32982,10.62537,24.32983,10.62537z"/>
	<path class="st0" d="M53.35743,17.88482h-9.0912l-1.99383,4.61993H37.507l9.69925-22.00948h3.44725l9.42935,22.00948h-4.73158
		L53.35743,17.88482z M52.07246,14.38746l-3.21053-7.91979l-3.21053,7.91979H52.07246z"/>
	<path class="st0" d="M63.39169,22.50475V0.49526h3.04083l13.72134,14.684v-14.684h4.39343v22.00948h-3.0421L67.78513,7.78773
		v14.71701H63.39169z"/>
	<path class="st0" d="M96.23598,0.49526c3.14353,0,5.88004,0.33016,8.3811,2.14488c2.73775,2.01282,4.3258,5.21363,4.3258,8.87607
		c0,3.66306-1.55423,6.83084-4.52869,8.87668c-2.63506,1.81471-5.10229,2.11186-8.24582,2.11186h-5.81241V0.49526H96.23598z
		 M94.74938,18.80929h1.35135c1.11589,0,3.54932-0.06604,5.50933-1.45213c1.79093-1.25403,2.80413-3.49797,2.80413-5.84095
		c0-2.30935-0.97938-4.55328-2.77032-5.87335c-1.826-1.32007-4.05653-1.45213-5.54314-1.45213H94.7494
		C94.7494,4.19072,94.7494,18.80929,94.74938,18.80929z"/>
	<path class="st0" d="M118.06539,0.49526v22.00948h-4.39344V0.49526H118.06539z"/>
	<path class="st0" d="M123.87656,22.50475V0.49526h3.04082l13.72135,14.684v-14.684h4.39343v22.00948h-3.04208L128.26997,7.78773
		v14.71701H123.87656z"/>
	<path class="st0" d="M162.26524,10.72441h10.34111v0.26413c0,1.48515-0.2029,6.10447-3.31262,9.10718
		C166.96176,22.37267,164.09,23,161.28461,23s-5.71097-0.56129-8.17821-2.97031c-0.77774-0.75878-3.34641-3.53037-3.34641-8.48046
		c0-4.25675,1.96001-6.86325,3.31259-8.18332c1.6895-1.68264,4.5287-3.3659,8.88832-3.3659
		c1.6895,0,3.48044,0.26414,5.20374,1.15498c1.45406,0.72638,3.0421,2.04582,4.22437,4.02562l-3.81857,2.01281
		c-0.77776-1.48455-1.92621-2.24332-2.63631-2.60651c-0.94557-0.46224-2.1291-0.69275-3.17612-0.69275
		c-1.79092,0-3.81857,0.62671-5.20499,1.94678c-1.28371,1.22102-2.26434,3.33288-2.26434,5.80732
		c0,2.93729,1.28497,4.68597,2.23053,5.57681c1.01445,0.95688,2.60249,1.88075,5.00209,1.88075
		c1.48663,0,3.1761-0.39559,4.42725-1.32007c0.87796-0.65973,1.75714-1.78169,2.1291-3.36528h-5.81241V10.72441z"/>
	<path class="st0" d="M190.2765,0.49526v13.82616c0,1.68264,0.57486,2.70555,1.08084,3.26684
		c0.64247,0.75878,1.82474,1.51755,3.58313,1.51755c1.75713,0,2.93939-0.75878,3.58186-1.51755
		c0.50723-0.56129,1.08083-1.5842,1.08083-3.26684V0.49526h4.39343v13.46298c0,2.07884-0.33688,4.19071-1.68948,5.87335
		C200.68524,21.91044,197.84604,23,194.94048,23c-2.90685,0-5.74605-1.08956-7.3679-3.1684
		c-1.35133-1.68264-1.68948-3.7945-1.68948-5.87335V0.49526H190.2765z"/>
	<path class="st0" d="M220.89153,5.51078c-1.31877-1.71566-2.87302-1.88075-3.68457-1.88075
		c-2.36578,0-3.10846,1.45153-3.10846,2.57349c0,0.52827,0.16907,1.02291,0.71011,1.48515
		c0.53979,0.49525,1.28372,0.75878,2.70268,1.25404c1.75713,0.59369,3.41406,1.188,4.56252,2.21091
		C223.08824,12.04448,224,13.52903,224,15.77296C224,20.06271,220.82391,23,216.15994,23
		c-4.15672,0-6.59013-2.47505-7.77367-4.15831l2.87302-2.67253c1.08208,2.14488,3.14354,2.93668,4.73158,2.93668
		c1.99384,0,3.48044-1.188,3.48044-3.03573c0-0.7918-0.27054-1.41911-0.87793-1.9798c-0.84538-0.75878-2.19672-1.188-3.4817-1.61661
		c-1.18227-0.3962-2.60123-0.92447-3.75093-1.91438c-0.74393-0.62671-1.79094-1.84773-1.79094-4.09166
		c0-3.23382,2.23053-6.46766,7.23264-6.46766c1.41896,0,4.08908,0.26414,6.38724,2.57409L220.89153,5.51078z"/>
</g>
</svg>
