<?xml version="1.0" encoding="utf-8"?>
<!-- Generator: Adobe Illustrator 22.1.0, SVG Export Plug-In . SVG Version: 6.00 Build 0)  -->
<svg version="1.1" id="レイヤー_1" xmlns="http://www.w3.org/2000/svg" xmlns:xlink="http://www.w3.org/1999/xlink" x="0px"
	 y="0px" width="167px" height="23px" viewBox="0 0 167 23" style="enable-background:new 0 0 167 23;" xml:space="preserve">
<style type="text/css">
	.st0{fill:#0C2041;}
</style>
<g>
	<path class="st0" d="M17.49493,21.71231C16.13916,22.40568,14.34236,23,11.90097,23c-3.96678,0-6.37425-1.32071-8.27282-3.06944
		C1.01715,17.48846,0,14.75042,0,11.51589c0-3.99271,1.69565-6.86404,3.62815-8.61277C5.89992,0.82422,8.71323,0,11.9349,0
		c1.59324,0,3.49183,0.26414,5.56003,1.35252v5.01627c-2.0682-2.31003-4.6453-2.47512-5.45825-2.47512
		c-4.54352,0-7.49379,3.62952-7.49379,7.68827c0,4.8842,3.86501,7.52441,7.66341,7.52441c2.10213,0,3.96678-0.89148,5.28862-2.40908
		v5.01503H17.49493z"/>
	<path class="st0" d="M45.29506,11.51589C45.29506,18.21485,40.34445,23,33.2251,23c-7.12061,0-12.07122-4.78515-12.07122-11.48411
		S26.10449,0,33.2251,0C40.34445,0,45.29506,4.81694,45.29506,11.51589z M40.75154,11.51589
		c0-4.45497-3.11865-7.62224-7.52646-7.62224s-7.52772,3.16727-7.52772,7.62224s3.11989,7.59043,7.52772,7.59043
		S40.75154,15.97087,40.75154,11.51589z"/>
	<path class="st0" d="M53.08916,0.49404h3.18775l6.00106,13.99224l6.27247-13.99224h3.18774l3.79716,22.01068h-4.47566
		l-2.03428-13.563l-6.0689,13.563h-1.49146l-5.79877-13.563l-2.30569,13.56301h-4.47567L53.08916,0.49404z"/>
	<path class="st0" d="M86.78857,0.49404c2.54317,0,4.30605,0.26414,5.96713,1.68391
		c1.83073,1.58364,2.30569,3.72857,2.30569,5.31221c0,0.85846-0.1357,3.23453-1.86465,4.91722
		c-1.25526,1.22044-3.11991,1.94684-5.73091,1.94684h-2.84725v8.15052h-4.40781V0.49404H86.78857z M84.61861,10.65866h1.79681
		c0.84813,0,1.9325,0,2.88242-0.69337c0.81296-0.62734,1.22006-1.61666,1.22006-2.57417c0-1.22044-0.61065-2.04589-1.25401-2.50814
		c-0.91599-0.62611-2.06821-0.69215-3.11989-0.69215H84.6186C84.6186,4.19083,84.6186,10.65866,84.61861,10.65866z"/>
	<path class="st0" d="M112.38481,17.88467h-9.12095l-2.00035,4.62005h-4.781l9.73036-22.01068h3.45915l9.46021,22.01068h-4.74707
		L112.38481,17.88467z M111.09565,14.38723l-3.22042-7.9194l-3.22167,7.9194H111.09565z"/>
	<path class="st0" d="M122.45192,22.50473V0.49404h3.0508l13.76625,14.68439V0.49404h4.40781v22.01069h-3.05205L126.85974,7.78733
		v14.71741H122.45192z"/>
	<path class="st0" d="M154.62343,12.44039l-7.76395-11.94635h5.22205l4.84758,7.65647l4.84885-7.65647H167l-7.96875,11.94635
		v10.06433h-4.40781C154.62344,22.50472,154.62344,12.44039,154.62343,12.44039z"/>
</g>
</svg>
