<?xml version="1.0" encoding="utf-8"?>
<!-- Generator: Adobe Illustrator 22.1.0, SVG Export Plug-In . SVG Version: 6.00 Build 0)  -->
<svg version="1.1" id="レイヤー_1" xmlns="http://www.w3.org/2000/svg" xmlns:xlink="http://www.w3.org/1999/xlink" x="0px"
	 y="0px" width="202px" height="23px" viewBox="0 0 202 23" style="enable-background:new 0 0 202 23;" xml:space="preserve">
<style type="text/css">
	.st0{fill:#0C2041;}
</style>
<g>
	<path class="st0" d="M6.53875,0.49528c2.52744,0,4.28048,0.26414,5.93172,1.68264c1.81985,1.5842,2.292,3.72908,2.292,5.31268
		c0,0.85783-0.13489,3.23382-1.85358,4.91708c-1.24717,1.2204-3.10075,1.94678-5.69627,1.94678H4.38165v8.1503H0V0.49528H6.53875z
		 M4.38165,10.65839h1.78614c0.84248,0,1.92103,0,2.86468-0.69275c0.80938-0.62732,1.21344-1.61722,1.21344-2.57409
		c0-1.22102-0.60641-2.04582-1.24717-2.50746C8.08882,4.25677,6.94282,4.19073,5.89799,4.19073H4.38165V10.65839z"/>
	<path class="st0" d="M23.05175,9.00876h9.50461V0.49528h4.38165v22.00947h-4.38165v-9.80053h-9.50461v9.80053H18.6701V0.49528
		h4.38165C23.05175,0.49528,23.05175,9.00876,23.05175,9.00876z"/>
	<path class="st0" d="M47.11337,0.49528v22.00947h-4.38165V0.49528H47.11337z"/>
	<path class="st0" d="M57.29059,0.49528v18.31401h6.94282v3.69546H52.90894V0.49528H57.29059z"/>
	<path class="st0" d="M90.85806,11.51621C90.85806,18.21498,85.93745,23,78.85912,23c-7.07773,0-11.99833-4.78502-11.99833-11.48379
		c-0.00002-6.69816,4.9206-11.51619,11.99833-11.51619C85.93745,0.00002,90.85806,4.81806,90.85806,11.51621z M86.34214,11.51621
		c0-4.45423-3.10137-7.62203-7.48304-7.62203c-4.38102,0-7.48241,3.16779-7.48241,7.62203
		c0,4.45484,3.10137,7.58962,7.48241,7.58962C83.24076,19.10583,86.34214,15.97105,86.34214,11.51621z"/>
	<path class="st0" d="M106.62788,5.51079c-1.314-1.71566-2.86469-1.88075-3.67344-1.88075
		c-2.35945,0-3.10076,1.45153-3.10076,2.57349c0,0.52827,0.16801,1.02291,0.70759,1.48515
		c0.53958,0.49525,1.2809,0.75878,2.69669,1.25404c1.7524,0.59369,3.40365,1.188,4.54964,2.21091
		c1.01111,0.89084,1.92167,2.37539,1.92167,4.61932c0,4.28976-3.16884,7.22704-7.81966,7.22704
		c-4.14558,0-6.57248-2.47505-7.7522-4.15831l2.86469-2.67253c1.07855,2.14487,3.13448,2.93667,4.71889,2.93667
		c1.98847,0,3.47173-1.188,3.47173-3.03573c0-0.7918-0.2698-1.41911-0.87683-1.9798c-0.84248-0.75878-2.1902-1.188-3.4711-1.6166
		c-1.17973-0.3962-2.59552-0.92447-3.74152-1.91438c-0.74129-0.62671-1.78614-1.84773-1.78614-4.09166
		C95.33714,3.23383,97.56169,0,102.54975,0c1.41579,0,4.07813,0.26414,6.37013,2.57409L106.62788,5.51079z"/>
	<path class="st0" d="M137.16144,11.51621c0,6.69877-4.92062,11.48379-11.99896,11.48379
		c-7.07771,0-11.99834-4.78502-11.99834-11.48379c0-6.69816,4.92062-11.51619,11.99834-11.51619
		C132.24081,0.00002,137.16144,4.81806,137.16144,11.51621z M132.64552,11.51621c0-4.45423-3.10138-7.62203-7.48305-7.62203
		c-4.38103,0-7.48241,3.16779-7.48241,7.62203c0,4.45484,3.10138,7.58962,7.48241,7.58962
		C129.54413,19.10583,132.64552,15.97105,132.64552,11.51621z"/>
	<path class="st0" d="M148.41531,0.49528c2.52745,0,4.28049,0.26414,5.93172,1.68264
		c1.81984,1.5842,2.29199,3.72908,2.29199,5.31268c0,0.85783-0.13489,3.23382-1.85358,4.91708
		c-1.24718,1.2204-3.10077,1.94678-5.69629,1.94678h-2.83096v8.1503h-4.38165V0.49528H148.41531z M146.25821,10.65839h1.78615
		c0.84248,0,1.92102,0,2.86467-0.69275c0.80939-0.62732,1.21344-1.61722,1.21344-2.57409c0-1.22102-0.6064-2.04582-1.24716-2.50746
		c-0.90994-0.62732-2.05592-0.69336-3.10077-0.69336h-1.51634C146.25819,4.19073,146.25819,10.65839,146.25821,10.65839z"/>
	<path class="st0" d="M164.92833,9.00876h9.50462V0.49528h4.38164v22.00947h-4.38164v-9.80053h-9.50462v9.80053h-4.38165V0.49528
		h4.38165V9.00876z"/>
	<path class="st0" d="M189.69753,12.44069l-7.71849-11.94541h5.19041l4.82008,7.65566l4.81943-7.65566H202l-7.92082,11.94541
		v10.06406h-4.38165V12.44069z"/>
</g>
</svg>
