<?xml version="1.0" encoding="utf-8"?>
<!-- Generator: Adobe Illustrator 22.1.0, SVG Export Plug-In . SVG Version: 6.00 Build 0)  -->
<svg version="1.1" id="レイヤー_1" xmlns="http://www.w3.org/2000/svg" xmlns:xlink="http://www.w3.org/1999/xlink" x="0px"
	 y="0px" width="216px" height="24px" viewBox="0 0 216 24" style="enable-background:new 0 0 216 24;" xml:space="preserve">
<style type="text/css">
	.st0{fill:#0c2041;}
</style>
<g>
	<path class="st0" d="M11.26232,23.48321H7.91714L0,0.51679h4.70981l5.08417,15.63251l5.56349-15.83923h2.45734l5.2549,15.83923
		l5.46105-15.63251h4.70981l-8.42936,22.96643h-3.34518L16.48308,8.91809L11.26232,23.48321z"/>
	<path class="st0" d="M41.01735,9.40043h9.62324V0.51679h4.43664v22.96643h-4.43664V13.25656h-9.62324v10.22665h-4.43664V0.51679
		h4.43664V9.40043z"/>
	<path class="st0" d="M74.42488,18.66241H65.2443l-2.01343,4.8208h-4.81225l9.79399-22.96643h3.48177l9.52206,22.96643h-4.7781
		L74.42488,18.66241z M73.1273,15.013l-3.24148-8.26413L66.64309,15.013H73.1273z"/>
	<path class="st0" d="M91.72498,4.37292v19.11029h-4.43665V4.37292h-5.11958V0.51679h14.67452v3.85613H91.72498z"/>
	<path class="st0" d="M117.69091,23.48321h-3.34518l-7.91715-22.96643h4.70982l5.08417,15.63251l5.56349-15.83923h2.45734
		l5.2549,15.83923l5.46107-15.63251h4.70981l-8.42937,22.96643h-3.34517l-4.98298-14.56512L117.69091,23.48321z"/>
	<path class="st0" d="M155.63625,4.37292h-8.19031v5.13087h7.84885v3.85613h-7.84885v6.26717h8.19031v3.85613h-12.62694V0.51679
		h12.62694V4.37292z"/>
	<path class="st0" d="M175.18755,0.51679c3.17444,0,5.93784,0.34452,8.46349,2.23813
		c2.76466,2.10033,4.36833,5.44031,4.36833,9.26199c0,3.82232-1.5695,7.12784-4.57321,9.26263
		c-2.66096,1.89361-5.15247,2.20368-8.32692,2.20368h-5.86955V0.51679H175.18755z M173.68631,19.62708h1.36464
		c1.12686,0,3.5842-0.06891,5.56349-1.51527c1.80855-1.30856,2.83171-3.65005,2.83171-6.09491
		c0-2.40976-0.98903-4.75125-2.79756-6.12872c-1.84396-1.37747-4.09644-1.51527-5.59764-1.51527h-1.36464V19.62708z"/>
	<path class="st0" d="M216,12.01691C216,19.00693,211.01701,24,203.85112,24c-7.16716,0-12.15016-4.99307-12.15016-11.98309
		C191.70096,5.02752,196.68396,0,203.85112,0C211.01701,0,216,5.02752,216,12.01691z M211.42677,12.01691
		c0-4.64789-3.13902-7.95343-7.57565-7.95343s-7.57693,3.30552-7.57693,7.95343c0,4.64853,3.1403,7.91961,7.57693,7.91961
		S211.42677,16.66544,211.42677,12.01691z"/>
</g>
</svg>
