<?xml version="1.0" encoding="utf-8"?>
<!-- Generator: Adobe Illustrator 22.1.0, SVG Export Plug-In . SVG Version: 6.00 Build 0)  -->
<svg version="1.1" id="レイヤー_1" xmlns="http://www.w3.org/2000/svg" xmlns:xlink="http://www.w3.org/1999/xlink" x="0px"
	 y="0px" width="122px" height="24px" viewBox="0 0 122 24" style="enable-background:new 0 0 122 24;" xml:space="preserve">
<style type="text/css">
	.st0{fill:#0C2041;}
</style>
<g>
	<path class="st0" d="M11.3,23.5H7.9L0,0.5h4.7l5.1,15.6l5.6-15.8h2.5l5.3,15.8l5.5-15.6h4.7l-8.5,23h-3.4l-5-14.6L11.3,23.5z"/>
	<path class="st0" d="M60,12c0,7-5,12-12.2,12c-7.2,0-12.2-5-12.2-12c0-7,5-12,12.2-12C55,0,60,5,60,12z M55.4,12c0-4.6-3.2-8-7.6-8
		c-4.5,0-7.6,3.3-7.6,8c0,4.6,3.2,7.9,7.6,7.9C52.3,19.9,55.4,16.7,55.4,12z"/>
	<path class="st0" d="M71.4,0.5c3.2,0,4.8,0.8,5.8,1.7c1.7,1.5,2.3,3.4,2.3,5.2c0,2.2-0.9,4.2-2.7,5.4c-0.6,0.4-1.4,0.8-2.5,1
		l7.1,9.7h-5.5l-6.1-9.2h-0.5v9.2h-4.5v-23H71.4z M69.3,11.1h1.3c0.9,0,4.4-0.1,4.4-3.5c0-3.4-3.5-3.4-4.3-3.4h-1.3V11.1z"/>
	<path class="st0" d="M89.6,10.2L98,0.5h5.6l-9.7,10.6l10.2,12.4h-5.9l-8.1-10.3l-0.5,0.5v9.8h-4.5v-23h4.5V10.2z"/>
	<path class="st0" d="M118.8,5.8c-1.3-1.8-2.9-2-3.7-2c-2.4,0-3.2,1.5-3.2,2.7c0,0.6,0.2,1.1,0.7,1.5c0.5,0.5,1.3,0.8,2.7,1.3
		c1.8,0.6,3.5,1.2,4.6,2.3c1,0.9,2,2.5,2,4.8c0,4.5-3.2,7.5-7.9,7.5c-4.2,0-6.7-2.6-7.9-4.3l2.9-2.8c1.1,2.2,3.2,3.1,4.8,3.1
		c2,0,3.5-1.2,3.5-3.2c0-0.8-0.3-1.5-0.9-2.1c-0.9-0.8-2.2-1.2-3.5-1.7c-1.2-0.4-2.6-1-3.8-2c-0.8-0.7-1.8-1.9-1.8-4.3
		c0-3.4,2.3-6.7,7.3-6.7c1.4,0,4.1,0.3,6.5,2.7L118.8,5.8z"/>
</g>
</svg>
