<?xml version="1.0" encoding="utf-8"?>
<!-- Generator: Adobe Illustrator 21.1.0, SVG Export Plug-In . SVG Version: 6.00 Build 0)  -->
<svg version="1.1" id="レイヤー_1" xmlns="http://www.w3.org/2000/svg" xmlns:xlink="http://www.w3.org/1999/xlink" x="0px"
	 y="0px" width="60.3px" height="62px" viewBox="0 0 60.3 62" style="enable-background:new 0 0 60.3 62;" xml:space="preserve">
<style type="text/css">
	.st0{fill:#FFFFFF;}
</style>
<g>
	<g>
		<path class="st0" d="M5.6,14.1c-0.4,0-0.7,0.3-0.7,0.7v25.6c0,0.4,0.3,0.7,0.7,0.7h49.2c0.4,0,0.7-0.3,0.7-0.7V14.8
			c0-0.4-0.3-0.7-0.7-0.7H5.6z M54,39.6h-5.5l-11-14.8c-0.3-0.4-0.9-0.4-1.2,0l-8.1,10.9l-6-7.1c-0.3-0.3-0.8-0.3-1.1,0l-9.4,11H6.3
			V15.5H54V39.6z M46.8,39.6H27.2l3-4.1h6.2c0.4,0,0.7-0.3,0.7-0.7s-0.3-0.7-0.7-0.7h-5.1l1.6-2.2h8.1L46.8,39.6z M25.4,39.6H13.7
			l8-9.4l5.7,6.7L25.4,39.6z M40,30.5h-6l3-4L40,30.5z"/>
	</g>
	<g>
		<path class="st0" d="M3.5,0C1.6,0,0,1.6,0,3.6v38.9c0,2,1.6,3.6,3.5,3.6h53.3c1.9,0,3.5-1.6,3.5-3.6V3.6c0-2-1.6-3.6-3.5-3.6H3.5z
			 M56.8,44.6H3.5c-1.1,0-2.1-0.9-2.1-2.1V10.6h57.5v31.8C58.9,43.6,58,44.6,56.8,44.6z M58.9,9.2H1.4V3.6c0-1.2,0.9-2.1,2.1-2.1
			h53.3c1.1,0,2.1,0.9,2.1,2.1V9.2z"/>
	</g>
	<g>
		<path class="st0" d="M53.5,4.6c0,0-0.1,0-0.1,0c0,0-0.1,0-0.1,0c0,0-0.1,0-0.1,0.1c0,0-0.1,0.1-0.1,0.1c0,0-0.1,0.1-0.1,0.1
			c0,0,0,0.1-0.1,0.1c0,0,0,0.1,0,0.1c0,0,0,0.1,0,0.1s0,0.1,0,0.1c0,0,0,0.1,0,0.1c0,0,0,0.1,0.1,0.1c0,0,0.1,0.1,0.1,0.1
			c0,0,0.1,0.1,0.1,0.1c0,0,0.1,0.1,0.1,0.1c0,0,0.1,0,0.1,0c0.1,0,0.2,0,0.3,0c0,0,0.1,0,0.1,0c0,0,0.1,0,0.1-0.1
			c0,0,0.1-0.1,0.1-0.1c0,0,0.1-0.1,0.1-0.1c0,0,0.1-0.1,0.1-0.1c0,0,0-0.1,0-0.1c0,0,0-0.1,0-0.1c0,0,0-0.1,0-0.1c0,0,0-0.1,0-0.1
			c0,0,0-0.1-0.1-0.1c0,0-0.1-0.1-0.1-0.1c0,0-0.1-0.1-0.1-0.1c0,0-0.1-0.1-0.1-0.1c0,0-0.1,0-0.1,0C53.6,4.6,53.6,4.6,53.5,4.6z"/>
	</g>
	<g>
		<path class="st0" d="M25.5,4.6c-0.4,0-0.7,0.3-0.7,0.7c0,0.4,0.3,0.7,0.7,0.7H49c0.4,0,0.7-0.3,0.7-0.7c0-0.4-0.3-0.7-0.7-0.7
			H25.5z"/>
	</g>
	<g>
		<path class="st0" d="M11.2,4.6c0,0-0.1,0-0.1,0c0,0-0.1,0-0.1,0c0,0-0.1,0-0.1,0.1c0,0-0.1,0.1-0.1,0.1c0,0-0.1,0.1-0.1,0.1
			c0,0,0,0.1-0.1,0.1c0,0,0,0.1,0,0.1c0,0,0,0.1,0,0.1c0,0,0,0.1,0,0.1c0,0,0,0.1,0,0.1c0,0,0,0.1,0.1,0.1c0,0,0.1,0.1,0.1,0.1
			c0,0,0.1,0.1,0.1,0.1c0,0,0.1,0,0.1,0.1c0,0,0.1,0,0.1,0c0.1,0,0.2,0,0.3,0c0,0,0.1,0,0.1,0c0,0,0.1,0,0.1-0.1
			c0,0,0.1-0.1,0.1-0.1c0,0,0.1-0.1,0.1-0.1c0,0,0-0.1,0.1-0.1c0,0,0-0.1,0-0.1c0-0.1,0-0.1,0-0.1c0,0,0-0.1,0-0.1
			c0-0.1,0-0.1,0-0.1l0,0c0,0,0-0.1-0.1-0.1c0,0-0.1-0.1-0.1-0.1c0,0-0.1-0.1-0.1-0.1c0,0-0.1-0.1-0.1-0.1c0,0-0.1,0-0.1,0
			C11.3,4.6,11.3,4.6,11.2,4.6z"/>
	</g>
	<g>
		<path class="st0" d="M15.7,4.6c0,0-0.1,0-0.1,0c0,0-0.1,0-0.1,0c0,0-0.1,0-0.1,0.1c0,0-0.1,0.1-0.1,0.1c0,0-0.1,0.1-0.1,0.1
			C15,4.9,15,5,15,5c0,0,0,0.1,0,0.1c0,0.1,0,0.1,0,0.1c0,0,0,0.1,0,0.1c0,0,0,0.1,0,0.1c0,0,0,0.1,0.1,0.1c0,0,0.1,0.1,0.1,0.1
			c0,0,0.1,0.1,0.1,0.1c0,0,0.1,0.1,0.1,0.1c0,0,0.1,0,0.1,0c0.1,0,0.2,0,0.3,0c0.1,0,0.1,0,0.1,0c0,0,0.1,0,0.1-0.1
			c0,0,0.1-0.1,0.1-0.1c0,0,0.1-0.1,0.1-0.1c0,0,0.1-0.1,0.1-0.1c0,0,0-0.1,0-0.1c0,0,0-0.1,0-0.1c0,0,0-0.1,0-0.1c0,0,0-0.1,0-0.1
			c0,0,0-0.1-0.1-0.1c0,0-0.1-0.1-0.1-0.1c0,0-0.1-0.1-0.1-0.1c0,0-0.1-0.1-0.1-0.1c0,0-0.1,0-0.1,0C15.7,4.6,15.7,4.6,15.7,4.6z"/>
	</g>
	<g>
		<path class="st0" d="M6.8,4.6c0,0-0.1,0-0.1,0c0,0-0.1,0-0.1,0c0,0-0.1,0-0.1,0.1c0,0-0.1,0.1-0.1,0.1c0,0-0.1,0.1-0.1,0.1
			c0,0,0,0.1-0.1,0.1c0,0,0,0.1,0,0.1c0,0,0,0.1,0,0.1c0,0.2,0.1,0.4,0.2,0.5c0,0,0.1,0.1,0.1,0.1c0,0,0.1,0,0.1,0.1
			c0,0,0.1,0,0.1,0c0.1,0,0.2,0,0.3,0C7,6,7,6,7.1,6c0,0,0.1,0,0.1-0.1c0,0,0.1-0.1,0.1-0.1c0.1-0.1,0.2-0.3,0.2-0.5
			c0,0,0-0.1,0-0.1c0,0,0-0.1,0-0.1c0,0,0-0.1-0.1-0.1c0,0-0.1-0.1-0.1-0.1C7.2,4.7,7,4.6,6.8,4.6z"/>
	</g>
	<g>
		<path class="st0" d="M27.1,19.2c-2.1,0-3.8,1.7-3.8,3.9s1.7,3.9,3.8,3.9c2.1,0,3.8-1.7,3.8-3.9S29.2,19.2,27.1,19.2z M27.1,25.4
			c-1.3,0-2.4-1.1-2.4-2.4c0-1.3,1.1-2.4,2.4-2.4c1.3,0,2.4,1.1,2.4,2.4C29.5,24.4,28.4,25.4,27.1,25.4z"/>
	</g>
	<g>
		<path class="st0" d="M9,48.5c-0.2,0-0.3,0-0.4,0.1l-8.2,6C0.2,54.8,0,55,0,55.3c0,0.2,0.1,0.5,0.3,0.6l8.2,6C8.7,62,8.8,62,9,62
			h47.3c2.2,0,4.1-1.8,4.1-4.1v-5.3c0-2.3-1.8-4.1-4.1-4.1C56.3,48.5,9,48.5,9,48.5z M56.3,60.5h-4.8V50h4.8c1.4,0,2.6,1.2,2.6,2.6
			v5.3C58.9,59.4,57.7,60.5,56.3,60.5z M50,60.5H9.9v-6.8H50v3.1H22.2c-0.4,0-0.7,0.3-0.7,0.7c0,0.4,0.3,0.7,0.7,0.7H50L50,60.5
			L50,60.5z M8.5,60L2,55.3l6.5-4.7C8.5,50.6,8.5,60,8.5,60z M50,52.2H9.9V50H50V52.2z"/>
	</g>
	<g>
		<path class="st0" d="M17.6,56.8c0,0-0.1,0-0.1,0c0,0-0.1,0-0.1,0c0,0-0.1,0-0.1,0.1c0,0-0.1,0.1-0.1,0.1c0,0-0.1,0.1-0.1,0.1
			c0,0,0,0.1-0.1,0.1c0,0,0,0.1,0,0.1c0,0,0,0.1,0,0.1c0,0.1,0,0.1,0,0.1c0,0,0,0.1,0,0.1c0,0,0,0.1,0.1,0.1c0,0,0.1,0.1,0.1,0.1
			c0,0,0.1,0.1,0.1,0.1c0,0,0.1,0,0.1,0.1c0,0,0.1,0,0.1,0c0.1,0,0.2,0,0.3,0c0,0,0.1,0,0.1,0c0,0,0.1,0,0.1-0.1
			c0,0,0.1-0.1,0.1-0.1c0,0,0.1-0.1,0.1-0.1c0,0,0.1-0.1,0.1-0.1c0,0,0-0.1,0-0.1c0,0,0-0.1,0-0.1c0,0,0-0.1,0-0.1c0,0,0-0.1,0-0.1
			c0,0,0-0.1-0.1-0.1c0,0-0.1-0.1-0.1-0.1c0,0-0.1-0.1-0.1-0.1c0,0-0.1-0.1-0.1-0.1c0,0-0.1,0-0.1,0C17.7,56.8,17.7,56.8,17.6,56.8z
			"/>
	</g>
</g>
</svg>
