<?xml version="1.0" encoding="utf-8"?>
<!-- Generator: Adobe Illustrator 21.1.0, SVG Export Plug-In . SVG Version: 6.00 Build 0)  -->
<svg version="1.1" id="レイヤー_1" xmlns="http://www.w3.org/2000/svg" xmlns:xlink="http://www.w3.org/1999/xlink" x="0px"
	 y="0px" width="60px" height="57px" viewBox="0 0 60 57" style="enable-background:new 0 0 60 57;" xml:space="preserve">
<style type="text/css">
	.st0{fill:#FFFFFF;}
</style>
<g>
	<g>
		<path class="st0" d="M2.7,1.2c-0.4,0-0.9,0.1-1.3,0.3C0.5,2,0,2.9,0,3.8V44c0,0.9,0.5,1.7,1.3,2.2l17.2,10.5
			c0.9,0.5,1.9,0.5,2.8,0l18.1-10.4c0.4-0.3,1-0.2,1.4,0l15.1,9.1c0.8,0.5,1.9,0.5,2.7,0.1c0.9-0.5,1.4-1.3,1.4-2.3V13
			c0-0.9-0.5-1.7-1.3-2.2v0L41.5,0.4c-0.9-0.5-1.9-0.5-2.8,0L20.6,10.8c-0.4,0.3-1,0.2-1.4,0L4.1,1.6C3.7,1.4,3.2,1.2,2.7,1.2z
			 M20.6,55.6V12.2l0.2-0.1c0.2-0.1,0.3-0.1,0.5-0.2L39.4,1.4v43.4l-0.2,0.1c-0.2,0.1-0.3,0.1-0.5,0.2L20.6,55.6z M19.2,55.5L2,45.1
			c-0.4-0.2-0.6-0.7-0.6-1.1V3.8c0-0.5,0.3-0.9,0.7-1.1c0.2-0.1,0.4-0.2,0.7-0.2c0.3,0,0.5,0.1,0.7,0.2l15.1,9.1
			c0.2,0.1,0.3,0.2,0.5,0.2l0.2,0.1V55.5z M57.3,54.5c-0.3,0-0.5-0.1-0.7-0.2l-15.1-9.1C41.4,45,41.2,45,41,44.9l-0.2-0.1V1.5
			L58,11.9c0.4,0.2,0.6,0.7,0.6,1.1v40.1c0,0.5-0.3,0.9-0.7,1.1C57.8,54.4,57.5,54.5,57.3,54.5z"/>
	</g>
	<g>
		<path class="st0" d="M4.7,8.4c-0.1,0-0.2,0-0.3,0.1C4.2,8.6,4,8.8,4,9.1v11.7c0,0.2,0.1,0.4,0.3,0.5l11.1,6.8
			c0.2,0.1,0.5,0.1,0.7,0c0.2-0.1,0.3-0.3,0.3-0.6V15.9c0-0.2-0.1-0.4-0.3-0.5L5.1,8.5C5,8.4,4.8,8.4,4.7,8.4z M15.2,26.4l-9.8-6
			v-2.2l3.1-1.5l1.7,3.3c0.1,0.3,0.5,0.4,0.8,0.3c0.3-0.1,0.5-0.3,0.5-0.6l0-0.3h1l2.7,4.4V26.4z M15.2,21.3l-1.8-2.9
			c-0.1-0.2-0.3-0.3-0.6-0.3h-2.1l-1.3-2.6c-0.1-0.2-0.2-0.3-0.4-0.3c-0.2-0.1-0.4,0-0.5,0l-3.1,1.5v-6.5l9.8,6V21.3z"/>
	</g>
	<g>
		<path class="st0" d="M4.7,25.9c0,0-0.1,0-0.1,0c-0.2,0-0.3,0.1-0.4,0.3c-0.1,0.1-0.1,0.3-0.1,0.5c0,0.2,0.1,0.3,0.3,0.4l11.1,6.8
			C15.6,34,15.8,34,16,34c0.2,0,0.3-0.1,0.4-0.3c0.1-0.1,0.1-0.3,0.1-0.5c0-0.2-0.1-0.3-0.3-0.4L5.1,26C5,25.9,4.8,25.9,4.7,25.9z"
			/>
	</g>
	<g>
		<path class="st0" d="M4.7,30.8c-0.2,0-0.4,0.1-0.6,0.3c-0.1,0.1-0.1,0.3-0.1,0.5c0,0.2,0.1,0.3,0.3,0.4l11.1,6.8
			c0.3,0.2,0.7,0.1,0.9-0.2c0.1-0.1,0.1-0.3,0.1-0.5c0-0.2-0.1-0.3-0.3-0.4L5.1,30.9C5,30.8,4.8,30.8,4.7,30.8z"/>
	</g>
	<g>
		<path class="st0" d="M44.2,8.4c-0.1,0-0.2,0-0.3,0.1c-0.2,0.1-0.3,0.3-0.3,0.6v11.7c0,0.2,0.1,0.4,0.3,0.5l11.1,6.8
			c0.2,0.1,0.5,0.1,0.7,0c0.2-0.1,0.3-0.3,0.3-0.6V15.9c0-0.2-0.1-0.4-0.3-0.5L44.5,8.5C44.4,8.4,44.3,8.4,44.2,8.4z M54.6,26.4
			l-9.8-6v-2.2l3.1-1.5l1.7,3.3c0.1,0.3,0.4,0.4,0.7,0.3c0.3-0.1,0.5-0.3,0.5-0.6l0-0.3h1l2.7,4.4V26.4z M54.6,21.3l-1.8-2.9
			c-0.1-0.2-0.3-0.3-0.6-0.3h-2.1l-1.3-2.6c-0.1-0.2-0.2-0.3-0.4-0.3c-0.2-0.1-0.4,0-0.5,0l-3.1,1.5v-6.5l9.8,6
			C54.6,16.2,54.6,21.3,54.6,21.3z"/>
	</g>
	<g>
		<path class="st0" d="M44.2,25.9c0,0-0.1,0-0.1,0c-0.2,0-0.3,0.1-0.4,0.3c-0.2,0.3-0.1,0.7,0.2,0.9l11.1,6.8c0.2,0.1,0.5,0.1,0.7,0
			c0.2-0.1,0.3-0.3,0.4-0.5c0-0.2-0.1-0.4-0.3-0.6L44.5,26C44.4,25.9,44.3,25.9,44.2,25.9z"/>
	</g>
	<g>
		<path class="st0" d="M44.2,30.8c0,0-0.1,0-0.1,0c-0.2,0-0.3,0.1-0.4,0.3c-0.2,0.3-0.1,0.7,0.2,0.9l11.1,6.8c0.2,0.1,0.5,0.1,0.7,0
			c0.2-0.1,0.3-0.3,0.4-0.5c0-0.2-0.1-0.4-0.3-0.6l-11.1-6.8C44.4,30.8,44.3,30.8,44.2,30.8z"/>
	</g>
	<g>
		<path class="st0" d="M36.1,25.9c-0.1,0-0.3,0-0.4,0.1h0l-11.1,6.8c-0.2,0.1-0.3,0.3-0.3,0.6c0,0.2,0.1,0.4,0.4,0.5
			c0.2,0.1,0.5,0.1,0.7,0l11.1-6.8c0.2-0.1,0.3-0.3,0.3-0.6c0-0.2-0.1-0.4-0.4-0.5C36.3,25.9,36.2,25.9,36.1,25.9z"/>
	</g>
	<g>
		<path class="st0" d="M36.1,30.8c-0.1,0-0.3,0-0.4,0.1h0l-11.1,6.8c-0.2,0.1-0.3,0.3-0.3,0.6c0,0.2,0.1,0.4,0.4,0.5
			c0.2,0.1,0.5,0.1,0.7,0L36.4,32c0.2-0.1,0.3-0.3,0.3-0.6c0-0.2-0.1-0.4-0.4-0.5C36.3,30.8,36.2,30.8,36.1,30.8z"/>
	</g>
	<g>
		<path class="st0" d="M36.1,13.3c-0.1,0-0.3,0-0.4,0.1h0l-11.1,6.8c-0.3,0.2-0.4,0.6-0.2,0.9c0.2,0.3,0.6,0.4,0.9,0.2l11.1-6.8
			c0.2-0.1,0.3-0.3,0.3-0.6c0-0.2-0.1-0.4-0.4-0.5C36.3,13.3,36.2,13.3,36.1,13.3z"/>
	</g>
	<g>
		<path class="st0" d="M35.7,18.2L24.6,25c-0.2,0.1-0.3,0.3-0.3,0.6c0,0.2,0.1,0.4,0.4,0.5c0.2,0.1,0.5,0.1,0.7,0l11.1-6.8
			c0.2-0.1,0.3-0.3,0.3-0.6c0-0.2-0.1-0.4-0.4-0.5C36.2,18.1,35.9,18.1,35.7,18.2L35.7,18.2z"/>
	</g>
</g>
</svg>
