<?xml version="1.0" encoding="utf-8"?>
<!-- Generator: Adobe Illustrator 25.0.0, SVG Export Plug-In . SVG Version: 6.00 Build 0)  -->
<svg version="1.1" id="レイヤー_1" xmlns="http://www.w3.org/2000/svg" xmlns:xlink="http://www.w3.org/1999/xlink" x="0px"
	 y="0px" viewBox="0 0 61 59" style="enable-background:new 0 0 61 59;" xml:space="preserve">
<style type="text/css">
	.st0{fill-rule:evenodd;clip-rule:evenodd;fill:#E8E8E8;}
</style>
<g>
	<path class="st0" d="M55.5,46.2c-0.6-1.8-3.2-1.8-5.2-1.8c-1.9,0-4.5,1.8-5.8,2.9c0-0.6-1.3-1.2-1.9-1.8c-1.9-0.6-3.2-1.2-4.5-2.3
		c-2.6-1.8-7.1-2.9-10.3-2.9c-0.6,0-3.2,0.6-6.5,1.8c-1.3,0-3.2,0-3.9,0l0,0c0-0.6-0.6-0.6-1.3-0.6c-7.8,0-7.8,0-7.8,0
		c-0.6,0-0.6,0-0.6,0.6c0,14.6,0,14.6,0,14.6c0,0.6,0,1.2,0.6,1.2c7.8,0,7.8,0,7.8,0c0.6,0,1.3-0.6,1.3-1.2c0-2.9,0-2.9,0-2.9
		c2.6-0.6,5.8-0.6,7.1,0c3.2,1.2,11.6,4.1,13.6,4.1c1.3,0,4.5-1.8,8.4-3.5c1.3-0.6,1.3-0.6,1.3-0.6c2.6-1.2,5.2-4.1,7.1-5.3
		c0-0.6,0-0.6,0.6-0.6C56.2,47.3,56.2,46.7,55.5,46.2L55.5,46.2z M15.4,56.1c-5.8,0-5.8,0-5.8,0c0-12.8,0-12.8,0-12.8
		c5.8,0,5.8,0,5.8,0l0,0c0,9.9,0,9.9,0,9.9V56.1L15.4,56.1L15.4,56.1z M52.9,47.3c-1.3,1.2-3.9,3.5-5.8,4.7
		c-1.3,0.6-1.3,0.6-1.3,0.6c-2.6,1.2-7.1,3.5-7.8,3.5c-1.3,0-9.1-2.3-12.3-4.1c-1.3,0-2.6-0.6-3.9-0.6C20,51.4,18,52,17.4,52
		c0-8.2,0-8.2,0-8.2c0.6,0,2.6,0,4.5,0c3.2-1.2,5.2-1.8,6.5-1.8c1.9,0,5.8,0.6,8.4,2.9c1.3,0.6,3.2,1.8,4.5,2.3
		c0.6,0.6,1.3,0.6,1.9,1.2c-0.6,0.6-2.6,1.2-3.9,1.2c-1.3,0-4.5-1.2-6.5-2.3c-0.6-0.6-1.3,0-1.3,0c-0.6,0.6-0.6,1.2,0,1.2
		c0.6,0.6,5.2,2.9,7.8,2.9c2.6,0,5.2-1.8,5.8-2.3c1.3-1.2,3.9-2.9,5.2-2.9c1.3,0,2.6,0,3.2,0.6C53.6,46.7,53.6,46.7,52.9,47.3
		L52.9,47.3z"/>
</g>
<g>
	<path class="st0" d="M50.6,15.6c-3.1-4.2-3.1-4.2-3.1-4.2c-0.3-0.3-0.3-0.3-0.5-0.5c0-5,0-5,0-5c0-1-1-2.1-2.1-2.1
		C24,3.8,24,3.8,24,3.8c-1,0-2.1,1-2.1,2.1c0,5,0,5,0,5c-0.3,0.3-0.3,0.3-0.5,0.5c-3.1,4.2-3.1,4.2-3.1,4.2c-0.3,0.5-0.5,1-0.5,1.8
		c0,1,0,1,0,1c0,1.8,1.3,3.1,3.1,3.1l0,0c0,13.6,0,13.6,0,13.6c0,1,1,2.1,2.1,2.1c23,0,23,0,23,0c1,0,2.1-1,2.1-2.1
		c0-13.6,0-13.6,0-13.6l0,0c1.8,0,3.1-1.3,3.1-3.1c0-1,0-1,0-1C51.1,16.6,50.8,16.1,50.6,15.6L50.6,15.6z M44.8,5.9
		c0,4.2,0,4.2,0,4.2c-20.9,0-20.9,0-20.9,0l0,0c0-4.2,0-4.2,0-4.2H44.8L44.8,5.9L44.8,5.9z M28.4,19.5c-4.4,0-4.4,0-4.4,0
		c4.2-7.3,4.2-7.3,4.2-7.3c2.3,0,2.3,0,2.3,0L28.4,19.5L28.4,19.5L28.4,19.5z M31.5,12.2c2.3,0,2.3,0,2.3,0c0,7.3,0,7.3,0,7.3
		c-4.4,0-4.4,0-4.4,0L31.5,12.2L31.5,12.2L31.5,12.2z M34.9,12.2c2.3,0,2.3,0,2.3,0c2.1,7.3,2.1,7.3,2.1,7.3c-4.4,0-4.4,0-4.4,0
		V12.2L34.9,12.2L34.9,12.2z M38.3,12.2c2.3,0,2.3,0,2.3,0c4.2,7.3,4.2,7.3,4.2,7.3c-4.4,0-4.4,0-4.4,0L38.3,12.2L38.3,12.2
		L38.3,12.2z M19.8,18.4c0-1,0-1,0-1c0-0.3,0-0.5,0.3-0.5c3.1-4.2,3.1-4.2,3.1-4.2c0.3-0.3,0.5-0.5,0.8-0.5c2.9,0,2.9,0,2.9,0
		c-4.2,7.3-4.2,7.3-4.2,7.3c-1.8,0-1.8,0-1.8,0C20.3,19.5,19.8,19,19.8,18.4L19.8,18.4z M38.6,35.2c-7.8,0-7.8,0-7.8,0
		c0-10.5,0-10.5,0-10.5c7.8,0,7.8,0,7.8,0V35.2L38.6,35.2L38.6,35.2z M45.9,35.2c-6.3,0-6.3,0-6.3,0c0-10.5,0-10.5,0-10.5
		c0-0.5-0.5-1-1-1c-7.8,0-7.8,0-7.8,0c-0.5,0-1,0.5-1,1c0,10.5,0,10.5,0,10.5c-6.8,0-6.8,0-6.8,0c0-13.6,0-13.6,0-13.6
		c23,0,23,0,23,0V35.2L45.9,35.2L45.9,35.2z M49,18.4c0,0.5-0.5,1-1,1c-1.8,0-1.8,0-1.8,0C42,12.2,42,12.2,42,12.2
		c2.9,0,2.9,0,2.9,0l0,0c0.3,0,0.5,0.3,0.8,0.5c3.1,4.2,3.1,4.2,3.1,4.2c0.3,0,0.3,0.3,0.3,0.5V18.4L49,18.4L49,18.4z"/>
</g>
</svg>
