<?xml version="1.0" encoding="utf-8"?>
<!-- Generator: Adobe Illustrator 21.1.0, SVG Export Plug-In . SVG Version: 6.00 Build 0)  -->
<svg version="1.1" id="レイヤー_1" xmlns="http://www.w3.org/2000/svg" xmlns:xlink="http://www.w3.org/1999/xlink" x="0px"
	 y="0px" width="59px" height="59px" viewBox="0 0 59 59" style="enable-background:new 0 0 59 59;" xml:space="preserve">
<style type="text/css">
	.st0{fill:#FFFFFF;}
</style>
<g>
	<g>
		<path class="st0" d="M0,37.1h1.3V23.5c0-3,2.3-5.3,5.3-5.3h1.5l2.9,7.6c0.1,0.2,0.3,0.4,0.6,0.4c0.2,0,0.4-0.1,0.8-0.5l2.8-7.5
			h17.5v3.6H21.9v1.3h11.6c0.4,0,0.7-0.3,0.7-0.7v-5c0-0.4-0.3-0.7-0.7-0.7H6.6c-3.7,0-6.6,2.9-6.6,6.6V37.1z M11.7,23.6l-2.1-5.4
			h4.1L11.7,23.6z"/>
	</g>
	<g>
		<path d="M16.6,57.3"/>
		<path class="st0" d="M5,24.9v33.5C5,58.7,5.2,59,5.6,59h11.9c0.4,0,0.7-0.3,0.7-0.7V24.9h-1.3v32.8h-4.6V38.8h-1.3v18.9H6.3V24.9
			C6.3,24.9,5,24.9,5,24.9z"/>
	</g>
	<g>
		<path class="st0" d="M10.9,30.2h1.3v-1.3h-1.3V30.2z"/>
	</g>
	<g>
		<path class="st0" d="M10.9,34.1h1.3v-1.3h-1.3V34.1z"/>
	</g>
	<g>
		<path class="st0" d="M10.6,3C8,3,6,5,6,7.6v3c0,2.6,2,4.6,4.6,4.6h2c2.6,0,4.6-2,4.6-4.6v-3c0-2.6-2-4.6-4.6-4.6
			C12.6,3,10.6,3,10.6,3z M12.6,13.9h-2c-1.9,0-3.3-1.5-3.3-3.3v-3c0-1.9,1.5-3.3,3.3-3.3h2c1.9,0,3.3,1.4,3.3,3.3v3
			C15.9,12.5,14.5,13.9,12.6,13.9z"/>
	</g>
	<g>
		<path class="st0" d="M29.5,0c-0.4,0-0.7,0.3-0.7,0.7v11.9c0,0.4,0.3,0.7,0.7,0.7h21.9c0.4,0,0.7-0.3,0.7-0.7V0.7
			C52,0.3,51.8,0,51.4,0H29.5z M50.7,11.9H30.2V1.3h20.5V11.9z"/>
	</g>
	<g>
		<path d="M36.5,44.4"/>
		<path class="st0" d="M23.5,49.7c-0.4,0-0.7,0.3-0.7,0.7v7.9c0,0.4,0.3,0.7,0.7,0.7h13.9c0.4,0,0.7-0.3,0.7-0.7v-7.9
			c0-0.4-0.3-0.7-0.7-0.7h-6.3v-3.6h6.3c0.4,0,0.7-0.3,0.7-0.7v-8c0-0.4-0.3-0.7-0.7-0.7H23.5c-0.4,0-0.7,0.3-0.7,0.7v8
			c0,0.4,0.3,0.7,0.7,0.7h6.3v3.6C29.8,49.7,23.5,49.7,23.5,49.7z M36.8,57.7H24.2v-6.6h12.6L36.8,57.7L36.8,57.7z M36.8,44.7H24.2
			v-6.6h12.6L36.8,44.7L36.8,44.7z"/>
	</g>
	<g>
		<path d="M45.4,38.4"/>
		<path class="st0" d="M44.4,49.7c-0.4,0-0.7,0.3-0.7,0.7v7.9c0,0.4,0.3,0.7,0.7,0.7h13.9c0.4,0,0.7-0.3,0.7-0.7v-7.9
			c0-0.4-0.3-0.7-0.7-0.7H52v-3.6h6.3c0.4,0,0.7-0.3,0.7-0.7v-8c0-0.4-0.3-0.7-0.7-0.7H44.4c-0.4,0-0.7,0.3-0.7,0.7v8
			c0,0.4,0.3,0.7,0.7,0.7h6.3v3.6C50.7,49.7,44.4,49.7,44.4,49.7z M57.7,57.7H45.1v-6.6h12.6V57.7z M57.7,44.7H45.1v-6.6h12.6V44.7z
			"/>
	</g>
	<g>
		<path class="st0" d="M50.7,34.1H52v-2.7c0-0.4-0.2-0.7-0.7-0.7H41.1V15.9h-1.3v14.9h-9.3c-0.4,0-0.7,0.3-0.7,0.7v2.7h1.3v-2h19.5
			C50.7,32.2,50.7,34.1,50.7,34.1z"/>
	</g>
	<g>
		<path class="st0" d="M32.8,5.3h11.3V4H32.8V5.3z"/>
	</g>
	<g>
		<path class="st0" d="M32.8,9.3h15.3V7.9H32.8V9.3z"/>
	</g>
	<g>
		<path class="st0" d="M27.8,42.1h1.3v-1.3h-1.3V42.1z"/>
	</g>
	<g>
		<path class="st0" d="M31.8,42.1h1.3v-1.3h-1.3V42.1z"/>
	</g>
	<g>
		<path class="st0" d="M27.8,55h1.3v-1.3h-1.3V55z"/>
	</g>
	<g>
		<path class="st0" d="M31.8,55h1.3v-1.3h-1.3V55z"/>
	</g>
	<g>
		<path class="st0" d="M48.7,55h1.3v-1.3h-1.3V55z"/>
	</g>
	<g>
		<path class="st0" d="M52.7,55H54v-1.3h-1.3V55z"/>
	</g>
	<g>
		<path class="st0" d="M48.7,42.1h1.3v-1.3h-1.3V42.1z"/>
	</g>
	<g>
		<path class="st0" d="M52.7,42.1H54v-1.3h-1.3V42.1z"/>
	</g>
</g>
</svg>
