<?xml version="1.0" encoding="utf-8"?>
<!-- Generator: Adobe Illustrator 21.1.0, SVG Export Plug-In . SVG Version: 6.00 Build 0)  -->
<svg version="1.1" id="レイヤー_1" xmlns="http://www.w3.org/2000/svg" xmlns:xlink="http://www.w3.org/1999/xlink" x="0px"
	 y="0px" width="62px" height="56px" viewBox="0 0 62 56" style="enable-background:new 0 0 62 56;" xml:space="preserve">
<style type="text/css">
	.st0{fill:#FFFFFF;}
</style>
<g>
	<g>
		<path class="st0" d="M26.1,13.7c-0.1,0-0.2,0-0.4,0.1c-0.2,0.1-0.4,0.4-0.4,0.6V31c0,0.2,0.1,0.5,0.4,0.6c0.2,0.1,0.5,0.1,0.7,0
			L41,23.3c0.2-0.1,0.4-0.4,0.4-0.6c0-0.2-0.1-0.5-0.4-0.6l-14.6-8.3C26.3,13.8,26.2,13.7,26.1,13.7z M26.8,29.8V15.6l12.5,7.1
			L26.8,29.8z"/>
	</g>
	<g>
		<path class="st0" d="M16.4,24C16.3,24,16.3,24,16.4,24c-0.5,0.1-0.8,0.4-0.7,0.8c0.5,3.6,2.3,6.9,5.1,9.3
			c2.8,2.4,6.4,3.8,10.2,3.8c8.5,0,15.4-6.8,15.4-15.1c0-8.3-6.9-15.1-15.4-15.1c-3.7,0-7.4,1.3-10.2,3.8c-2.8,2.4-4.6,5.7-5.1,9.3
			c-0.1,0.4,0.2,0.7,0.6,0.8c0.2,0,0.4,0,0.5-0.1c0.2-0.1,0.2-0.3,0.3-0.5C18,14.1,24,9,30.9,9c7.7,0,14,6.2,14,13.7
			c0,7.6-6.3,13.7-14,13.7c-7,0-12.9-5.1-13.9-11.9c0-0.2-0.1-0.3-0.3-0.5C16.7,24,16.5,24,16.4,24z"/>
	</g>
	<g>
		<path class="st0" d="M6.1,49.3c-0.4,0-0.7,0.3-0.7,0.7c0,0.4,0.3,0.7,0.7,0.7h49.8c0.4,0,0.7-0.3,0.7-0.7c0-0.4-0.3-0.7-0.7-0.7
			H6.1z"/>
	</g>
	<g>
		<path class="st0" d="M0.7,0C0.3,0,0,0.3,0,0.7v54.6C0,55.7,0.3,56,0.7,56h60.6c0.4,0,0.7-0.3,0.7-0.7V0.7C62,0.3,61.7,0,61.3,0
			H0.7z M60.6,54.6H1.4v-9.2h59.2L60.6,54.6L60.6,54.6z M60.6,44H1.4V1.4h59.2L60.6,44L60.6,44z"/>
	</g>
</g>
</svg>
