<?xml version="1.0" encoding="utf-8"?>
<!-- Generator: Adobe Illustrator 21.1.0, SVG Export Plug-In . SVG Version: 6.00 Build 0)  -->
<svg version="1.1" id="レイヤー_1" xmlns="http://www.w3.org/2000/svg" xmlns:xlink="http://www.w3.org/1999/xlink" x="0px"
	 y="0px" width="59px" height="62px" viewBox="0 0 59 62" style="enable-background:new 0 0 59 62;" xml:space="preserve">
<style type="text/css">
	.st0{fill:#FFFFFF;}
</style>
<g>
	<g>
		<g>
			<path class="st0" d="M5.6,4.6C5.3,4.6,5,4.9,5,5.3v34.2c0,0.4,0.3,0.7,0.7,0.7h47.7c0.4,0,0.7-0.3,0.7-0.7V5.3
				c0-0.4-0.3-0.7-0.7-0.7L5.6,4.6L5.6,4.6z M52.7,38.8H6.3v-6.2h10.4l0.1,0.3c0.4,1,1.3,1.6,2.4,1.6c1.4,0,2.6-1.2,2.6-2.6
				c0-1.4-1.2-2.6-2.6-2.6c-1.1,0-2,0.6-2.4,1.6l-0.1,0.3H6.3v-3.6h18.4L28,31l-0.1,0.3c-0.2,0.3-0.2,0.7-0.2,1.1
				c0,1.4,1.2,2.6,2.6,2.6s2.6-1.2,2.6-2.6c0-1.4-1.2-2.6-2.6-2.6c-0.3,0-0.7,0.1-1,0.2l-0.3,0.1l-3.5-3.5c-0.1-0.1-0.3-0.2-0.5-0.2
				H6.3v-3.3h32.5l0.1,0.3c0.4,1,1.3,1.6,2.4,1.6c1.4,0,2.6-1.2,2.6-2.6c0-1.4-1.2-2.6-2.6-2.6c-1.1,0-2,0.6-2.4,1.6l-0.1,0.3H6.3
				v-3.3h8.4c0.2,0,0.3-0.1,0.5-0.2l3.5-3.5l0.3,0.1c0.3,0.1,0.6,0.2,1,0.2c1.4,0,2.6-1.2,2.6-2.6s-1.2-2.6-2.6-2.6
				c-1.4,0-2.6,1.2-2.6,2.6c0,0.4,0.1,0.7,0.2,1.1l0.1,0.3l-3.3,3.3H6.3V6h46.4v3.8H34.3c-0.2,0-0.3,0.1-0.5,0.2l-3.5,3.5L30,13.4
				c-0.3-0.1-0.6-0.2-1-0.2c-1.4,0-2.6,1.2-2.6,2.6s1.2,2.6,2.6,2.6c1.4,0,2.6-1.2,2.6-2.6c0-0.4-0.1-0.7-0.2-1.1l-0.1-0.3l3.3-3.3
				h18.1v20.5h-10l-0.1-0.3c-0.4-1-1.3-1.6-2.4-1.6c-1.4,0-2.6,1.2-2.6,2.6s1.2,2.6,2.6,2.6c1.1,0,2-0.6,2.4-1.6l0.1-0.3h10
				C52.7,33,52.7,38.8,52.7,38.8z M40.2,33.6c-0.7,0-1.3-0.6-1.3-1.3c0-0.7,0.6-1.3,1.3-1.3c0.7,0,1.3,0.6,1.3,1.3
				C41.5,33.1,40.9,33.6,40.2,33.6z M30.2,33.6c-0.7,0-1.3-0.6-1.3-1.3c0-0.7,0.6-1.3,1.3-1.3c0.7,0,1.3,0.6,1.3,1.3
				C31.4,33.1,30.9,33.6,30.2,33.6z M19.2,33.2c-0.7,0-1.3-0.6-1.3-1.3s0.6-1.3,1.3-1.3s1.3,0.6,1.3,1.3S19.9,33.2,19.2,33.2z
				 M41.3,23.7c-0.7,0-1.3-0.6-1.3-1.3c0-0.7,0.6-1.3,1.3-1.3s1.3,0.6,1.3,1.3C42.6,23.1,42,23.7,41.3,23.7z M29.1,17.1
				c-0.7,0-1.3-0.6-1.3-1.3c0-0.7,0.6-1.3,1.3-1.3s1.3,0.6,1.3,1.3C30.3,16.6,29.8,17.1,29.1,17.1z M19.9,13.7
				c-0.7,0-1.3-0.6-1.3-1.3c0-0.7,0.6-1.3,1.3-1.3s1.3,0.6,1.3,1.3C21.2,13.1,20.6,13.7,19.9,13.7z"/>
		</g>
	</g>
	<g>
		<g>
			<path class="st0" d="M4,48.6c-2.2,0-4,1.8-4,4V58c0,2.2,1.8,4,4,4h51c2.2,0,4-1.8,4-4v-5.4c0-2.2-1.8-4-4-4H43.5v-3.8h11
				c2.3,0,4.2-1.9,4.2-4.2V4.2c0-2.3-1.9-4.2-4.2-4.2h-50C2.2,0,0.3,1.9,0.3,4.2v36.4c0,2.3,1.9,4.2,4.2,4.2h11v3.8L4,48.6L4,48.6z
				 M55,60.7H4c-1.5,0-2.6-1.2-2.6-2.7v-5.4c0-1.5,1.2-2.7,2.6-2.7h51c1.5,0,2.6,1.2,2.6,2.7V58C57.7,59.5,56.5,60.7,55,60.7z
				 M42.2,48.6H16.8v-3.8h25.4V48.6z M54.5,43.5h-50c-1.6,0-2.8-1.3-2.8-2.8V4.2c0-1.6,1.3-2.8,2.8-2.8h50c1.6,0,2.8,1.3,2.8,2.8
				v36.4C57.3,42.2,56.1,43.5,54.5,43.5z"/>
		</g>
	</g>
	<g>
		<g>
			<path class="st0" d="M6.3,54.6c-0.4,0-0.7,0.3-0.7,0.7C5.7,55.7,6,56,6.3,56h19.8c0.4,0,0.7-0.3,0.7-0.7c0-0.4-0.3-0.7-0.7-0.7
				H6.3z"/>
		</g>
	</g>
	<g>
		<g>
			<path class="st0" d="M49.5,54.6c-0.4,0-0.7,0.3-0.7,0.7c0,0.4,0.3,0.7,0.7,0.7h3.5c0.4,0,0.7-0.3,0.7-0.7c0-0.4-0.3-0.7-0.7-0.7
				H49.5z"/>
		</g>
	</g>
</g>
</svg>
