<?xml version="1.0" encoding="utf-8"?>
<!-- Generator: Adobe Illustrator 25.0.0, SVG Export Plug-In . SVG Version: 6.00 Build 0)  -->
<svg version="1.1" id="レイヤー_1" xmlns="http://www.w3.org/2000/svg" xmlns:xlink="http://www.w3.org/1999/xlink" x="0px"
	 y="0px" viewBox="0 0 61 59" style="enable-background:new 0 0 61 59;" xml:space="preserve">
<style type="text/css">
	.st0{fill-rule:evenodd;clip-rule:evenodd;fill:#E8E8E8;}
</style>
<g>
	<path class="st0" d="M38,44.4c-2.5,0-5.6-1.9-5.6-4.6c0-23.2,0-23.2,0-23.2c0-0.2,0-0.4,0.2-0.5c4.4-8.4,4.4-8.4,4.4-8.4
		c0.2-0.4,0.5-0.5,0.9-0.5s0.7,0.2,0.9,0.5c4.4,8.4,4.4,8.4,4.4,8.4c0.2,0.2,0.2,0.4,0.2,0.5c0,23.2,0,23.2,0,23.2
		C43.3,42.5,40.5,44.4,38,44.4L38,44.4z M34.5,16.8c0,23.1,0,23.1,0,23.1c0,1.2,2,2.5,3.5,2.5s3.1-1.1,3.1-2.5c0-23.1,0-23.1,0-23.1
		c-3.3-6.3-3.3-6.3-3.3-6.3L34.5,16.8L34.5,16.8L34.5,16.8z"/>
	<path class="st0" d="M42.2,38.7c-8.7,0-8.7,0-8.7,0c-0.5,0-1.1-0.5-1.1-1.1c0-0.5,0.5-1.1,1.1-1.1c8.7,0,8.7,0,8.7,0
		c0.5,0,1.1,0.5,1.1,1.1C43.3,38.2,42.7,38.7,42.2,38.7L42.2,38.7z"/>
	<path class="st0" d="M42.2,35.9c-8.7,0-8.7,0-8.7,0c-0.5,0-1.1-0.5-1.1-1.1c0-0.5,0.5-1.1,1.1-1.1c8.7,0,8.7,0,8.7,0
		c0.5,0,1.1,0.5,1.1,1.1C43.3,35.4,42.7,35.9,42.2,35.9L42.2,35.9z"/>
	<path class="st0" d="M58.2,44.4c-11.6,0-11.6,0-11.6,0c-0.5,0-1.1-0.5-1.1-1.1c0-40.9,0-40.9,0-40.9c0-0.5,0.5-1.1,1.1-1.1
		c11.6,0,11.6,0,11.6,0c0.5,0,1.1,0.5,1.1,1.1c0,40.9,0,40.9,0,40.9C59.3,43.9,58.7,44.4,58.2,44.4L58.2,44.4z M47.6,42.3
		c9.4,0,9.4,0,9.4,0c0-38.8,0-38.8,0-38.8c-9.4,0-9.4,0-9.4,0V42.3L47.6,42.3L47.6,42.3z"/>
	<path class="st0" d="M50.9,9.2c-4.3,0-4.3,0-4.3,0c-0.5,0-1.1-0.5-1.1-1.1c0-0.5,0.5-1.1,1.1-1.1c4.3,0,4.3,0,4.3,0
		c0.5,0,1.1,0.5,1.1,1.1C52,8.7,51.4,9.2,50.9,9.2L50.9,9.2z"/>
	<path class="st0" d="M50.9,16.1c-4.3,0-4.3,0-4.3,0c-0.5,0-1.1-0.5-1.1-1.1c0-0.5,0.5-1.1,1.1-1.1c4.3,0,4.3,0,4.3,0
		c0.5,0,1.1,0.5,1.1,1.1C52,15.6,51.4,16.1,50.9,16.1L50.9,16.1z"/>
	<path class="st0" d="M50.9,23.3c-4.3,0-4.3,0-4.3,0c-0.5,0-1.1-0.5-1.1-1.1c0-0.5,0.5-1.1,1.1-1.1c4.3,0,4.3,0,4.3,0
		c0.5,0,1.1,0.5,1.1,1.1C52,22.8,51.4,23.3,50.9,23.3L50.9,23.3z"/>
	<path class="st0" d="M50.9,30.2c-4.3,0-4.3,0-4.3,0c-0.5,0-1.1-0.5-1.1-1c0-0.5,0.5-1,1.1-1c4.3,0,4.3,0,4.3,0c0.5,0,1.1,0.5,1.1,1
		C52,29.7,51.4,30.2,50.9,30.2L50.9,30.2z"/>
	<path class="st0" d="M50.9,37.2c-4.3,0-4.3,0-4.3,0c-0.5,0-1.1-0.5-1.1-1.1c0-0.5,0.5-1.1,1.1-1.1c4.3,0,4.3,0,4.3,0
		c0.5,0,1.1,0.5,1.1,1.1C52,36.7,51.4,37.2,50.9,37.2L50.9,37.2z"/>
	<path class="st0" d="M42.2,17.6c-8.7,0-8.7,0-8.7,0c-0.5,0-1.1-0.5-1.1-1.1c0-0.5,0.5-1.1,1.1-1.1c8.7,0,8.7,0,8.7,0
		c0.5,0,1.1,0.5,1.1,1.1C43.3,17.1,42.7,17.6,42.2,17.6L42.2,17.6z"/>
	<path class="st0" d="M37.9,35.9c-0.6,0-1.1-0.5-1.1-1.1c0-18.3,0-18.3,0-18.3c0-0.5,0.6-1.1,1.1-1.1S39,16,39,16.5
		c0,18.3,0,18.3,0,18.3C39,35.4,38.4,35.9,37.9,35.9L37.9,35.9z"/>
</g>
<g>
	<path class="st0" d="M34.4,41C34.4,41,34.4,41,34.4,41c0-0.4-0.2-1.1-0.8-1.9c-0.7-1-1.8-1.7-3.2-2.2c-1-0.4-2.1-0.6-3.2-0.8
		c-1.1-0.2-2.3-0.4-3.3-0.9c-0.9-1-0.9-1-0.9-1c-0.7-0.8-0.7-0.8-0.7-0.8c0.3-0.7,0.7-1.4,1-2.2c0.2-0.5,0.4-1,0.5-1.5c0,0,0,0,0,0
		s0,0,0,0c0.3,0,0.9-0.6,1-1c0.2-2.7,0.2-2.7,0.2-2.7c0-0.3-0.1-0.5-0.3-0.7c0.8-2.2,0.8-2.2,0.8-2.2c0.2-0.5,0.1-1.1-0.2-1.5
		C23.1,18,23.1,18,23.1,18c-0.3-0.4-0.7-0.6-1.1-0.7c-0.5-0.1-0.5-0.1-0.5-0.1c-1.3-0.2-3.5-0.5-4.6-0.7c-0.1,0-0.2,0-0.3,0
		c-0.3,0-0.6,0.1-0.9,0.3c-1.5,1-1.5,1-1.5,1c-1,0-1,0-1,0c-0.6,0-1.2,0.3-1.5,0.9c-0.4,0.7-0.9,1.9-1.1,2.3
		c-0.2,0.3-0.2,0.7-0.1,1.1c0.1,0.6,0.3,1.8,0.7,3.6c-0.2,0.2-0.3,0.4-0.3,0.6c0.2,2.7,0.2,2.7,0.2,2.7c0,0.5,0.6,0.8,0.8,0.8
		c0,0,0,0,0,0l0,0c0,0,0.1,0,0.1,0c0.2,0.6,0.4,1.2,0.6,1.8c0.3,0.8,0.6,1.4,0.9,2c-0.7,0.8-0.7,0.8-0.7,0.8
		c-0.7,0.9-0.7,0.9-0.7,0.9c-1,0.5-2.2,0.7-3.3,0.9c-1.1,0.2-2.2,0.4-3.2,0.8c-1.4,0.5-2.5,1.3-3.1,2.2c-0.6,0.8-0.8,1.5-0.8,1.9
		c0,0,0,0,0,0C1.5,42.1,1.1,48.2,1,52.2c0,1.1,0.3,2.4,2.5,3.4c2.3,1.1,5.5,1.8,9.4,2.2c3,0.3,5.2,0.3,5.2,0.3c0.1,0,8.7,0,14.6-2.5
		c0,0,0,0,0,0c2.2-1,2.5-2.3,2.5-3.4C35.2,48.2,34.8,42.1,34.4,41L34.4,41z M20.8,41.4c-2.5-2-2.5-2-2.5-2c3.8-4.4,3.8-4.4,3.8-4.4
		c1.1,1.1,1.1,1.1,1.1,1.1L20.8,41.4L20.8,41.4L20.8,41.4z M15.4,41.4c-2.4-5.3-2.4-5.3-2.4-5.3C14,35,14,35,14,35l0,0
		c4,4.4,4,4.4,4,4.4L15.4,41.4L15.4,41.4L15.4,41.4z M32.9,52.8c-0.1,0.1-0.3,0.4-1,0.7c-5.5,2.2-13.6,2.3-13.7,2.3
		c-0.2,0-8.7-0.1-13.7-2.3c-0.7-0.3-1-0.6-1-0.7c-0.1-0.1-0.1-0.3-0.1-0.5c0.1-4.6,0.5-9.9,0.7-10.6c0-0.1,0.1-0.2,0.1-0.3
		c0.3-1.6,1.9-2.2,2.5-2.4c0.8-0.3,1.8-0.5,2.8-0.7c1-0.2,2-0.4,3-0.7c1.9,4.3,1.9,4.3,1.9,4.3c0.6,1.4,0.6,1.4,0.6,1.4
		c1.1-0.9,1.1-0.9,1.1-0.9c0.8-0.6,0.8-0.6,0.8-0.6c0,0.1,0,0.1,0,0.1C14.8,52,14.8,52,14.8,52c3.3,3.1,3.3,3.1,3.3,3.1
		c3.4-3.1,3.4-3.1,3.4-3.1c-2.2-10.2-2.2-10.2-2.2-10.2c0,0,0,0,0,0c0.8,0.6,0.8,0.6,0.8,0.6c1.2,0.9,1.2,0.9,1.2,0.9
		c0.6-1.4,0.6-1.4,0.6-1.4c1.9-4.3,1.9-4.3,1.9-4.3c1,0.3,2,0.5,3,0.7c1,0.2,1.9,0.3,2.7,0.7c0.6,0.2,2.2,0.8,2.6,2.4
		c0,0.1,0,0.2,0,0.3c0.2,0.7,0.6,6,0.8,10.6C33,52.5,33,52.6,32.9,52.8L32.9,52.8z"/>
</g>
</svg>
