<?xml version="1.0" encoding="utf-8"?>
<!-- Generator: Adobe Illustrator 21.1.0, SVG Export Plug-In . SVG Version: 6.00 Build 0)  -->
<svg version="1.1" id="レイヤー_1" xmlns="http://www.w3.org/2000/svg" xmlns:xlink="http://www.w3.org/1999/xlink" x="0px"
	 y="0px" width="64px" height="60px" viewBox="0 0 64 60" style="enable-background:new 0 0 64 60;" xml:space="preserve">
<style type="text/css">
	.st0{fill:#FFFFFF;}
</style>
<g>
	<g>
		<path class="st0" d="M16.4,60h31.2v-5c0-0.4-0.3-0.7-0.7-0.7h-2.4L42.7,48h20.6c0.4,0,0.7-0.3,0.7-0.7V2.7C64,1.2,62.8,0,61.3,0
			H2.7C1.2,0,0,1.2,0,2.7v44.6C0,47.7,0.3,48,0.7,48h20.6l-1.7,6.3h-2.4c-0.4,0-0.7,0.3-0.7,0.7C16.4,55,16.4,60,16.4,60z
			 M46.1,58.6H17.9v-2.8h2.7l2.2-7.7h18.4l2.1,7.7h2.8C46.1,55.7,46.1,58.6,46.1,58.6z M62.6,46.6H1.4v-9.7h61.1V46.6z M62.6,35.5
			H59V5.8c0-0.4-0.3-0.7-0.7-0.7H5.8C5.4,5.1,5,5.4,5,5.8v29.7H1.4V2.7C1.4,2,2,1.4,2.7,1.4h58.5c0.7,0,1.3,0.6,1.3,1.3
			C62.6,2.7,62.6,35.5,62.6,35.5z M57.5,35.5h-51V6.5h51V35.5z"/>
	</g>
	<g>
		<path class="st0" d="M32,38.5c-1.5,0-2.7,1.2-2.7,2.7c0,1.5,1.2,2.7,2.7,2.7c1.5,0,2.7-1.2,2.7-2.7C34.7,39.7,33.5,38.5,32,38.5z
			 M32,40.5c-0.4,0-0.7,0.3-0.7,0.7c0,0.4,0.3,0.7,0.7,0.7s0.7-0.3,0.7-0.7C32.7,40.8,32.4,40.5,32,40.5z"/>
	</g>
	<g>
		<path class="st0" d="M9.1,12.6h1.4v-2h2V9.1H9.8c-0.4,0-0.7,0.3-0.7,0.7C9.1,9.8,9.1,12.6,9.1,12.6z"/>
	</g>
	<g>
		<path class="st0" d="M18.9,11.1c-0.4,0-0.7,0.3-0.7,0.7v6.1c0,0.4,0.3,0.7,0.7,0.7h6.1c0.4,0,0.7-0.3,0.7-0.7v-6.1
			c0-0.4-0.3-0.7-0.7-0.7C24.9,11.1,18.9,11.1,18.9,11.1z M24.2,17.2h-3.6l3.6-3.6C24.2,13.6,24.2,17.2,24.2,17.2z M19.6,16.2v-3.6
			h3.6L19.6,16.2z"/>
	</g>
	<g>
		<path class="st0" d="M29.3,13.6h1.4v-1.4h-1.4V13.6z"/>
	</g>
	<g>
		<path class="st0" d="M33.3,13.6h1.4v-1.4h-1.4V13.6z"/>
	</g>
	<g>
		<path class="st0" d="M29.3,17.6h15.6v-1.4H29.3V17.6z"/>
	</g>
	<g>
		<path class="st0" d="M18.9,22.3c-0.4,0-0.7,0.3-0.7,0.7v6.1c0,0.4,0.3,0.7,0.7,0.7h6.1c0.4,0,0.7-0.3,0.7-0.7V23
			c0-0.4-0.3-0.7-0.7-0.7C24.9,22.3,18.9,22.3,18.9,22.3z M24.2,28.4h-4.6v-4.6h4.6C24.2,23.7,24.2,28.4,24.2,28.4z"/>
	</g>
	<g>
		<path class="st0" d="M29.3,24.7h1.4v-1.4h-1.4V24.7z"/>
	</g>
	<g>
		<path class="st0" d="M33.3,24.7h1.4v-1.4h-1.4V24.7z"/>
	</g>
	<g>
		<path class="st0" d="M29.3,28.8h15.6v-1.4H29.3V28.8z"/>
	</g>
</g>
</svg>
