<?xml version="1.0" encoding="utf-8"?>
<!-- Generator: Adobe Illustrator 25.0.0, SVG Export Plug-In . SVG Version: 6.00 Build 0)  -->
<svg version="1.1" id="レイヤー_1" xmlns="http://www.w3.org/2000/svg" xmlns:xlink="http://www.w3.org/1999/xlink" x="0px"
	 y="0px" viewBox="0 0 61 59" style="enable-background:new 0 0 61 59;" xml:space="preserve">
<style type="text/css">
	.st0{fill-rule:evenodd;clip-rule:evenodd;fill:#E8E8E8;}
</style>
<g>
	<path class="st0" d="M55.5,46.2c-0.6-1.8-3.2-1.8-5.2-1.8c-1.9,0-4.5,1.8-5.8,2.9c0-0.6-1.3-1.2-1.9-1.8c-1.9-0.6-3.2-1.2-4.5-2.3
		c-2.6-1.8-7.1-2.9-10.3-2.9c-0.6,0-3.2,0.6-6.5,1.8c-1.3,0-3.2,0-3.9,0l0,0c0-0.6-0.6-0.6-1.3-0.6c-7.8,0-7.8,0-7.8,0
		c-0.6,0-0.6,0-0.6,0.6c0,14.6,0,14.6,0,14.6c0,0.6,0,1.2,0.6,1.2c7.8,0,7.8,0,7.8,0c0.6,0,1.3-0.6,1.3-1.2c0-2.9,0-2.9,0-2.9
		c2.6-0.6,5.8-0.6,7.1,0c3.2,1.2,11.6,4.1,13.6,4.1c1.3,0,4.5-1.8,8.4-3.5c1.3-0.6,1.3-0.6,1.3-0.6c2.6-1.2,5.2-4.1,7.1-5.3
		c0-0.6,0-0.6,0.6-0.6C56.2,47.3,56.2,46.7,55.5,46.2L55.5,46.2z M15.4,56.1c-5.8,0-5.8,0-5.8,0c0-12.8,0-12.8,0-12.8
		c5.8,0,5.8,0,5.8,0l0,0c0,9.9,0,9.9,0,9.9V56.1L15.4,56.1L15.4,56.1z M52.9,47.3c-1.3,1.2-3.9,3.5-5.8,4.7
		c-1.3,0.6-1.3,0.6-1.3,0.6c-2.6,1.2-7.1,3.5-7.8,3.5c-1.3,0-9.1-2.3-12.3-4.1c-1.3,0-2.6-0.6-3.9-0.6C20,51.4,18,52,17.4,52
		c0-8.2,0-8.2,0-8.2c0.6,0,2.6,0,4.5,0c3.2-1.2,5.2-1.8,6.5-1.8c1.9,0,5.8,0.6,8.4,2.9c1.3,0.6,3.2,1.8,4.5,2.3
		c0.6,0.6,1.3,0.6,1.9,1.2c-0.6,0.6-2.6,1.2-3.9,1.2c-1.3,0-4.5-1.2-6.5-2.3c-0.6-0.6-1.3,0-1.3,0c-0.6,0.6-0.6,1.2,0,1.2
		c0.6,0.6,5.2,2.9,7.8,2.9c2.6,0,5.2-1.8,5.8-2.3c1.3-1.2,3.9-2.9,5.2-2.9c1.3,0,2.6,0,3.2,0.6C53.6,46.7,53.6,46.7,52.9,47.3
		L52.9,47.3z"/>
</g>
<g>
	<path class="st0" d="M22.7,9.8c2.7,0,2.7,0,2.7,0c0,3.2,0,3.2,0,3.2c-2.7,0-2.7,0-2.7,0V9.8L22.7,9.8L22.7,9.8z M28.5,13
		c2.2,0,2.2,0,2.2,0c0-3.2,0-3.2,0-3.2c-2.2,0-2.2,0-2.2,0V13L28.5,13L28.5,13z M22.7,19.5c2.7,0,2.7,0,2.7,0c0-3.7,0-3.7,0-3.7
		c-2.7,0-2.7,0-2.7,0V19.5L22.7,19.5L22.7,19.5z M28.5,19.5c2.2,0,2.2,0,2.2,0c0-3.7,0-3.7,0-3.7c-2.2,0-2.2,0-2.2,0V19.5L28.5,19.5
		L28.5,19.5z M22.7,25.5c2.7,0,2.7,0,2.7,0c0-3.2,0-3.2,0-3.2c-2.7,0-2.7,0-2.7,0V25.5L22.7,25.5L22.7,25.5z M28.5,25.5
		c2.2,0,2.2,0,2.2,0c0-3.2,0-3.2,0-3.2c-2.2,0-2.2,0-2.2,0V25.5L28.5,25.5L28.5,25.5z M48.1,15.8c0,16.2,0,16.2,0,16.2
		c0.4,0,0.4,0,0.4,0c0.4,0,0.9,0.5,0.9,0.9c0,2.8,0,2.8,0,2.8c0,0.5-0.4,0.9-0.9,0.9c-13.3,0-13.3,0-13.3,0c-3.6,0-3.6,0-3.6,0
		c-13.3,0-13.3,0-13.3,0c-0.4,0-0.9-0.5-0.9-0.9c0-2.8,0-2.8,0-2.8c0-0.5,0.4-0.9,0.9-0.9s0.4,0,0.4,0c0-25,0-25,0-25
		c-0.4,0-0.4,0-0.4,0c-0.4,0-0.9-0.5-0.9-0.9c0-2.8,0-2.8,0-2.8c0-0.5,0.4-0.9,0.9-0.9c16.9,0,16.9,0,16.9,0c0.4,0,0.9,0.5,0.9,0.9
		c0,2.8,0,2.8,0,2.8c0,0.5-0.4,0.9-0.9,0.9c-0.4,0-0.4,0-0.4,0c0,4.2,0,4.2,0,4.2c0.4,0,0.4,0,0.4,0c0-0.9,0-0.9,0-0.9
		c0-0.5,0.4-0.9,0.9-0.9c4.4,0,4.4,0,4.4,0c0.4,0,0.9,0.5,0.9,0.9c0,0.9,0,0.9,0,0.9c0.9,0,0.9,0,0.9,0c0-2.8,0-2.8,0-2.8
		c0-0.5,0.4-0.9,0.9-0.9c2.2,0,2.2,0,2.2,0c0.4,0,0.9,0.5,0.9,0.9c0,2.8,0,2.8,0,2.8c2.2,0,2.2,0,2.2,0c0.4,0,0.9,0.5,0.9,0.9
		c0,2.8,0,2.8,0,2.8c0,0.5-0.4,0.9-0.9,0.9H48.1L48.1,15.8L48.1,15.8z M31.2,35.2c0.9,0,0.9,0,0.9,0c2.7,0,2.7,0,2.7,0
		c0-1.9,0-1.9,0-1.9c-0.9,0-0.9,0-0.9,0c-1.3,0-1.3,0-1.3,0c-0.4,0-0.4,0-0.4,0c-0.9,0-0.9,0-0.9,0c-11.6,0-11.6,0-11.6,0
		c-0.9,0-0.9,0-0.9,0c0,1.9,0,1.9,0,1.9H31.2L31.2,35.2L31.2,35.2z M33.4,12.6c0-0.9,0-0.9,0-0.9c0-5.1,0-5.1,0-5.1
		c-13.3,0-13.3,0-13.3,0c0,25.9,0,25.9,0,25.9c11.6,0,11.6,0,11.6,0c0.4,0,0.4,0,0.4,0c0.9,0,0.9,0,0.9,0c0.4,0,0.4,0,0.4,0
		c0-17.1,0-17.1,0-17.1c0-0.9,0-0.9,0-0.9V12.6L33.4,12.6L33.4,12.6z M34.7,3.8c-16,0-16,0-16,0c0,1.9,0,1.9,0,1.9
		c0.9,0,0.9,0,0.9,0c14.2,0,14.2,0,14.2,0c0.9,0,0.9,0,0.9,0V3.8L34.7,3.8L34.7,3.8z M35.6,35.2c12.4,0,12.4,0,12.4,0
		c0-1.9,0-1.9,0-1.9c-0.9,0-0.9,0-0.9,0c-11.6,0-11.6,0-11.6,0V35.2L35.6,35.2L35.6,35.2z M46.7,15.3c-12.4,0-12.4,0-12.4,0
		c0,17.1,0,17.1,0,17.1c0.9,0,0.9,0,0.9,0c11.6,0,11.6,0,11.6,0V15.3L46.7,15.3L46.7,15.3z M47.2,14.4c0.9,0,0.9,0,0.9,0
		c0-1.9,0-1.9,0-1.9c-2.7,0-2.7,0-2.7,0c-2.2,0-2.2,0-2.2,0c-2.7,0-2.7,0-2.7,0c-4.4,0-4.4,0-4.4,0c-1.8,0-1.8,0-1.8,0
		c0,1.9,0,1.9,0,1.9H47.2L47.2,14.4L47.2,14.4z M40.1,11.6c0-0.9,0-0.9,0-0.9c-3.6,0-3.6,0-3.6,0c0,0.9,0,0.9,0,0.9H40.1L40.1,11.6
		L40.1,11.6z M45,11.6c0-2.8,0-2.8,0-2.8c-1.3,0-1.3,0-1.3,0c0,2.8,0,2.8,0,2.8H45L45,11.6L45,11.6z M44.1,17.7c-2.7,0-2.7,0-2.7,0
		c0,3.7,0,3.7,0,3.7c2.7,0,2.7,0,2.7,0V17.7L44.1,17.7L44.1,17.7z M39.2,17.7c-2.2,0-2.2,0-2.2,0c0,3.7,0,3.7,0,3.7
		c2.2,0,2.2,0,2.2,0V17.7L39.2,17.7L39.2,17.7z M44.1,24.1c-2.7,0-2.7,0-2.7,0c0,3.2,0,3.2,0,3.2c2.7,0,2.7,0,2.7,0V24.1L44.1,24.1
		L44.1,24.1z M39.2,24.1c-2.2,0-2.2,0-2.2,0c0,3.2,0,3.2,0,3.2c2.2,0,2.2,0,2.2,0V24.1L39.2,24.1L39.2,24.1z"/>
</g>
</svg>
